ply
format ascii 1.0
comment VCGLIB generated
comment TextureFile RedTex.bmp
element vertex 257
property float x
property float y
property float z
property float nx
property float ny
property float nz
property float texture_u
property float texture_v
element face 342
property list uchar int vertex_indices
end_header
12.02302 -5.229641 0.003502 -0 0 1 0.231177 0.569551
11.9 -5 0.003502 -0 0 1 0.231177 0.485385
11.9 -5.459282 0.003502 -0 0 1 0.231177 0.485385
11.9 -4.540718 0.003502 0 -0 1 0.231177 0.485385
12.02302 -4.770359 0.003502 0 -0 1 0.231177 0.569551
11.77698 -5.229641 0.003502 -0 0 1 0.231177 0.401219
11.77698 -4.770359 0.003502 0 0 1 0.231177 0.401219
12.01063 -5.688923 0.003502 0 0 1 0.231177 0.561068
12.01063 -4.311077 0.003502 -0 0 1 0.231177 0.561068
11.78938 -5.688923 0.003502 0 0 1 0.231177 0.409702
11.78938 -4.311077 0.003502 -0 0 1 0.231177 0.409702
12.16475 -5.459282 0.003502 -0 0 1 0.231177 0.666511
12.16475 -4.540718 0.003502 0 0 1 0.231177 0.666511
11.63525 -5.459282 0.003502 -0 0 1 0.231177 0.304259
11.63525 -4.540718 0.003502 0 0 1 0.231177 0.304259
11.9 -5.918565 0.003502 0 -0 1 0.231177 0.485385
11.9 -4.081435 0.003502 -0 0 1 0.231177 0.485385
12.15528 -5.00563 0.003502 0 0 1 0.231177 0.660034
12.15528 -4.99437 0.003502 -0 0 1 0.231177 0.660034
11.64472 -5.00563 0.003502 0 -0 1 0.231177 0.310736
11.64472 -4.99437 0.003502 -0 -0 1 0.231177 0.310736
12.03226 -4.775989 0.003502 -0 0 1 0.231177 0.575869
12.03226 -5.224011 0.003502 0 0 1 0.231177 0.575869
11.76774 -4.775989 0.003502 -0 0 1 0.231177 0.394901
11.76774 -5.224011 0.003502 0 0 1 0.231177 0.394901
12.16456 -4.580259 0.003502 0 0 1 0.231177 0.666384
12.16456 -5.419741 0.003502 -0 0 1 0.231177 0.666384
11.63544 -4.580259 0.003502 0 0 1 0.231177 0.304387
11.63544 -5.419741 0.003502 -0 0 1 0.231177 0.304387
12.03226 -4.322376 0.003502 -0 0 1 0.231177 0.575869
11.9 -4.081435 0.003502 -0 0 1 0.231177 0.485385
11.9 -4.540718 0.003502 -0 0 1 0.231177 0.485385
11.9 -5.459282 0.003502 0 -0 1 0.231177 0.485385
11.9 -5.918565 0.003502 0 -0 1 0.231177 0.485385
12.03226 -5.677624 0.003502 0 -0 1 0.231177 0.575869
11.76774 -4.322376 0.003502 -0 0 1 0.231177 0.394901
11.76774 -5.677624 0.003502 0 0 1 0.231177 0.394901
12.34661 -4.775989 0.003502 -0 0 1 0.231177 0.790932
12.34661 -5.224011 0.003502 0 0 1 0.231177 0.790932
11.45339 -4.775989 0.003502 -0 0 1 0.231177 0.179838
11.45339 -5.224011 0.003502 0 0 1 0.231177 0.179838
12.36223 -5.212425 0.003502 0 0 1 0.231177 0.801619
12.36223 -4.787575 0.003502 -0 0 1 0.231177 0.801619
11.43777 -5.212425 0.003502 0 -0 1 0.231177 0.169151
11.43777 -4.787575 0.003502 -0 -0 1 0.231177 0.169151
12.57842 -5 0.003502 -0 -0 1 0.231177 0.949521
11.22159 -5 0.003502 -0 0 1 0.231177 0.021249
11.34488 -4.611957 0.009741 -0 0 1 1.000000 0.105600
11.32173 -4.568739 0.009741 -0 0 1 1.000000 0.089761
11.32173 -4.655174 0.009741 -0 0 1 1.000000 0.089761
11.32173 -4.482305 0.009741 0 -0 1 1.000000 0.089761
11.34488 -4.525522 0.009741 0 -0 1 1.000000 0.105600
11.29858 -4.611957 0.009741 -0 0 1 1.000000 0.073921
11.29858 -4.525522 0.009741 0 0 1 1.000000 0.073921
11.34255 -4.698392 0.009741 0 0 1 1.000000 0.104004
11.34255 -4.439087 0.009741 -0 0 1 1.000000 0.104004
11.30091 -4.698392 0.009741 0 0 1 1.000000 0.075518
11.30091 -4.439087 0.009741 -0 0 1 1.000000 0.075518
11.37155 -4.655174 0.009741 -0 0 1 1.000000 0.123848
11.37155 -4.482305 0.009741 0 0 1 1.000000 0.123848
11.2719 -4.655174 0.009741 -0 0 1 1.000000 0.055674
11.2719 -4.482305 0.009741 0 0 1 1.000000 0.055674
11.32173 -4.74161 0.009741 0 -0 1 1.000000 0.089761
11.32173 -4.39587 0.009741 -0 0 1 1.000000 0.089761
11.36977 -4.569799 0.009741 0 0 1 1.000000 0.122629
11.36977 -4.56768 0.009741 -0 0 1 1.000000 0.122629
11.27369 -4.569799 0.009741 0 -0 1 1.000000 0.056893
11.27369 -4.56768 0.009741 -0 -0 1 1.000000 0.056893
11.34662 -4.526582 0.009741 -0 0 1 1.000000 0.106790
11.34662 -4.610898 0.009741 0 0 1 1.000000 0.106790
11.29684 -4.526582 0.009741 -0 0 1 1.000000 0.072732
11.29684 -4.610898 0.009741 0 0 1 1.000000 0.072732
11.37152 -4.489746 0.009741 0 0 1 1.000000 0.123824
11.37152 -4.647733 0.009741 -0 0 1 1.000000 0.123824
11.27194 -4.489746 0.009741 0 0 1 1.000000 0.055697
11.27194 -4.647733 0.009741 -0 0 1 1.000000 0.055697
11.34662 -4.441214 0.009741 -0 0 1 1.000000 0.106790
11.32173 -4.39587 0.009741 -0 0 1 1.000000 0.089761
11.32173 -4.482305 0.009741 -0 0 1 1.000000 0.089761
11.32173 -4.655175 0.009741 0 -0 1 1.000000 0.089761
11.32173 -4.74161 0.009741 0 -0 1 1.000000 0.089761
11.34662 -4.696266 0.009741 0 -0 1 1.000000 0.106790
11.29684 -4.441214 0.009741 -0 0 1 1.000000 0.072732
11.29684 -4.696266 0.009741 0 0 1 1.000000 0.072732
11.40578 -4.526582 0.009741 -0 0 1 1.000000 0.147263
11.40578 -4.610898 0.009741 0 0 1 1.000000 0.147263
11.23768 -4.526582 0.009741 -0 0 1 1.000000 0.032258
11.23768 -4.610898 0.009741 0 0 1 1.000000 0.032258
11.40872 -4.608717 0.009741 0 0 1 1.000000 0.149275
11.40872 -4.528762 0.009741 -0 0 1 1.000000 0.149275
11.23474 -4.608717 0.009741 0 -0 1 1.000000 0.030247
11.23474 -4.528762 0.009741 -0 -0 1 1.000000 0.030247
11.4494 -4.568739 0.009741 -0 -0 1 1.000000 0.177109
11.19405 -4.568739 0.009741 -0 0 1 1.000000 0.002413
12.53816 -5.493852 0.009741 -0 0 1 1.000000 0.921979
12.51501 -5.450634 0.009741 -0 0 1 1.000000 0.906139
12.51501 -5.537069 0.009741 -0 0 1 1.000000 0.906139
12.51501 -5.364199 0.009741 0 -0 1 1.000000 0.906139
12.53816 -5.407417 0.009741 0 -0 1 1.000000 0.921979
12.49185 -5.493852 0.009741 -0 0 1 1.000000 0.890300
12.49185 -5.407417 0.009741 0 0 1 1.000000 0.890300
12.53583 -5.580287 0.009741 0 0 1 1.000000 0.920382
12.53583 -5.320982 0.009741 -0 0 1 1.000000 0.920382
12.49419 -5.580287 0.009741 0 0 1 1.000000 0.891896
12.49419 -5.320982 0.009741 -0 0 1 1.000000 0.891896
12.56483 -5.537069 0.009741 -0 0 1 1.000000 0.940226
12.56483 -5.364199 0.009741 0 0 1 1.000000 0.940226
12.46518 -5.537069 0.009741 -0 0 1 1.000000 0.872053
12.46518 -5.364199 0.009741 0 0 1 1.000000 0.872053
12.51501 -5.623504 0.009741 0 -0 1 1.000000 0.906139
12.51501 -5.277764 0.009741 -0 0 1 1.000000 0.906139
12.56305 -5.451694 0.009741 0 0 1 1.000000 0.939007
12.56305 -5.449574 0.009741 -0 0 1 1.000000 0.939007
12.46696 -5.451694 0.009741 0 -0 1 1.000000 0.873271
12.46696 -5.449574 0.009741 -0 -0 1 1.000000 0.873271
12.5399 -5.408476 0.009741 -0 0 1 1.000000 0.923168
12.5399 -5.492792 0.009741 0 0 1 1.000000 0.923168
12.49012 -5.408476 0.009741 -0 0 1 1.000000 0.889111
12.49012 -5.492792 0.009741 0 0 1 1.000000 0.889111
12.5648 -5.371641 0.009741 0 0 1 1.000000 0.940203
12.5648 -5.529628 0.009741 -0 0 1 1.000000 0.940203
12.46522 -5.371641 0.009741 0 0 1 1.000000 0.872076
12.46522 -5.529628 0.009741 -0 0 1 1.000000 0.872076
12.5399 -5.323108 0.009741 -0 0 1 1.000000 0.923168
12.51501 -5.277764 0.009741 -0 0 1 1.000000 0.906139
12.51501 -5.364199 0.009741 -0 0 1 1.000000 0.906139
12.51501 -5.537069 0.009741 0 -0 1 1.000000 0.906139
12.51501 -5.623504 0.009741 0 -0 1 1.000000 0.906139
12.5399 -5.57816 0.009741 0 -0 1 1.000000 0.923168
12.49012 -5.323108 0.009741 -0 0 1 1.000000 0.889111
12.49012 -5.57816 0.009741 0 0 1 1.000000 0.889111
12.59906 -5.408476 0.009741 -0 0 1 1.000000 0.963642
12.59906 -5.492792 0.009741 0 0 1 1.000000 0.963642
12.43096 -5.408476 0.009741 -0 0 1 1.000000 0.848637
12.43096 -5.492792 0.009741 0 0 1 1.000000 0.848637
12.602 -5.490612 0.009741 0 0 1 1.000000 0.965653
12.602 -5.410657 0.009741 -0 0 1 1.000000 0.965653
12.42802 -5.490612 0.009741 0 -0 1 1.000000 0.846626
12.42802 -5.410657 0.009741 -0 -0 1 1.000000 0.846626
12.64268 -5.450634 0.009741 -0 -0 1 1.000000 0.993488
12.38733 -5.450634 0.009741 -0 0 1 1.000000 0.818791
12.00398 -5.194086 0.006013 -0 0 1 0.540604 0.556519
11.9 -5 0.006013 -0 0 1 0.540604 0.485385
11.9 -5.388171 0.006013 -0 0 1 0.540604 0.485385
11.9 -4.611829 0.006013 0 -0 1 0.540604 0.485385
12.00398 -4.805914 0.006013 0 -0 1 0.540604 0.556519
11.79603 -5.194086 0.006013 -0 0 1 0.540604 0.414251
11.79603 -4.805914 0.006013 0 0 1 0.540604 0.414251
11.9935 -5.582257 0.006013 0 0 1 0.540604 0.549350
11.9935 -4.417743 0.006013 -0 0 1 0.540604 0.549350
11.80651 -5.582257 0.006013 0 0 1 0.540604 0.421420
11.80651 -4.417743 0.006013 -0 0 1 0.540604 0.421420
12.12376 -5.388171 0.006013 -0 0 1 0.540604 0.638467
12.12376 -4.611829 0.006013 0 0 1 0.540604 0.638467
11.67625 -5.388171 0.006013 -0 0 1 0.540604 0.332303
11.67625 -4.611829 0.006013 0 0 1 0.540604 0.332303
11.9 -5.776342 0.006013 0 -0 1 0.540604 0.485385
11.9 -4.223658 0.006013 -0 0 1 0.540604 0.485385
12.11576 -5.004758 0.006013 0 0 1 0.540604 0.632994
12.11576 -4.995242 0.006013 -0 0 1 0.540604 0.632994
11.68425 -5.004758 0.006013 0 -0 1 0.540604 0.337777
11.68425 -4.995242 0.006013 -0 -0 1 0.540604 0.337777
12.01178 -4.810673 0.006013 -0 0 1 0.540604 0.561859
12.01178 -5.189327 0.006013 0 0 1 0.540604 0.561859
11.78822 -4.810673 0.006013 -0 0 1 0.540604 0.408911
11.78822 -5.189327 0.006013 0 0 1 0.540604 0.408911
12.1236 -4.645248 0.006013 0 0 1 0.540604 0.638359
12.1236 -5.354752 0.006013 -0 0 1 0.540604 0.638359
11.6764 -4.645248 0.006013 0 0 1 0.540604 0.332411
11.6764 -5.354752 0.006013 -0 0 1 0.540604 0.332411
12.01178 -4.427293 0.006013 -0 0 1 0.540604 0.561859
11.9 -4.223657 0.006013 -0 0 1 0.540604 0.485385
11.9 -4.611829 0.006013 -0 0 1 0.540604 0.485385
11.9 -5.388171 0.006013 0 -0 1 0.540604 0.485385
11.9 -5.776343 0.006013 0 -0 1 0.540604 0.485385
12.01178 -5.572707 0.006013 0 -0 1 0.540604 0.561859
11.78822 -4.427293 0.006013 -0 0 1 0.540604 0.408911
11.78822 -5.572707 0.006013 0 0 1 0.540604 0.408911
12.27746 -4.810673 0.006013 -0 0 1 0.540604 0.743624
12.27746 -5.189327 0.006013 0 0 1 0.540604 0.743624
11.52254 -4.810673 0.006013 -0 0 1 0.540604 0.227146
11.52254 -5.189327 0.006013 0 0 1 0.540604 0.227146
12.29066 -5.179535 0.006013 0 0 1 0.540604 0.752656
12.29066 -4.820465 0.006013 -0 0 1 0.540604 0.752656
11.50934 -5.179535 0.006013 0 -0 1 0.540604 0.218114
11.50934 -4.820465 0.006013 -0 -0 1 0.540604 0.218114
12.47338 -5 0.006013 -0 -0 1 0.540604 0.877658
11.32663 -5 0.006013 -0 0 1 0.540604 0.093112
11.97131 -5.094321 0.009741 -0 0 1 1.000000 0.534173
11.9 -4.961209 0.009741 -0 0 1 1.000000 0.485385
11.9 -5.227433 0.009741 -0 0 1 1.000000 0.485385
11.9 -4.694985 0.009741 0 -0 1 1.000000 0.485385
11.97131 -4.828097 0.009741 0 -0 1 1.000000 0.534173
11.82869 -5.094321 0.009741 -0 0 1 1.000000 0.436598
11.82869 -4.828097 0.009741 0 0 1 1.000000 0.436598
11.96412 -5.360545 0.009741 0 0 1 1.000000 0.529255
11.96412 -4.561872 0.009741 -0 0 1 1.000000 0.529255
11.83588 -5.360545 0.009741 0 0 1 1.000000 0.441515
11.83588 -4.561872 0.009741 -0 0 1 1.000000 0.441515
12.05346 -5.227433 0.009741 -0 0 1 1.000000 0.590375
12.05346 -4.694985 0.009741 0 0 1 1.000000 0.590375
11.74654 -5.227433 0.009741 -0 0 1 1.000000 0.380395
11.74654 -4.694985 0.009741 0 0 1 1.000000 0.380395
11.9 -5.493657 0.009741 0 -0 1 1.000000 0.485385
11.9 -4.428761 0.009741 -0 0 1 1.000000 0.485385
12.04798 -4.964472 0.009741 0 0 1 1.000000 0.586621
12.04798 -4.957945 0.009741 -0 0 1 1.000000 0.586621
11.75203 -4.964472 0.009741 0 -0 1 1.000000 0.384150
11.75203 -4.957945 0.009741 -0 -0 1 1.000000 0.384150
11.97666 -4.83136 0.009741 -0 0 1 1.000000 0.537834
11.97666 -5.091057 0.009741 0 0 1 1.000000 0.537834
11.82334 -4.83136 0.009741 -0 0 1 1.000000 0.432937
11.82334 -5.091057 0.009741 0 0 1 1.000000 0.432937
12.05336 -4.717905 0.009741 0 0 1 1.000000 0.590302
12.05336 -5.204513 0.009741 -0 0 1 1.000000 0.590302
11.74665 -4.717905 0.009741 0 0 1 1.000000 0.380469
11.74665 -5.204513 0.009741 -0 0 1 1.000000 0.380469
11.97666 -4.568422 0.009741 -0 0 1 1.000000 0.537834
11.9 -4.428761 0.009741 -0 0 1 1.000000 0.485385
11.9 -4.694984 0.009741 -0 0 1 1.000000 0.485385
11.9 -5.227433 0.009741 0 -0 1 1.000000 0.485385
11.9 -5.493657 0.009741 0 -0 1 1.000000 0.485385
11.97666 -5.353995 0.009741 0 -0 1 1.000000 0.537834
11.82334 -4.568422 0.009741 -0 0 1 1.000000 0.432937
11.82334 -5.353995 0.009741 0 0 1 1.000000 0.432937
12.15888 -4.83136 0.009741 -0 0 1 1.000000 0.662496
12.15888 -5.091057 0.009741 0 0 1 1.000000 0.662496
11.64112 -4.83136 0.009741 -0 0 1 1.000000 0.308274
11.64112 -5.091057 0.009741 0 0 1 1.000000 0.308274
12.16793 -5.084342 0.009741 0 0 1 1.000000 0.668691
12.16793 -4.838076 0.009741 -0 0 1 1.000000 0.668691
11.63207 -5.084342 0.009741 0 -0 1 1.000000 0.302079
11.63207 -4.838076 0.009741 -0 -0 1 1.000000 0.302079
12.29325 -4.961209 0.009741 -0 -0 1 1.000000 0.754422
11.50676 -4.961209 0.009741 -0 0 1 1.000000 0.216348
11.19053 -4.350573 0.001626 -0 0 1 0.000000 0.000000
11.3336 -4.079455 0.001626 -0 0 1 0.000000 0.097880
11.30633 -4.079455 0.001626 -0 0 1 0.000000 0.079224
11.31937 -4.138738 0.001626 -0 0 1 0.000000 0.088146
11.45414 -4.350573 0.001626 -0 0 1 0.000000 0.180347
11.27906 -4.236356 0.001626 0 0 1 0.000000 0.060567
11.36284 -4.236356 0.001626 0 0 1 0.000000 0.117889
11.26404 -4.271135 0.001626 0 0 1 0.000000 0.050292
11.37865 -4.271135 0.001626 0 0 1 0.000000 0.128704
11.23005 -4.350573 0.001626 0 0 1 0.000000 0.027039
11.41461 -4.350573 0.001626 0 0 1 0.000000 0.153309
12.6522 -5.657755 0.001626 0 -0 1 0.000000 1.000000
12.50913 -5.928873 0.001626 0 -0 1 0.000000 0.902120
12.5364 -5.928873 0.001626 0 -0 1 0.000000 0.920776
12.52336 -5.869591 0.001626 0 -0 1 0.000000 0.911854
12.38859 -5.657755 0.001626 0 0 1 0.000000 0.819653
12.56367 -5.771972 0.001626 0 0 1 0.000000 0.939433
12.47989 -5.771972 0.001626 -0 -0 1 0.000000 0.882111
12.57869 -5.737193 0.001626 0 0 1 0.000000 0.949708
12.46408 -5.737193 0.001626 0 -0 1 0.000000 0.871296
12.61268 -5.657755 0.001626 0 0 1 0.000000 0.972961
12.42811 -5.657755 0.001626 0 -0 1 0.000000 0.846691
3 0 1 2 
3 3 1 4 
3 2 1 5 
3 6 1 3 
3 2 7 0 
3 4 8 3 
3 5 9 2 
3 3 10 6 
3 11 0 7 
3 8 4 12 
3 9 5 13 
3 14 6 10 
3 2 15 7 
3 8 16 3 
3 9 15 2 
3 3 16 10 
3 0 11 17 
3 18 12 4 
3 19 13 5 
3 6 14 20 
3 17 21 0 
3 4 22 18 
3 5 23 19 
3 20 24 6 
3 1 0 21 
3 22 4 1 
3 23 5 1 
3 1 6 24 
3 21 17 25 
3 26 18 22 
3 27 19 23 
3 24 20 28 
3 29 30 31 
3 32 33 34 
3 31 30 35 
3 36 33 32 
3 31 21 29 
3 34 22 32 
3 35 23 31 
3 32 24 36 
3 25 29 21 
3 22 34 26 
3 23 35 27 
3 28 36 24 
3 21 31 1 
3 1 32 22 
3 1 31 23 
3 24 32 1 
3 37 25 17 
3 18 26 38 
3 19 27 39 
3 40 28 20 
3 17 41 37 
3 38 42 18 
3 39 43 19 
3 20 44 40 
3 45 37 41 
3 42 38 45 
3 43 39 46 
3 46 40 44 
3 41 17 11 
3 12 18 42 
3 13 19 43 
3 44 20 14 
3 47 48 49 
3 50 48 51 
3 49 48 52 
3 53 48 50 
3 49 54 47 
3 51 55 50 
3 52 56 49 
3 50 57 53 
3 58 47 54 
3 55 51 59 
3 56 52 60 
3 61 53 57 
3 49 62 54 
3 55 63 50 
3 56 62 49 
3 50 63 57 
3 47 58 64 
3 65 59 51 
3 66 60 52 
3 53 61 67 
3 64 68 47 
3 51 69 65 
3 52 70 66 
3 67 71 53 
3 48 47 68 
3 69 51 48 
3 70 52 48 
3 48 53 71 
3 68 64 72 
3 73 65 69 
3 74 66 70 
3 71 67 75 
3 76 77 78 
3 79 80 81 
3 78 77 82 
3 83 80 79 
3 78 68 76 
3 81 69 79 
3 82 70 78 
3 79 71 83 
3 72 76 68 
3 69 81 73 
3 70 82 74 
3 75 83 71 
3 68 78 48 
3 48 79 69 
3 48 78 70 
3 71 79 48 
3 84 72 64 
3 65 73 85 
3 66 74 86 
3 87 75 67 
3 64 88 84 
3 85 89 65 
3 86 90 66 
3 67 91 87 
3 92 84 88 
3 89 85 92 
3 90 86 93 
3 93 87 91 
3 88 64 58 
3 59 65 89 
3 60 66 90 
3 91 67 61 
3 94 95 96 
3 97 95 98 
3 96 95 99 
3 100 95 97 
3 96 101 94 
3 98 102 97 
3 99 103 96 
3 97 104 100 
3 105 94 101 
3 102 98 106 
3 103 99 107 
3 108 100 104 
3 96 109 101 
3 102 110 97 
3 103 109 96 
3 97 110 104 
3 94 105 111 
3 112 106 98 
3 113 107 99 
3 100 108 114 
3 111 115 94 
3 98 116 112 
3 99 117 113 
3 114 118 100 
3 95 94 115 
3 116 98 95 
3 117 99 95 
3 95 100 118 
3 115 111 119 
3 120 112 116 
3 121 113 117 
3 118 114 122 
3 123 124 125 
3 126 127 128 
3 125 124 129 
3 130 127 126 
3 125 115 123 
3 128 116 126 
3 129 117 125 
3 126 118 130 
3 119 123 115 
3 116 128 120 
3 117 129 121 
3 122 130 118 
3 115 125 95 
3 95 126 116 
3 95 125 117 
3 118 126 95 
3 131 119 111 
3 112 120 132 
3 113 121 133 
3 134 122 114 
3 111 135 131 
3 132 136 112 
3 133 137 113 
3 114 138 134 
3 139 131 135 
3 136 132 139 
3 137 133 140 
3 140 134 138 
3 135 111 105 
3 106 112 136 
3 107 113 137 
3 138 114 108 
3 141 142 143 
3 144 142 145 
3 143 142 146 
3 147 142 144 
3 143 148 141 
3 145 149 144 
3 146 150 143 
3 144 151 147 
3 152 141 148 
3 149 145 153 
3 150 146 154 
3 155 147 151 
3 143 156 148 
3 149 157 144 
3 150 156 143 
3 144 157 151 
3 141 152 158 
3 159 153 145 
3 160 154 146 
3 147 155 161 
3 158 162 141 
3 145 163 159 
3 146 164 160 
3 161 165 147 
3 142 141 162 
3 163 145 142 
3 164 146 142 
3 142 147 165 
3 162 158 166 
3 167 159 163 
3 168 160 164 
3 165 161 169 
3 170 171 172 
3 173 174 175 
3 172 171 176 
3 177 174 173 
3 172 162 170 
3 175 163 173 
3 176 164 172 
3 173 165 177 
3 166 170 162 
3 163 175 167 
3 164 176 168 
3 169 177 165 
3 162 172 142 
3 142 173 163 
3 142 172 164 
3 165 173 142 
3 178 166 158 
3 159 167 179 
3 160 168 180 
3 181 169 161 
3 158 182 178 
3 179 183 159 
3 180 184 160 
3 161 185 181 
3 186 178 182 
3 183 179 186 
3 184 180 187 
3 187 181 185 
3 182 158 152 
3 153 159 183 
3 154 160 184 
3 185 161 155 
3 188 189 190 
3 191 189 192 
3 190 189 193 
3 194 189 191 
3 190 195 188 
3 192 196 191 
3 193 197 190 
3 191 198 194 
3 199 188 195 
3 196 192 200 
3 197 193 201 
3 202 194 198 
3 190 203 195 
3 196 204 191 
3 197 203 190 
3 191 204 198 
3 188 199 205 
3 206 200 192 
3 207 201 193 
3 194 202 208 
3 205 209 188 
3 192 210 206 
3 193 211 207 
3 208 212 194 
3 189 188 209 
3 210 192 189 
3 211 193 189 
3 189 194 212 
3 209 205 213 
3 214 206 210 
3 215 207 211 
3 212 208 216 
3 217 218 219 
3 220 221 222 
3 219 218 223 
3 224 221 220 
3 219 209 217 
3 222 210 220 
3 223 211 219 
3 220 212 224 
3 213 217 209 
3 210 222 214 
3 211 223 215 
3 216 224 212 
3 209 219 189 
3 189 220 210 
3 189 219 211 
3 212 220 189 
3 225 213 205 
3 206 214 226 
3 207 215 227 
3 228 216 208 
3 205 229 225 
3 226 230 206 
3 227 231 207 
3 208 232 228 
3 233 225 229 
3 230 226 233 
3 231 227 234 
3 234 228 232 
3 229 205 199 
3 200 206 230 
3 201 207 231 
3 232 208 202 
3 235 236 237 
3 238 236 235 
3 239 236 238 
3 235 240 238 
3 241 239 238 
3 235 242 240 
3 242 241 240 
3 242 243 241 
3 243 239 241 
3 235 244 242 
3 245 239 243 
3 246 247 248 
3 249 247 246 
3 250 247 249 
3 246 251 249 
3 252 250 249 
3 246 253 251 
3 253 252 251 
3 253 254 252 
3 254 250 252 
3 246 255 253 
3 256 250 254 
