ply
format ascii 1.0
comment VCGLIB generated
comment TextureFile RedTex.bmp
element vertex 366
property float x
property float y
property float z
property float nx
property float ny
property float nz
property float texture_u
property float texture_v
element face 430
property list uchar int vertex_indices
end_header
-12.70899 -4.062838 0.00456 0 0 1 0.190469 0.066928
-12.69155 -4.063376 0.00456 0 0 1 0.190469 0.078968
-12.70353 -4.062662 0.00456 0 0 1 0.190469 0.070703
-12.71441 -4.063366 0.00456 0 0 1 0.190469 0.063191
-12.71978 -4.06425 0.00456 0 0 1 0.190469 0.059485
-12.68028 -4.065474 0.00456 0 0 1 0.190469 0.086750
-12.72511 -4.065492 0.00456 0 0 1 0.190469 0.055803
-12.66977 -4.068887 0.00456 0 0 1 0.190469 0.094005
-12.73042 -4.067095 0.00456 0 0 1 0.190469 0.052135
-12.73573 -4.069062 0.00456 0 0 1 0.190469 0.048475
-12.66009 -4.073551 0.00456 0 0 1 0.190469 0.100688
-12.74103 -4.071396 0.00456 0 0 1 0.190469 0.044815
-12.74634 -4.074099 0.00456 0 0 1 0.190469 0.041148
-12.6513 -4.079398 0.00456 0 0 1 0.190469 0.106753
-12.75168 -4.077175 0.00456 0 0 1 0.190469 0.037465
-12.75704 -4.080625 0.00456 0 0 1 0.190469 0.033758
-12.64348 -4.086362 0.00456 0 0 1 0.190469 0.112156
-12.76246 -4.084454 0.00456 0 0 1 0.190469 0.030022
-12.76793 -4.088662 0.00456 0 0 1 0.190469 0.026247
-12.63667 -4.094376 0.00456 0 0 1 0.190469 0.116851
-12.76793 -4.137862 0.00456 0 0 1 0.190469 0.026247
-12.76247 -4.131256 0.00456 0 0 1 0.190469 0.030016
-12.75708 -4.125414 0.00456 0 0 1 0.190469 0.033731
-12.75178 -4.1203 0.00456 0 0 1 0.190469 0.037396
-12.74653 -4.115877 0.00456 0 0 1 0.190469 0.041015
-12.74135 -4.11211 0.00456 0 0 1 0.190469 0.044591
-12.73623 -4.108962 0.00456 0 0 1 0.190469 0.048130
-12.73115 -4.106398 0.00456 0 0 1 0.190469 0.051634
-12.72612 -4.104381 0.00456 0 0 1 0.190469 0.055107
-12.72113 -4.102875 0.00456 0 0 1 0.190469 0.058554
-12.71617 -4.101844 0.00456 0 0 1 0.190469 0.061978
-12.71124 -4.101252 0.00456 0 0 1 0.190469 0.065381
-12.70633 -4.101062 0.00456 0 0 1 0.190469 0.068770
-12.63096 -4.103374 0.00456 0 0 1 0.190469 0.120793
-12.69978 -4.101497 0.00456 0 0 1 0.190469 0.073292
-12.69355 -4.102771 0.00456 0 0 1 0.190469 0.077587
-12.68771 -4.104844 0.00456 0 0 1 0.190469 0.081623
-12.62641 -4.113287 0.00456 0 0 1 0.190469 0.123938
-12.68228 -4.10767 0.00456 0 0 1 0.190469 0.085369
-12.67732 -4.111207 0.00456 0 0 1 0.190469 0.088791
-12.67288 -4.115412 0.00456 0 0 1 0.190469 0.091861
-12.62307 -4.124051 0.00456 0 0 1 0.190469 0.126240
-12.66899 -4.120243 0.00456 0 0 1 0.190469 0.094545
-12.6657 -4.125655 0.00456 0 0 1 0.190469 0.096812
-12.62102 -4.135598 0.00456 0 0 1 0.190469 0.127655
-12.66307 -4.131606 0.00456 0 0 1 0.190469 0.098630
-12.66113 -4.138053 0.00456 0 0 1 0.190469 0.099968
-12.62033 -4.147862 0.00456 0 0 1 0.190469 0.128136
-12.65993 -4.144953 0.00456 0 0 1 0.190469 0.100794
-12.65953 -4.152262 0.00456 0 0 1 0.190469 0.101076
-12.62083 -4.158837 0.00456 0 0 1 0.190469 0.127786
-12.65966 -4.157781 0.00456 0 0 1 0.190469 0.100984
-12.66006 -4.162977 0.00456 0 0 1 0.190469 0.100708
-12.62239 -4.169659 0.00456 0 0 1 0.190469 0.126715
-12.66073 -4.167912 0.00456 0 0 1 0.190469 0.100248
-12.66166 -4.172647 0.00456 0 0 1 0.190469 0.099604
-12.62503 -4.180475 0.00456 0 0 1 0.190469 0.124892
-12.66286 -4.177244 0.00456 0 0 1 0.190469 0.098776
-12.66433 -4.181762 0.00456 0 0 1 0.190469 0.097763
-12.6288 -4.191432 0.00456 0 0 1 0.190469 0.122287
-12.66606 -4.186264 0.00456 0 0 1 0.190469 0.096567
-12.66806 -4.19081 0.00456 0 0 1 0.190469 0.095186
-12.67033 -4.195462 0.00456 0 0 1 0.190469 0.093621
-12.63375 -4.202679 0.00456 0 0 1 0.190469 0.118868
-12.67286 -4.200281 0.00456 0 0 1 0.190469 0.091872
-12.67566 -4.205327 0.00456 0 0 1 0.190469 0.089940
-12.63993 -4.214362 0.00456 0 0 1 0.190469 0.114606
-12.67873 -4.210662 0.00456 0 0 1 0.190469 0.087822
-12.68489 -4.220757 0.00456 0 0 1 0.190469 0.083566
-12.64737 -4.226628 0.00456 0 0 1 0.190469 0.109470
-12.69172 -4.231188 0.00456 0 0 1 0.190469 0.078853
-12.65612 -4.239625 0.00456 0 0 1 0.190469 0.103429
-12.69911 -4.241875 0.00456 0 0 1 0.190469 0.073753
-12.66623 -4.2535 0.00456 0 0 1 0.190469 0.096451
-12.70695 -4.252736 0.00456 0 0 1 0.190469 0.068340
-12.71514 -4.263692 0.00456 0 0 1 0.190469 0.062686
-12.67773 -4.268399 0.00456 0 0 1 0.190469 0.088508
-12.72358 -4.274662 0.00456 0 0 1 0.190469 0.056862
-12.69069 -4.284471 0.00456 0 0 1 0.190469 0.079567
-12.73215 -4.285565 0.00456 0 0 1 0.190469 0.050940
-12.70513 -4.301862 0.00456 0 0 1 0.190469 0.069599
-12.74077 -4.296321 0.00456 0 0 1 0.190469 0.044993
-12.74932 -4.306849 0.00456 0 0 1 0.190469 0.039091
-12.60073 -4.301862 0.00456 -0 0 1 0.190469 0.141666
-12.60073 -4.339062 0.00456 -0 0 1 0.190469 0.141666
-12.7577 -4.31707 0.00456 0 0 1 0.190469 0.033307
-12.7658 -4.3269 0.00456 0 0 1 0.190469 0.027714
-12.77353 -4.336262 0.00456 0 0 1 0.190469 0.022381
-12.77353 -4.339062 0.00456 0 0 1 0.190469 0.022381
-12.08041 -5.654999 0.005001 -0 0 1 0.259375 0.500844
-12.10356 -5.611782 0.005001 -0 0 1 0.259375 0.484862
-12.10356 -5.698216 0.005001 -0 0 1 0.259375 0.484862
-12.10356 -5.525347 0.005001 0 -0 1 0.259375 0.484862
-12.08041 -5.568564 0.005001 0 -0 1 0.259375 0.500844
-12.12672 -5.654999 0.005001 -0 0 1 0.259375 0.468879
-12.12672 -5.568564 0.005001 0 0 1 0.259375 0.468879
-12.08274 -5.741434 0.005001 0 0 1 0.259375 0.499234
-12.08274 -5.482129 0.005001 -0 0 1 0.259375 0.499234
-12.12438 -5.741434 0.005001 0 0 1 0.259375 0.470490
-12.12438 -5.482129 0.005001 -0 0 1 0.259375 0.470490
-12.05374 -5.698216 0.005001 -0 0 1 0.259375 0.519256
-12.05374 -5.525347 0.005001 0 0 1 0.259375 0.519256
-12.15339 -5.698216 0.005001 -0 0 1 0.259375 0.450468
-12.15339 -5.525347 0.005001 0 0 1 0.259375 0.450468
-12.10356 -5.784651 0.005001 0 -0 1 0.259375 0.484862
-12.10356 -5.438911 0.005001 -0 0 1 0.259375 0.484862
-12.05552 -5.612841 0.005001 0 0 1 0.259375 0.518026
-12.05552 -5.610722 0.005001 -0 0 1 0.259375 0.518026
-12.15161 -5.612841 0.005001 0 -0 1 0.259375 0.451698
-12.15161 -5.610722 0.005001 -0 -0 1 0.259375 0.451698
-12.07867 -5.569623 0.005001 -0 0 1 0.259375 0.502044
-12.07867 -5.653939 0.005001 0 0 1 0.259375 0.502044
-12.12845 -5.569623 0.005001 -0 0 1 0.259375 0.467680
-12.12845 -5.653939 0.005001 0 0 1 0.259375 0.467680
-12.05377 -5.532788 0.005001 0 0 1 0.259375 0.519232
-12.05377 -5.690775 0.005001 -0 0 1 0.259375 0.519232
-12.15335 -5.532788 0.005001 0 0 1 0.259375 0.450492
-12.15335 -5.690775 0.005001 -0 0 1 0.259375 0.450492
-12.07867 -5.484255 0.005001 -0 0 1 0.259375 0.502044
-12.10356 -5.438911 0.005001 -0 0 1 0.259375 0.484862
-12.10356 -5.525347 0.005001 -0 0 1 0.259375 0.484862
-12.10356 -5.698216 0.005001 0 -0 1 0.259375 0.484862
-12.10356 -5.784651 0.005001 0 -0 1 0.259375 0.484862
-12.07867 -5.739307 0.005001 0 -0 1 0.259375 0.502044
-12.12845 -5.484255 0.005001 -0 0 1 0.259375 0.467680
-12.12845 -5.739307 0.005001 0 0 1 0.259375 0.467680
-12.01951 -5.569623 0.005001 -0 0 1 0.259375 0.542882
-12.01951 -5.653939 0.005001 0 0 1 0.259375 0.542882
-12.18761 -5.569623 0.005001 -0 0 1 0.259375 0.426842
-12.18761 -5.653939 0.005001 0 0 1 0.259375 0.426842
-12.01657 -5.651759 0.005001 0 0 1 0.259375 0.544912
-12.01657 -5.571804 0.005001 -0 0 1 0.259375 0.544912
-12.19055 -5.651759 0.005001 0 -0 1 0.259375 0.424812
-12.19055 -5.571804 0.005001 -0 -0 1 0.259375 0.424812
-11.97589 -5.611782 0.005001 -0 -0 1 0.259375 0.572997
-12.23124 -5.611782 0.005001 -0 0 1 0.259375 0.396727
-12.08041 -4.431069 0.005001 -0 0 1 0.259375 0.500844
-12.10356 -4.387852 0.005001 -0 0 1 0.259375 0.484862
-12.10356 -4.474287 0.005001 -0 0 1 0.259375 0.484862
-12.10356 -4.301417 0.005001 0 -0 1 0.259375 0.484862
-12.08041 -4.344635 0.005001 0 -0 1 0.259375 0.500844
-12.12672 -4.431069 0.005001 -0 0 1 0.259375 0.468879
-12.12672 -4.344635 0.005001 0 0 1 0.259375 0.468879
-12.08274 -4.517505 0.005001 0 0 1 0.259375 0.499234
-12.08274 -4.2582 0.005001 -0 0 1 0.259375 0.499234
-12.12438 -4.517505 0.005001 0 0 1 0.259375 0.470490
-12.12438 -4.2582 0.005001 -0 0 1 0.259375 0.470490
-12.05374 -4.474287 0.005001 -0 0 1 0.259375 0.519256
-12.05374 -4.301417 0.005001 0 0 1 0.259375 0.519256
-12.15339 -4.474287 0.005001 -0 0 1 0.259375 0.450468
-12.15339 -4.301417 0.005001 0 0 1 0.259375 0.450468
-12.10356 -4.560722 0.005001 0 -0 1 0.259375 0.484862
-12.10356 -4.214982 0.005001 -0 0 1 0.259375 0.484862
-12.05552 -4.388912 0.005001 0 0 1 0.259375 0.518026
-12.05552 -4.386793 0.005001 -0 0 1 0.259375 0.518026
-12.15161 -4.388912 0.005001 0 -0 1 0.259375 0.451698
-12.15161 -4.386793 0.005001 -0 -0 1 0.259375 0.451698
-12.07867 -4.345694 0.005001 -0 0 1 0.259375 0.502044
-12.07867 -4.43001 0.005001 0 0 1 0.259375 0.502044
-12.12845 -4.345694 0.005001 -0 0 1 0.259375 0.467680
-12.12845 -4.43001 0.005001 0 0 1 0.259375 0.467680
-12.05377 -4.308859 0.005001 0 0 1 0.259375 0.519232
-12.05377 -4.466846 0.005001 -0 0 1 0.259375 0.519232
-12.15335 -4.308859 0.005001 0 0 1 0.259375 0.450492
-12.15335 -4.466846 0.005001 -0 0 1 0.259375 0.450492
-12.07867 -4.260326 0.005001 -0 0 1 0.259375 0.502044
-12.10356 -4.214982 0.005001 -0 0 1 0.259375 0.484862
-12.10356 -4.301417 0.005001 -0 0 1 0.259375 0.484862
-12.10356 -4.474287 0.005001 0 -0 1 0.259375 0.484862
-12.10356 -4.560722 0.005001 0 -0 1 0.259375 0.484862
-12.07867 -4.515378 0.005001 0 -0 1 0.259375 0.502044
-12.12845 -4.260326 0.005001 -0 0 1 0.259375 0.467680
-12.12845 -4.515378 0.005001 0 0 1 0.259375 0.467680
-12.01951 -4.345694 0.005001 -0 0 1 0.259375 0.542882
-12.01951 -4.43001 0.005001 0 0 1 0.259375 0.542882
-12.18761 -4.345694 0.005001 -0 0 1 0.259375 0.426842
-12.18761 -4.43001 0.005001 0 0 1 0.259375 0.426842
-12.01657 -4.42783 0.005001 0 0 1 0.259375 0.544912
-12.01657 -4.347875 0.005001 -0 0 1 0.259375 0.544912
-12.19055 -4.42783 0.005001 0 -0 1 0.259375 0.424812
-12.19055 -4.347875 0.005001 -0 -0 1 0.259375 0.424812
-11.97589 -4.387852 0.005001 -0 -0 1 0.259375 0.572997
-12.23124 -4.387852 0.005001 -0 0 1 0.259375 0.396727
-12.65512 -4.611957 0.009741 -0 0 1 1.000000 0.104117
-12.67827 -4.568739 0.009741 -0 0 1 1.000000 0.088135
-12.67827 -4.655174 0.009741 -0 0 1 1.000000 0.088135
-12.67827 -4.482305 0.009741 0 -0 1 1.000000 0.088135
-12.65512 -4.525522 0.009741 0 -0 1 1.000000 0.104117
-12.70143 -4.611957 0.009741 -0 0 1 1.000000 0.072153
-12.70143 -4.525522 0.009741 0 0 1 1.000000 0.072153
-12.65745 -4.698392 0.009741 0 0 1 1.000000 0.102507
-12.65745 -4.439087 0.009741 -0 0 1 1.000000 0.102507
-12.69909 -4.698392 0.009741 0 0 1 1.000000 0.073764
-12.69909 -4.439087 0.009741 -0 0 1 1.000000 0.073764
-12.62845 -4.655174 0.009741 -0 0 1 1.000000 0.122530
-12.62845 -4.482305 0.009741 0 0 1 1.000000 0.122530
-12.7281 -4.655174 0.009741 -0 0 1 1.000000 0.053741
-12.7281 -4.482305 0.009741 0 0 1 1.000000 0.053741
-12.67827 -4.74161 0.009741 0 -0 1 1.000000 0.088135
-12.67827 -4.39587 0.009741 -0 0 1 1.000000 0.088135
-12.63023 -4.569799 0.009741 0 0 1 1.000000 0.121300
-12.63023 -4.56768 0.009741 -0 0 1 1.000000 0.121300
-12.72631 -4.569799 0.009741 0 -0 1 1.000000 0.054972
-12.72631 -4.56768 0.009741 -0 -0 1 1.000000 0.054972
-12.65338 -4.526582 0.009741 -0 0 1 1.000000 0.105317
-12.65338 -4.610898 0.009741 0 0 1 1.000000 0.105317
-12.70316 -4.526582 0.009741 -0 0 1 1.000000 0.070953
-12.70316 -4.610898 0.009741 0 0 1 1.000000 0.070953
-12.62848 -4.489746 0.009741 0 0 1 1.000000 0.122505
-12.62848 -4.647733 0.009741 -0 0 1 1.000000 0.122505
-12.72806 -4.489746 0.009741 0 0 1 1.000000 0.053766
-12.72806 -4.647733 0.009741 -0 0 1 1.000000 0.053766
-12.65338 -4.441214 0.009741 -0 0 1 1.000000 0.105317
-12.67827 -4.39587 0.009741 -0 0 1 1.000000 0.088135
-12.67827 -4.482305 0.009741 -0 0 1 1.000000 0.088135
-12.67827 -4.655175 0.009741 0 -0 1 1.000000 0.088135
-12.67827 -4.74161 0.009741 0 -0 1 1.000000 0.088135
-12.65338 -4.696266 0.009741 0 -0 1 1.000000 0.105317
-12.70316 -4.441214 0.009741 -0 0 1 1.000000 0.070953
-12.70316 -4.696266 0.009741 0 0 1 1.000000 0.070953
-12.59422 -4.526582 0.009741 -0 0 1 1.000000 0.146156
-12.59422 -4.610898 0.009741 0 0 1 1.000000 0.146156
-12.76232 -4.526582 0.009741 -0 0 1 1.000000 0.030115
-12.76232 -4.610898 0.009741 0 0 1 1.000000 0.030115
-12.59128 -4.608717 0.009741 0 0 1 1.000000 0.148185
-12.59128 -4.528762 0.009741 -0 0 1 1.000000 0.148185
-12.76526 -4.608717 0.009741 0 -0 1 1.000000 0.028086
-12.76526 -4.528762 0.009741 -0 -0 1 1.000000 0.028086
-12.5506 -4.568739 0.009741 -0 -0 1 1.000000 0.176270
-12.80595 -4.568739 0.009741 -0 0 1 1.000000 0.000000
-11.46184 -5.472818 0.009741 -0 0 1 1.000000 0.927847
-11.48499 -5.429601 0.009741 -0 0 1 1.000000 0.911865
-11.48499 -5.516036 0.009741 -0 0 1 1.000000 0.911865
-11.48499 -5.343166 0.009741 0 -0 1 1.000000 0.911865
-11.46184 -5.386384 0.009741 0 -0 1 1.000000 0.927847
-11.50815 -5.472818 0.009741 -0 0 1 1.000000 0.895883
-11.50815 -5.386384 0.009741 0 0 1 1.000000 0.895883
-11.46418 -5.559253 0.009741 0 0 1 1.000000 0.926236
-11.46418 -5.299949 0.009741 -0 0 1 1.000000 0.926236
-11.50581 -5.559253 0.009741 0 0 1 1.000000 0.897494
-11.50581 -5.299949 0.009741 -0 0 1 1.000000 0.897494
-11.43517 -5.516036 0.009741 -0 0 1 1.000000 0.946259
-11.43517 -5.343166 0.009741 0 0 1 1.000000 0.946259
-11.53482 -5.516036 0.009741 -0 0 1 1.000000 0.877471
-11.53482 -5.343166 0.009741 0 0 1 1.000000 0.877471
-11.48499 -5.602471 0.009741 0 -0 1 1.000000 0.911865
-11.48499 -5.256731 0.009741 -0 0 1 1.000000 0.911865
-11.43695 -5.430661 0.009741 0 0 1 1.000000 0.945029
-11.43695 -5.428541 0.009741 -0 0 1 1.000000 0.945029
-11.53304 -5.430661 0.009741 0 -0 1 1.000000 0.878701
-11.53304 -5.428541 0.009741 -0 -0 1 1.000000 0.878701
-11.4601 -5.387443 0.009741 -0 0 1 1.000000 0.929047
-11.4601 -5.471759 0.009741 0 0 1 1.000000 0.929047
-11.50988 -5.387443 0.009741 -0 0 1 1.000000 0.894683
-11.50988 -5.471759 0.009741 0 0 1 1.000000 0.894683
-11.43521 -5.350607 0.009741 0 0 1 1.000000 0.946234
-11.43521 -5.508595 0.009741 -0 0 1 1.000000 0.946234
-11.53478 -5.350607 0.009741 0 0 1 1.000000 0.877495
-11.53478 -5.508595 0.009741 -0 0 1 1.000000 0.877495
-11.4601 -5.302075 0.009741 -0 0 1 1.000000 0.929047
-11.48499 -5.256731 0.009741 -0 0 1 1.000000 0.911865
-11.48499 -5.343166 0.009741 -0 0 1 1.000000 0.911865
-11.48499 -5.516036 0.009741 0 -0 1 1.000000 0.911865
-11.48499 -5.602471 0.009741 0 -0 1 1.000000 0.911865
-11.4601 -5.557127 0.009741 0 -0 1 1.000000 0.929047
-11.50988 -5.302075 0.009741 -0 0 1 1.000000 0.894683
-11.50988 -5.557127 0.009741 0 0 1 1.000000 0.894683
-11.40094 -5.387443 0.009741 -0 0 1 1.000000 0.969885
-11.40094 -5.471759 0.009741 0 0 1 1.000000 0.969885
-11.56904 -5.387443 0.009741 -0 0 1 1.000000 0.853844
-11.56904 -5.471759 0.009741 0 0 1 1.000000 0.853844
-11.398 -5.469578 0.009741 0 0 1 1.000000 0.971914
-11.398 -5.389624 0.009741 -0 0 1 1.000000 0.971914
-11.57198 -5.469578 0.009741 0 -0 1 1.000000 0.851815
-11.57198 -5.389624 0.009741 -0 -0 1 1.000000 0.851815
-11.35732 -5.429601 0.009741 -0 -0 1 1.000000 1.000000
-11.61267 -5.429601 0.009741 -0 0 1 1.000000 0.823730
-11.46524 -5.924176 0.003341 -0 -0 1 0.000000 0.925502
-11.48268 -5.923637 0.003341 -0 -0 1 0.000000 0.913462
-11.47071 -5.924351 0.003341 -0 -0 1 0.000000 0.921727
-11.45983 -5.923647 0.003341 -0 -0 1 0.000000 0.929238
-11.45446 -5.922764 0.003341 0 -0 1 0.000000 0.932945
-11.49395 -5.92154 0.003341 -0 -0 1 0.000000 0.905680
-11.44912 -5.921522 0.003341 0 -0 1 0.000000 0.936627
-11.50446 -5.918126 0.003341 -0 -0 1 0.000000 0.898425
-11.44381 -5.919918 0.003341 -0 -0 1 0.000000 0.940294
-11.43851 -5.917951 0.003341 0 -0 1 0.000000 0.943955
-11.51414 -5.913462 0.003341 -0 -0 1 0.000000 0.891742
-11.43321 -5.915617 0.003341 -0 -0 1 0.000000 0.947615
-11.42789 -5.912914 0.003341 0 -0 1 0.000000 0.951282
-11.52293 -5.907615 0.003341 -0 -0 1 0.000000 0.885677
-11.42256 -5.909839 0.003341 -0 -0 1 0.000000 0.954965
-11.41719 -5.906388 0.003341 0 -0 1 0.000000 0.958671
-11.53076 -5.900651 0.003341 -0 -0 1 0.000000 0.880274
-11.41178 -5.90256 0.003341 -0 -0 1 0.000000 0.962407
-11.40631 -5.898351 0.003341 0 -0 1 0.000000 0.966183
-11.53756 -5.892637 0.003341 -0 -0 1 0.000000 0.875578
-11.40631 -5.849151 0.003341 0 -0 1 0.000000 0.966183
-11.41177 -5.855757 0.003341 0 -0 1 0.000000 0.962414
-11.41715 -5.861599 0.003341 0 -0 1 0.000000 0.958699
-11.42246 -5.866714 0.003341 0 -0 1 0.000000 0.955034
-11.4277 -5.871136 0.003341 0 -0 1 0.000000 0.951415
-11.43288 -5.874904 0.003341 0 -0 1 0.000000 0.947839
-11.43801 -5.878051 0.003341 0 -0 1 0.000000 0.944300
-11.44308 -5.880615 0.003341 0 -0 1 0.000000 0.940796
-11.44812 -5.882633 0.003341 0 -0 1 0.000000 0.937322
-11.45311 -5.884139 0.003341 0 -0 1 0.000000 0.933876
-11.45807 -5.88517 0.003341 0 -0 1 0.000000 0.930453
-11.463 -5.885762 0.003341 0 -0 1 0.000000 0.927049
-11.46791 -5.885951 0.003341 0 -0 1 0.000000 0.923660
-11.54327 -5.88364 0.003341 -0 -0 1 0.000000 0.871636
-11.47446 -5.885517 0.003341 -0 -0 1 0.000000 0.919137
-11.48068 -5.884242 0.003341 -0 -0 1 0.000000 0.914843
-11.48653 -5.88217 0.003341 0 -0 1 0.000000 0.910808
-11.54783 -5.873726 0.003341 -0 -0 1 0.000000 0.868491
-11.49195 -5.879344 0.003341 -0 -0 1 0.000000 0.907062
-11.49691 -5.875806 0.003341 -0 -0 1 0.000000 0.903638
-11.50136 -5.871601 0.003341 0 -0 1 0.000000 0.900569
-11.55116 -5.862962 0.003341 -0 -0 1 0.000000 0.866189
-11.50525 -5.866771 0.003341 -0 -0 1 0.000000 0.897885
-11.50853 -5.861359 0.003341 0 -0 1 0.000000 0.895618
-11.55321 -5.851415 0.003341 -0 -0 1 0.000000 0.864775
-11.51116 -5.855407 0.003341 -0 -0 1 0.000000 0.893800
-11.5131 -5.84896 0.003341 0 -0 1 0.000000 0.892461
-11.55391 -5.839151 0.003341 -0 -0 1 0.000000 0.864293
-11.5143 -5.842061 0.003341 -0 -0 1 0.000000 0.891636
-11.51471 -5.834751 0.003341 0 -0 1 0.000000 0.891353
-11.5534 -5.828176 0.003341 -0 0 1 0.000000 0.864644
-11.51457 -5.829233 0.003341 -0 -0 1 0.000000 0.891446
-11.51417 -5.824037 0.003341 0 -0 1 0.000000 0.891721
-11.55185 -5.817355 0.003341 -0 0 1 0.000000 0.865715
-11.51351 -5.819101 0.003341 -0 -0 1 0.000000 0.892182
-11.51257 -5.814366 0.003341 0 -0 1 0.000000 0.892826
-11.54921 -5.806539 0.003341 -0 0 1 0.000000 0.867538
-11.51137 -5.80977 0.003341 -0 -0 1 0.000000 0.893654
-11.50991 -5.805251 0.003341 0 -0 1 0.000000 0.894667
-11.54543 -5.795581 0.003341 -0 0 1 0.000000 0.870143
-11.50817 -5.800749 0.003341 -0 -0 1 0.000000 0.895864
-11.50617 -5.796203 0.003341 -0 -0 1 0.000000 0.897244
-11.50391 -5.791551 0.003341 0 -0 1 0.000000 0.898808
-11.54048 -5.784334 0.003341 -0 0 1 0.000000 0.873561
-11.50137 -5.786733 0.003341 -0 -0 1 0.000000 0.900557
-11.49857 -5.781686 0.003341 0 -0 1 0.000000 0.902490
-11.53431 -5.772651 0.003341 -0 0 1 0.000000 0.877824
-11.49551 -5.776351 0.003341 -0 -0 1 0.000000 0.904608
-11.48934 -5.766256 0.003341 0 -0 1 0.000000 0.908864
-11.52687 -5.760385 0.003341 -0 0 1 0.000000 0.882960
-11.48251 -5.755825 0.003341 0 -0 1 0.000000 0.913577
-11.51812 -5.747388 0.003341 -0 0 1 0.000000 0.889001
-11.47513 -5.745139 0.003341 0 -0 1 0.000000 0.918677
-11.50801 -5.733514 0.003341 -0 0 1 0.000000 0.895978
-11.46729 -5.734277 0.003341 -0 -0 1 0.000000 0.924089
-11.45909 -5.723321 0.003341 0 -0 1 0.000000 0.929744
-11.4965 -5.718614 0.003341 -0 0 1 0.000000 0.903922
-11.45066 -5.712351 0.003341 0 -0 1 0.000000 0.935567
-11.48355 -5.702542 0.003341 -0 0 1 0.000000 0.912863
-11.44208 -5.701448 0.003341 0 -0 1 0.000000 0.941489
-11.46911 -5.685151 0.003341 -0 0 1 0.000000 0.922831
-11.43346 -5.690692 0.003341 -0 -0 1 0.000000 0.947437
-11.42491 -5.680163 0.003341 0 -0 1 0.000000 0.953338
-11.57351 -5.685151 0.003341 0 -0 1 0.000000 0.850763
-11.57351 -5.647951 0.003341 0 -0 1 0.000000 0.850763
-11.41654 -5.669944 0.003341 -0 -0 1 0.000000 0.959122
-11.40843 -5.660113 0.003341 -0 -0 1 0.000000 0.964716
-11.40071 -5.650751 0.003341 -0 -0 1 0.000000 0.970049
-11.40071 -5.647951 0.003341 0 -0 1 0.000000 0.970049
3 0 1 2 
3 3 1 0 
3 4 1 3 
3 4 5 1 
3 6 5 4 
3 6 7 5 
3 8 7 6 
3 9 7 8 
3 9 10 7 
3 11 10 9 
3 12 10 11 
3 12 13 10 
3 14 13 12 
3 15 13 14 
3 15 16 13 
3 17 16 15 
3 18 16 17 
3 18 19 16 
3 20 21 18 
3 21 22 18 
3 22 23 18 
3 23 24 18 
3 24 25 18 
3 25 26 18 
3 26 27 18 
3 27 28 18 
3 28 29 18 
3 29 30 18 
3 30 31 18 
3 31 32 18 
3 32 19 18 
3 32 33 19 
3 34 33 32 
3 35 33 34 
3 36 33 35 
3 36 37 33 
3 38 37 36 
3 39 37 38 
3 40 37 39 
3 40 41 37 
3 42 41 40 
3 43 41 42 
3 43 44 41 
3 45 44 43 
3 46 44 45 
3 46 47 44 
3 48 47 46 
3 49 47 48 
3 49 50 47 
3 51 50 49 
3 52 50 51 
3 52 53 50 
3 54 53 52 
3 55 53 54 
3 55 56 53 
3 57 56 55 
3 58 56 57 
3 58 59 56 
3 60 59 58 
3 61 59 60 
3 62 59 61 
3 62 63 59 
3 64 63 62 
3 65 63 64 
3 65 66 63 
3 67 66 65 
3 68 66 67 
3 68 69 66 
3 70 69 68 
3 70 71 69 
3 72 71 70 
3 72 73 71 
3 74 73 72 
3 75 73 74 
3 75 76 73 
3 77 76 75 
3 77 78 76 
3 79 78 77 
3 79 80 78 
3 81 80 79 
3 82 80 81 
3 82 83 80 
3 84 83 82 
3 85 84 82 
3 86 84 85 
3 87 84 86 
3 88 84 87 
3 89 90 91 
3 92 90 93 
3 91 90 94 
3 95 90 92 
3 91 96 89 
3 93 97 92 
3 94 98 91 
3 92 99 95 
3 100 89 96 
3 97 93 101 
3 98 94 102 
3 103 95 99 
3 91 104 96 
3 97 105 92 
3 98 104 91 
3 92 105 99 
3 89 100 106 
3 107 101 93 
3 108 102 94 
3 95 103 109 
3 106 110 89 
3 93 111 107 
3 94 112 108 
3 109 113 95 
3 90 89 110 
3 111 93 90 
3 112 94 90 
3 90 95 113 
3 110 106 114 
3 115 107 111 
3 116 108 112 
3 113 109 117 
3 118 119 120 
3 121 122 123 
3 120 119 124 
3 125 122 121 
3 120 110 118 
3 123 111 121 
3 124 112 120 
3 121 113 125 
3 114 118 110 
3 111 123 115 
3 112 124 116 
3 117 125 113 
3 110 120 90 
3 90 121 111 
3 90 120 112 
3 113 121 90 
3 126 114 106 
3 107 115 127 
3 108 116 128 
3 129 117 109 
3 106 130 126 
3 127 131 107 
3 128 132 108 
3 109 133 129 
3 134 126 130 
3 131 127 134 
3 132 128 135 
3 135 129 133 
3 130 106 100 
3 101 107 131 
3 102 108 132 
3 133 109 103 
3 136 137 138 
3 139 137 140 
3 138 137 141 
3 142 137 139 
3 138 143 136 
3 140 144 139 
3 141 145 138 
3 139 146 142 
3 147 136 143 
3 144 140 148 
3 145 141 149 
3 150 142 146 
3 138 151 143 
3 144 152 139 
3 145 151 138 
3 139 152 146 
3 136 147 153 
3 154 148 140 
3 155 149 141 
3 142 150 156 
3 153 157 136 
3 140 158 154 
3 141 159 155 
3 156 160 142 
3 137 136 157 
3 158 140 137 
3 159 141 137 
3 137 142 160 
3 157 153 161 
3 162 154 158 
3 163 155 159 
3 160 156 164 
3 165 166 167 
3 168 169 170 
3 167 166 171 
3 172 169 168 
3 167 157 165 
3 170 158 168 
3 171 159 167 
3 168 160 172 
3 161 165 157 
3 158 170 162 
3 159 171 163 
3 164 172 160 
3 157 167 137 
3 137 168 158 
3 137 167 159 
3 160 168 137 
3 173 161 153 
3 154 162 174 
3 155 163 175 
3 176 164 156 
3 153 177 173 
3 174 178 154 
3 175 179 155 
3 156 180 176 
3 181 173 177 
3 178 174 181 
3 179 175 182 
3 182 176 180 
3 177 153 147 
3 148 154 178 
3 149 155 179 
3 180 156 150 
3 183 184 185 
3 186 184 187 
3 185 184 188 
3 189 184 186 
3 185 190 183 
3 187 191 186 
3 188 192 185 
3 186 193 189 
3 194 183 190 
3 191 187 195 
3 192 188 196 
3 197 189 193 
3 185 198 190 
3 191 199 186 
3 192 198 185 
3 186 199 193 
3 183 194 200 
3 201 195 187 
3 202 196 188 
3 189 197 203 
3 200 204 183 
3 187 205 201 
3 188 206 202 
3 203 207 189 
3 184 183 204 
3 205 187 184 
3 206 188 184 
3 184 189 207 
3 204 200 208 
3 209 201 205 
3 210 202 206 
3 207 203 211 
3 212 213 214 
3 215 216 217 
3 214 213 218 
3 219 216 215 
3 214 204 212 
3 217 205 215 
3 218 206 214 
3 215 207 219 
3 208 212 204 
3 205 217 209 
3 206 218 210 
3 211 219 207 
3 204 214 184 
3 184 215 205 
3 184 214 206 
3 207 215 184 
3 220 208 200 
3 201 209 221 
3 202 210 222 
3 223 211 203 
3 200 224 220 
3 221 225 201 
3 222 226 202 
3 203 227 223 
3 228 220 224 
3 225 221 228 
3 226 222 229 
3 229 223 227 
3 224 200 194 
3 195 201 225 
3 196 202 226 
3 227 203 197 
3 230 231 232 
3 233 231 234 
3 232 231 235 
3 236 231 233 
3 232 237 230 
3 234 238 233 
3 235 239 232 
3 233 240 236 
3 241 230 237 
3 238 234 242 
3 239 235 243 
3 244 236 240 
3 232 245 237 
3 238 246 233 
3 239 245 232 
3 233 246 240 
3 230 241 247 
3 248 242 234 
3 249 243 235 
3 236 244 250 
3 247 251 230 
3 234 252 248 
3 235 253 249 
3 250 254 236 
3 231 230 251 
3 252 234 231 
3 253 235 231 
3 231 236 254 
3 251 247 255 
3 256 248 252 
3 257 249 253 
3 254 250 258 
3 259 260 261 
3 262 263 264 
3 261 260 265 
3 266 263 262 
3 261 251 259 
3 264 252 262 
3 265 253 261 
3 262 254 266 
3 255 259 251 
3 252 264 256 
3 253 265 257 
3 258 266 254 
3 251 261 231 
3 231 262 252 
3 231 261 253 
3 254 262 231 
3 267 255 247 
3 248 256 268 
3 249 257 269 
3 270 258 250 
3 247 271 267 
3 268 272 248 
3 269 273 249 
3 250 274 270 
3 275 267 271 
3 272 268 275 
3 273 269 276 
3 276 270 274 
3 271 247 241 
3 242 248 272 
3 243 249 273 
3 274 250 244 
3 277 278 279 
3 280 278 277 
3 281 278 280 
3 281 282 278 
3 283 282 281 
3 283 284 282 
3 285 284 283 
3 286 284 285 
3 286 287 284 
3 288 287 286 
3 289 287 288 
3 289 290 287 
3 291 290 289 
3 292 290 291 
3 292 293 290 
3 294 293 292 
3 295 293 294 
3 295 296 293 
3 297 298 295 
3 298 299 295 
3 299 300 295 
3 300 301 295 
3 301 302 295 
3 302 303 295 
3 303 304 295 
3 304 305 295 
3 305 306 295 
3 306 307 295 
3 307 308 295 
3 308 309 295 
3 309 296 295 
3 309 310 296 
3 311 310 309 
3 312 310 311 
3 313 310 312 
3 313 314 310 
3 315 314 313 
3 316 314 315 
3 317 314 316 
3 317 318 314 
3 319 318 317 
3 320 318 319 
3 320 321 318 
3 322 321 320 
3 323 321 322 
3 323 324 321 
3 325 324 323 
3 326 324 325 
3 326 327 324 
3 328 327 326 
3 329 327 328 
3 329 330 327 
3 331 330 329 
3 332 330 331 
3 332 333 330 
3 334 333 332 
3 335 333 334 
3 335 336 333 
3 337 336 335 
3 338 336 337 
3 339 336 338 
3 339 340 336 
3 341 340 339 
3 342 340 341 
3 342 343 340 
3 344 343 342 
3 345 343 344 
3 345 346 343 
3 347 346 345 
3 347 348 346 
3 349 348 347 
3 349 350 348 
3 351 350 349 
3 352 350 351 
3 352 353 350 
3 354 353 352 
3 354 355 353 
3 356 355 354 
3 356 357 355 
3 358 357 356 
3 359 357 358 
3 359 360 357 
3 361 360 359 
3 362 361 359 
3 363 361 362 
3 364 361 363 
3 365 361 364 
