ply
format ascii 1.0
comment VCGLIB generated
comment TextureFile RedTex.bmp
element vertex 529
property float x
property float y
property float z
property float nx
property float ny
property float nz
property float texture_u
property float texture_v
element face 610
property list uchar int vertex_indices
end_header
-10.0804 -5.041205 0.009741 -0 0 1 1.000000 0.500849
-10.10356 -4.997988 0.009741 -0 0 1 1.000000 0.484867
-10.10356 -5.084423 0.009741 -0 0 1 1.000000 0.484867
-10.10356 -4.911552 0.009741 0 -0 1 1.000000 0.484867
-10.0804 -4.95477 0.009741 0 -0 1 1.000000 0.500849
-10.12671 -5.041205 0.009741 -0 0 1 1.000000 0.468885
-10.12671 -4.95477 0.009741 0 0 1 1.000000 0.468885
-10.08274 -5.12764 0.009741 0 0 1 1.000000 0.499238
-10.08274 -4.868335 0.009741 -0 0 1 1.000000 0.499238
-10.12438 -5.12764 0.009741 0 0 1 1.000000 0.470495
-10.12438 -4.868335 0.009741 -0 0 1 1.000000 0.470495
-10.05373 -5.084423 0.009741 -0 0 1 1.000000 0.519261
-10.05373 -4.911552 0.009741 0 0 1 1.000000 0.519261
-10.15338 -5.084423 0.009741 -0 0 1 1.000000 0.450473
-10.15338 -4.911552 0.009741 0 0 1 1.000000 0.450473
-10.10356 -5.170857 0.009741 0 -0 1 1.000000 0.484867
-10.10356 -4.825118 0.009741 -0 0 1 1.000000 0.484867
-10.05551 -4.999047 0.009741 0 0 1 1.000000 0.518031
-10.05551 -4.996928 0.009741 -0 0 1 1.000000 0.518031
-10.1516 -4.999047 0.009741 0 -0 1 1.000000 0.451702
-10.1516 -4.996928 0.009741 -0 -0 1 1.000000 0.451702
-10.07867 -4.95583 0.009741 -0 0 1 1.000000 0.502049
-10.07867 -5.040145 0.009741 0 0 1 1.000000 0.502049
-10.12845 -4.95583 0.009741 -0 0 1 1.000000 0.467685
-10.12845 -5.040145 0.009741 0 0 1 1.000000 0.467685
-10.05377 -4.918994 0.009741 0 0 1 1.000000 0.519237
-10.05377 -5.076981 0.009741 -0 0 1 1.000000 0.519237
-10.15335 -4.918994 0.009741 0 0 1 1.000000 0.450497
-10.15335 -5.076981 0.009741 -0 0 1 1.000000 0.450497
-10.07867 -4.870461 0.009741 -0 0 1 1.000000 0.502049
-10.10356 -4.825118 0.009741 -0 0 1 1.000000 0.484867
-10.10356 -4.911552 0.009741 -0 0 1 1.000000 0.484867
-10.10356 -5.084423 0.009741 0 -0 1 1.000000 0.484867
-10.10356 -5.170857 0.009741 0 -0 1 1.000000 0.484867
-10.07867 -5.125514 0.009741 0 -0 1 1.000000 0.502049
-10.12845 -4.870461 0.009741 -0 0 1 1.000000 0.467685
-10.12845 -5.125514 0.009741 0 0 1 1.000000 0.467685
-10.01951 -4.95583 0.009741 -0 0 1 1.000000 0.542887
-10.01951 -5.040145 0.009741 0 0 1 1.000000 0.542887
-10.18761 -4.95583 0.009741 -0 0 1 1.000000 0.426847
-10.18761 -5.040145 0.009741 0 0 1 1.000000 0.426847
-10.01657 -5.037965 0.009741 0 0 1 1.000000 0.544916
-10.01657 -4.95801 0.009741 -0 0 1 1.000000 0.544916
-10.19055 -5.037965 0.009741 0 -0 1 1.000000 0.424817
-10.19055 -4.95801 0.009741 -0 -0 1 1.000000 0.424817
-9.975881 -4.997988 0.009741 -0 -0 1 1.000000 0.573002
-10.23123 -4.997988 0.009741 -0 0 1 1.000000 0.396732
-10.0804 -5.665598 0.009741 -0 0 1 1.000000 0.500849
-10.10356 -5.622381 0.009741 -0 0 1 1.000000 0.484867
-10.10356 -5.708816 0.009741 -0 0 1 1.000000 0.484867
-10.10356 -5.535946 0.009741 0 -0 1 1.000000 0.484867
-10.0804 -5.579164 0.009741 0 -0 1 1.000000 0.500849
-10.12671 -5.665598 0.009741 -0 0 1 1.000000 0.468885
-10.12671 -5.579164 0.009741 0 0 1 1.000000 0.468885
-10.08274 -5.752033 0.009741 0 0 1 1.000000 0.499238
-10.08274 -5.492729 0.009741 -0 0 1 1.000000 0.499238
-10.12438 -5.752033 0.009741 0 0 1 1.000000 0.470495
-10.12438 -5.492729 0.009741 -0 0 1 1.000000 0.470495
-10.05373 -5.708816 0.009741 -0 0 1 1.000000 0.519261
-10.05373 -5.535946 0.009741 0 0 1 1.000000 0.519261
-10.15338 -5.708816 0.009741 -0 0 1 1.000000 0.450473
-10.15338 -5.535946 0.009741 0 0 1 1.000000 0.450473
-10.10356 -5.795251 0.009741 0 -0 1 1.000000 0.484867
-10.10356 -5.449511 0.009741 -0 0 1 1.000000 0.484867
-10.05551 -5.623441 0.009741 0 0 1 1.000000 0.518031
-10.05551 -5.621322 0.009741 -0 0 1 1.000000 0.518031
-10.1516 -5.623441 0.009741 0 -0 1 1.000000 0.451702
-10.1516 -5.621322 0.009741 -0 -0 1 1.000000 0.451702
-10.07867 -5.580223 0.009741 -0 0 1 1.000000 0.502049
-10.07867 -5.664539 0.009741 0 0 1 1.000000 0.502049
-10.12845 -5.580223 0.009741 -0 0 1 1.000000 0.467685
-10.12845 -5.664539 0.009741 0 0 1 1.000000 0.467685
-10.05377 -5.543387 0.009741 0 0 1 1.000000 0.519237
-10.05377 -5.701375 0.009741 -0 0 1 1.000000 0.519237
-10.15335 -5.543387 0.009741 0 0 1 1.000000 0.450497
-10.15335 -5.701375 0.009741 -0 0 1 1.000000 0.450497
-10.07867 -5.494855 0.009741 -0 0 1 1.000000 0.502049
-10.10356 -5.449511 0.009741 -0 0 1 1.000000 0.484867
-10.10356 -5.535946 0.009741 -0 0 1 1.000000 0.484867
-10.10356 -5.708816 0.009741 0 -0 1 1.000000 0.484867
-10.10356 -5.795251 0.009741 0 -0 1 1.000000 0.484867
-10.07867 -5.749907 0.009741 0 -0 1 1.000000 0.502049
-10.12845 -5.494855 0.009741 -0 0 1 1.000000 0.467685
-10.12845 -5.749907 0.009741 0 0 1 1.000000 0.467685
-10.01951 -5.580223 0.009741 -0 0 1 1.000000 0.542887
-10.01951 -5.664539 0.009741 0 0 1 1.000000 0.542887
-10.18761 -5.580223 0.009741 -0 0 1 1.000000 0.426847
-10.18761 -5.664539 0.009741 0 0 1 1.000000 0.426847
-10.01657 -5.662358 0.009741 0 0 1 1.000000 0.544916
-10.01657 -5.582404 0.009741 -0 0 1 1.000000 0.544916
-10.19055 -5.662358 0.009741 0 -0 1 1.000000 0.424817
-10.19055 -5.582404 0.009741 -0 -0 1 1.000000 0.424817
-9.975881 -5.622381 0.009741 -0 -0 1 1.000000 0.573002
-10.23123 -5.622381 0.009741 -0 0 1 1.000000 0.396732
-10.0804 -4.406417 0.009741 -0 0 1 1.000000 0.500849
-10.10356 -4.363199 0.009741 -0 0 1 1.000000 0.484867
-10.10356 -4.449635 0.009741 -0 0 1 1.000000 0.484867
-10.10356 -4.276764 0.009741 0 -0 1 1.000000 0.484867
-10.0804 -4.319982 0.009741 0 -0 1 1.000000 0.500849
-10.12671 -4.406417 0.009741 -0 0 1 1.000000 0.468885
-10.12671 -4.319982 0.009741 0 0 1 1.000000 0.468885
-10.08274 -4.492852 0.009741 0 0 1 1.000000 0.499238
-10.08274 -4.233547 0.009741 -0 0 1 1.000000 0.499238
-10.12438 -4.492852 0.009741 0 0 1 1.000000 0.470495
-10.12438 -4.233547 0.009741 -0 0 1 1.000000 0.470495
-10.05373 -4.449635 0.009741 -0 0 1 1.000000 0.519261
-10.05373 -4.276764 0.009741 0 0 1 1.000000 0.519261
-10.15338 -4.449635 0.009741 -0 0 1 1.000000 0.450473
-10.15338 -4.276764 0.009741 0 0 1 1.000000 0.450473
-10.10356 -4.536069 0.009741 0 -0 1 1.000000 0.484867
-10.10356 -4.19033 0.009741 -0 0 1 1.000000 0.484867
-10.05551 -4.364259 0.009741 0 0 1 1.000000 0.518031
-10.05551 -4.36214 0.009741 -0 0 1 1.000000 0.518031
-10.1516 -4.364259 0.009741 0 -0 1 1.000000 0.451702
-10.1516 -4.36214 0.009741 -0 -0 1 1.000000 0.451702
-10.07867 -4.321042 0.009741 -0 0 1 1.000000 0.502049
-10.07867 -4.405357 0.009741 0 0 1 1.000000 0.502049
-10.12845 -4.321042 0.009741 -0 0 1 1.000000 0.467685
-10.12845 -4.405357 0.009741 0 0 1 1.000000 0.467685
-10.05377 -4.284206 0.009741 0 0 1 1.000000 0.519237
-10.05377 -4.442193 0.009741 -0 0 1 1.000000 0.519237
-10.15335 -4.284206 0.009741 0 0 1 1.000000 0.450497
-10.15335 -4.442193 0.009741 -0 0 1 1.000000 0.450497
-10.07867 -4.235673 0.009741 -0 0 1 1.000000 0.502049
-10.10356 -4.19033 0.009741 -0 0 1 1.000000 0.484867
-10.10356 -4.276764 0.009741 -0 0 1 1.000000 0.484867
-10.10356 -4.449635 0.009741 0 -0 1 1.000000 0.484867
-10.10356 -4.536069 0.009741 0 -0 1 1.000000 0.484867
-10.07867 -4.490726 0.009741 0 -0 1 1.000000 0.502049
-10.12845 -4.235673 0.009741 -0 0 1 1.000000 0.467685
-10.12845 -4.490726 0.009741 0 0 1 1.000000 0.467685
-10.01951 -4.321042 0.009741 -0 0 1 1.000000 0.542887
-10.01951 -4.405357 0.009741 0 0 1 1.000000 0.542887
-10.18761 -4.321042 0.009741 -0 0 1 1.000000 0.426847
-10.18761 -4.405357 0.009741 0 0 1 1.000000 0.426847
-10.01657 -4.403177 0.009741 0 0 1 1.000000 0.544916
-10.01657 -4.323222 0.009741 -0 0 1 1.000000 0.544916
-10.19055 -4.403177 0.009741 0 -0 1 1.000000 0.424817
-10.19055 -4.323222 0.009741 -0 -0 1 1.000000 0.424817
-9.975881 -4.363199 0.009741 -0 -0 1 1.000000 0.573002
-10.23123 -4.363199 0.009741 -0 0 1 1.000000 0.396732
-10.67442 -4.050179 0.003553 0 0 1 0.000000 0.090793
-10.65759 -4.05068 0.003553 0 0 1 0.000000 0.102416
-10.66942 -4.050104 0.003553 0 0 1 0.000000 0.094247
-10.67924 -4.050407 0.003553 0 0 1 0.000000 0.087464
-10.68391 -4.050791 0.003553 0 0 1 0.000000 0.084246
-10.64652 -4.052378 0.003553 0 0 1 0.000000 0.110055
-10.68843 -4.051333 0.003553 0 0 1 0.000000 0.081127
-10.69282 -4.052037 0.003553 0 0 1 0.000000 0.078090
-10.69712 -4.052904 0.003553 0 0 1 0.000000 0.075126
-10.63627 -4.055154 0.003553 0 0 1 0.000000 0.117131
-10.70133 -4.053938 0.003553 0 0 1 0.000000 0.072219
-10.70548 -4.055141 0.003553 0 0 1 0.000000 0.069355
-10.70958 -4.056517 0.003553 0 0 1 0.000000 0.066523
-10.62689 -4.058963 0.003553 0 0 1 0.000000 0.123608
-10.71366 -4.058067 0.003553 0 0 1 0.000000 0.063708
-10.71773 -4.059795 0.003553 0 0 1 0.000000 0.060896
-10.61842 -4.063761 0.003553 0 0 1 0.000000 0.129453
-10.72182 -4.061704 0.003553 0 0 1 0.000000 0.058075
-10.72182 -4.098904 0.003553 0 0 1 0.000000 0.058075
-10.71724 -4.096911 0.003553 0 0 1 0.000000 0.061236
-10.71288 -4.095128 0.003553 0 0 1 0.000000 0.064244
-10.70872 -4.093548 0.003553 0 0 1 0.000000 0.067118
-10.70472 -4.092163 0.003553 0 0 1 0.000000 0.069877
-10.70086 -4.090968 0.003553 0 0 1 0.000000 0.072540
-10.69712 -4.089954 0.003553 0 0 1 0.000000 0.075126
-10.69346 -4.089115 0.003553 0 0 1 0.000000 0.077654
-10.61092 -4.069504 0.003553 0 0 1 0.000000 0.134630
-10.68985 -4.088445 0.003553 0 0 1 0.000000 0.080144
-10.68627 -4.087935 0.003553 0 0 1 0.000000 0.082616
-10.60444 -4.076147 0.003553 0 0 1 0.000000 0.139106
-10.68269 -4.08758 0.003553 0 0 1 0.000000 0.085086
-10.67908 -4.087372 0.003553 0 0 1 0.000000 0.087577
-10.67542 -4.087304 0.003553 0 0 1 0.000000 0.090105
-10.59902 -4.083645 0.003553 0 0 1 0.000000 0.142845
-10.66844 -4.087626 0.003553 0 0 1 0.000000 0.094923
-10.59472 -4.091954 0.003553 0 0 1 0.000000 0.145813
-10.66192 -4.088576 0.003553 0 0 1 0.000000 0.099422
-10.65589 -4.090135 0.003553 0 0 1 0.000000 0.103583
-10.65038 -4.092282 0.003553 0 0 1 0.000000 0.107389
-10.59159 -4.10103 0.003553 0 0 1 0.000000 0.147976
-10.64541 -4.094995 0.003553 0 0 1 0.000000 0.110818
-10.64102 -4.098254 0.003553 0 0 1 0.000000 0.113852
-10.63722 -4.102038 0.003553 0 0 1 0.000000 0.116472
-10.58967 -4.110828 0.003553 0 0 1 0.000000 0.149299
-10.63406 -4.106326 0.003553 0 0 1 0.000000 0.118658
-10.63154 -4.111098 0.003553 0 0 1 0.000000 0.120393
-10.58902 -4.121304 0.003553 0 0 1 0.000000 0.149748
-10.62971 -4.116332 0.003553 0 0 1 0.000000 0.121655
-10.6286 -4.122007 0.003553 0 0 1 0.000000 0.122427
-10.58923 -4.128634 0.003553 0 0 1 0.000000 0.149603
-10.62822 -4.128104 0.003553 0 0 1 0.000000 0.122688
-10.62859 -4.134093 0.003553 0 0 1 0.000000 0.122429
-10.58987 -4.135448 0.003553 0 0 1 0.000000 0.149158
-10.62972 -4.139648 0.003553 0 0 1 0.000000 0.121653
-10.59097 -4.141779 0.003553 0 0 1 0.000000 0.148402
-10.63159 -4.144754 0.003553 0 0 1 0.000000 0.120358
-10.59253 -4.147659 0.003553 0 0 1 0.000000 0.147324
-10.63422 -4.149393 0.003553 0 0 1 0.000000 0.118546
-10.59457 -4.153123 0.003553 0 0 1 0.000000 0.145913
-10.63759 -4.153548 0.003553 0 0 1 0.000000 0.116216
-10.59712 -4.158204 0.003553 0 0 1 0.000000 0.144156
-10.64172 -4.157204 0.003553 0 0 1 0.000000 0.113369
-10.64659 -4.160343 0.003553 0 0 1 0.000000 0.110003
-10.60018 -4.162934 0.003553 0 0 1 0.000000 0.142044
-10.65222 -4.162949 0.003553 0 0 1 0.000000 0.106121
-10.60378 -4.167348 0.003553 0 0 1 0.000000 0.139562
-10.65859 -4.165004 0.003553 0 0 1 0.000000 0.101720
-10.66572 -4.166493 0.003553 0 0 1 0.000000 0.096801
-10.67359 -4.167398 0.003553 0 0 1 0.000000 0.091365
-10.60792 -4.171479 0.003553 0 0 1 0.000000 0.136701
-10.68222 -4.167704 0.003553 0 0 1 0.000000 0.085412
-10.68222 -4.203704 0.003553 0 0 1 0.000000 0.085412
-10.61263 -4.17536 0.003553 0 0 1 0.000000 0.133449
-10.61792 -4.179023 0.003553 0 0 1 0.000000 0.129794
-10.62382 -4.182504 0.003553 0 0 1 0.000000 0.125725
-10.61733 -4.185009 0.003553 0 0 1 0.000000 0.130202
-10.61147 -4.188276 0.003553 0 0 1 0.000000 0.134249
-10.60622 -4.192235 0.003553 0 0 1 0.000000 0.137874
-10.60157 -4.196815 0.003553 0 0 1 0.000000 0.141086
-10.5975 -4.201945 0.003553 0 0 1 0.000000 0.143890
-10.67292 -4.203669 0.003553 0 0 1 0.000000 0.091831
-10.59402 -4.207554 0.003553 0 0 1 0.000000 0.146296
-10.66442 -4.204526 0.003553 0 0 1 0.000000 0.097697
-10.65672 -4.206216 0.003553 0 0 1 0.000000 0.103010
-10.64983 -4.208682 0.003553 0 0 1 0.000000 0.107767
-10.5911 -4.213572 0.003553 0 0 1 0.000000 0.148311
-10.64375 -4.211864 0.003553 0 0 1 0.000000 0.111968
-10.63847 -4.215704 0.003553 0 0 1 0.000000 0.115612
-10.58874 -4.219926 0.003553 0 0 1 0.000000 0.149943
-10.634 -4.220144 0.003553 0 0 1 0.000000 0.118698
-10.58692 -4.226548 0.003553 0 0 1 0.000000 0.151198
-10.63034 -4.225126 0.003553 0 0 1 0.000000 0.121225
-10.62749 -4.230591 0.003553 0 0 1 0.000000 0.123192
-10.58563 -4.233365 0.003553 0 0 1 0.000000 0.152084
-10.62545 -4.236482 0.003553 0 0 1 0.000000 0.124599
-10.58487 -4.240307 0.003553 0 0 1 0.000000 0.152611
-10.62423 -4.242739 0.003553 0 0 1 0.000000 0.125443
-10.58462 -4.247304 0.003553 0 0 1 0.000000 0.152786
-10.62382 -4.249304 0.003553 0 0 1 0.000000 0.125725
-10.58535 -4.259184 0.003553 0 0 1 0.000000 0.152281
-10.62417 -4.255708 0.003553 0 0 1 0.000000 0.125481
-10.62522 -4.2617 0.003553 0 0 1 0.000000 0.124760
-10.58749 -4.270382 0.003553 0 0 1 0.000000 0.150804
-10.62693 -4.267254 0.003553 0 0 1 0.000000 0.123581
-10.62927 -4.272341 0.003553 0 0 1 0.000000 0.121962
-10.59097 -4.280829 0.003553 0 0 1 0.000000 0.148402
-10.72862 -4.314504 0.003553 0 0 1 0.000000 0.053381
-10.72344 -4.275454 0.003553 0 0 1 0.000000 0.056959
-10.72862 -4.272104 0.003553 0 0 1 0.000000 0.053381
-10.63223 -4.276934 0.003553 0 0 1 0.000000 0.119920
-10.71828 -4.278506 0.003553 0 0 1 0.000000 0.060517
-10.63577 -4.281004 0.003553 0 0 1 0.000000 0.117476
-10.71316 -4.28126 0.003553 0 0 1 0.000000 0.064055
-10.59572 -4.29046 0.003553 0 0 1 0.000000 0.145125
-10.63987 -4.284524 0.003553 0 0 1 0.000000 0.114646
-10.70806 -4.283719 0.003553 0 0 1 0.000000 0.067575
-10.70298 -4.285883 0.003553 0 0 1 0.000000 0.071081
-10.6445 -4.287467 0.003553 0 0 1 0.000000 0.111448
-10.69792 -4.287754 0.003553 0 0 1 0.000000 0.074574
-10.64964 -4.289804 0.003553 0 0 1 0.000000 0.107903
-10.69288 -4.289333 0.003553 0 0 1 0.000000 0.078054
-10.68785 -4.290623 0.003553 0 0 1 0.000000 0.081525
-10.65525 -4.291508 0.003553 0 0 1 0.000000 0.104025
-10.60166 -4.299207 0.003553 0 0 1 0.000000 0.141025
-10.68283 -4.291623 0.003553 0 0 1 0.000000 0.084988
-10.66132 -4.29255 0.003553 0 0 1 0.000000 0.099836
-10.67782 -4.292336 0.003553 0 0 1 0.000000 0.088446
-10.67282 -4.292762 0.003553 0 0 1 0.000000 0.091900
-10.66782 -4.292904 0.003553 0 0 1 0.000000 0.095352
-10.60872 -4.307004 0.003553 0 0 1 0.000000 0.136149
-10.61683 -4.313785 0.003553 0 0 1 0.000000 0.130549
-10.62592 -4.319482 0.003553 0 0 1 0.000000 0.124273
-10.72372 -4.316912 0.003553 0 0 1 0.000000 0.056763
-10.71882 -4.319132 0.003553 0 0 1 0.000000 0.060144
-10.71393 -4.32116 0.003553 0 0 1 0.000000 0.063520
-10.63592 -4.324029 0.003553 0 0 1 0.000000 0.117373
-10.70905 -4.322993 0.003553 0 0 1 0.000000 0.066891
-10.70418 -4.324625 0.003553 0 0 1 0.000000 0.070254
-10.64675 -4.32736 0.003553 0 0 1 0.000000 0.109897
-10.69932 -4.326054 0.003553 0 0 1 0.000000 0.073607
-10.69448 -4.327274 0.003553 0 0 1 0.000000 0.076949
-10.68966 -4.328282 0.003553 0 0 1 0.000000 0.080277
-10.65834 -4.329407 0.003553 0 0 1 0.000000 0.101895
-10.68486 -4.329072 0.003553 0 0 1 0.000000 0.083591
-10.68008 -4.329643 0.003553 0 0 1 0.000000 0.086886
-10.67062 -4.330104 0.003553 0 0 1 0.000000 0.093419
-10.67533 -4.329988 0.003553 0 0 1 0.000000 0.090163
-9.48125 -5.937343 0.003553 -0 -0 1 0.000000 0.914450
-9.498087 -5.936842 0.003553 -0 -0 1 0.000000 0.902827
-9.486254 -5.937418 0.003553 -0 -0 1 0.000000 0.910995
-9.476427 -5.937115 0.003553 -0 -0 1 0.000000 0.917779
-9.471766 -5.936731 0.003553 0 -0 1 0.000000 0.920996
-9.509153 -5.935144 0.003553 -0 -0 1 0.000000 0.895187
-9.467246 -5.936189 0.003553 -0 -0 1 0.000000 0.924116
-9.462849 -5.935486 0.003553 -0 -0 1 0.000000 0.927152
-9.458553 -5.934618 0.003553 0 -0 1 0.000000 0.930117
-9.519403 -5.932368 0.003553 -0 -0 1 0.000000 0.888112
-9.454342 -5.933585 0.003553 -0 -0 1 0.000000 0.933024
-9.450194 -5.932382 0.003553 -0 -0 1 0.000000 0.935887
-9.446091 -5.931006 0.003553 0 -0 1 0.000000 0.938720
-9.528787 -5.928559 0.003553 -0 -0 1 0.000000 0.881634
-9.442013 -5.929455 0.003553 -0 -0 1 0.000000 0.941535
-9.43794 -5.927727 0.003553 0 -0 1 0.000000 0.944347
-9.537253 -5.923761 0.003553 -0 -0 1 0.000000 0.875790
-9.433853 -5.925818 0.003553 -0 -0 1 0.000000 0.947168
-9.433853 -5.888618 0.003553 0 -0 1 0.000000 0.947168
-9.438433 -5.890611 0.003553 0 -0 1 0.000000 0.944007
-9.44279 -5.892395 0.003553 0 -0 1 0.000000 0.940999
-9.446954 -5.893975 0.003553 0 -0 1 0.000000 0.938124
-9.45095 -5.895359 0.003553 0 -0 1 0.000000 0.935366
-9.454807 -5.896555 0.003553 0 -0 1 0.000000 0.932703
-9.458553 -5.897569 0.003553 0 -0 1 0.000000 0.930117
-9.462216 -5.898407 0.003553 0 -0 1 0.000000 0.927588
-9.544753 -5.918018 0.003553 0 -0 1 0.000000 0.870613
-9.465824 -5.899078 0.003553 0 0 1 0.000000 0.925098
-9.469403 -5.899587 0.003553 0 0 1 0.000000 0.922627
-9.551237 -5.911376 0.003553 0 -0 1 0.000000 0.866137
-9.472983 -5.899942 0.003553 0 0 1 0.000000 0.920156
-9.47659 -5.900151 0.003553 0 0 1 0.000000 0.917666
-9.480253 -5.900218 0.003553 0 0 1 0.000000 0.915137
-9.556653 -5.903878 0.003553 0 -0 1 0.000000 0.862398
-9.487232 -5.899897 0.003553 -0 0 1 0.000000 0.910320
-9.560953 -5.895568 0.003553 -0 -0 1 0.000000 0.859430
-9.49375 -5.898946 0.003553 -0 -0 1 0.000000 0.905821
-9.499779 -5.897387 0.003553 -0 -0 1 0.000000 0.901659
-9.50529 -5.895241 0.003553 0 -0 1 0.000000 0.897854
-9.564087 -5.886493 0.003553 -0 -0 1 0.000000 0.857266
-9.510258 -5.892528 0.003553 -0 -0 1 0.000000 0.894425
-9.514653 -5.889268 0.003553 -0 -0 1 0.000000 0.891391
-9.518449 -5.885484 0.003553 0 -0 1 0.000000 0.888771
-9.566004 -5.876694 0.003553 -0 -0 1 0.000000 0.855943
-9.521616 -5.881196 0.003553 -0 -0 1 0.000000 0.886584
-9.524128 -5.876425 0.003553 0 -0 1 0.000000 0.884850
-9.566653 -5.866219 0.003553 -0 -0 1 0.000000 0.855495
-9.525957 -5.871191 0.003553 -0 -0 1 0.000000 0.883588
-9.527075 -5.865515 0.003553 0 -0 1 0.000000 0.882816
-9.566442 -5.858888 0.003553 -0 0 1 0.000000 0.855641
-9.527453 -5.859418 0.003553 -0 -0 1 0.000000 0.882555
-9.527079 -5.85343 0.003553 0 -0 1 0.000000 0.882814
-9.565798 -5.852074 0.003553 -0 0 1 0.000000 0.856085
-9.525953 -5.847874 0.003553 0 -0 1 0.000000 0.883590
-9.564703 -5.845744 0.003553 -0 0 1 0.000000 0.856841
-9.524078 -5.842769 0.003553 0 -0 1 0.000000 0.884885
-9.563143 -5.839863 0.003553 -0 0 1 0.000000 0.857918
-9.521454 -5.83813 0.003553 0 -0 1 0.000000 0.886696
-9.561098 -5.834399 0.003553 -0 0 1 0.000000 0.859330
-9.518079 -5.833974 0.003553 0 -0 1 0.000000 0.889026
-9.558554 -5.829319 0.003553 -0 0 1 0.000000 0.861086
-9.513953 -5.830318 0.003553 -0 -0 1 0.000000 0.891874
-9.509078 -5.827179 0.003553 0 -0 1 0.000000 0.895239
-9.555492 -5.824588 0.003553 -0 0 1 0.000000 0.863199
-9.503453 -5.824574 0.003553 0 -0 1 0.000000 0.899122
-9.551898 -5.820174 0.003553 -0 0 1 0.000000 0.865681
-9.497078 -5.822518 0.003553 -0 -0 1 0.000000 0.903523
-9.489953 -5.82103 0.003553 -0 -0 1 0.000000 0.908442
-9.482079 -5.820124 0.003553 0 -0 1 0.000000 0.913877
-9.547753 -5.816043 0.003553 -0 0 1 0.000000 0.868542
-9.473454 -5.819818 0.003553 -0 -0 1 0.000000 0.919831
-9.473454 -5.783818 0.003553 0 -0 1 0.000000 0.919831
-9.543042 -5.812163 0.003553 0 0 1 0.000000 0.871794
-9.537747 -5.808499 0.003553 0 0 1 0.000000 0.875449
-9.531854 -5.805018 0.003553 0 0 1 0.000000 0.879517
-9.538339 -5.802514 0.003553 0 -0 1 0.000000 0.875041
-9.544202 -5.799246 0.003553 0 -0 1 0.000000 0.870993
-9.549454 -5.795287 0.003553 0 -0 1 0.000000 0.867368
-9.554105 -5.790708 0.003553 0 -0 1 0.000000 0.864157
-9.558168 -5.785577 0.003553 0 -0 1 0.000000 0.861352
-9.482753 -5.783853 0.003553 0 0 1 0.000000 0.913412
-9.561653 -5.779968 0.003553 -0 -0 1 0.000000 0.858947
-9.491252 -5.782996 0.003553 -0 -0 1 0.000000 0.907545
-9.498947 -5.781306 0.003553 -0 -0 1 0.000000 0.902233
-9.505838 -5.778841 0.003553 0 -0 1 0.000000 0.897476
-9.564571 -5.773951 0.003553 -0 -0 1 0.000000 0.856932
-9.511925 -5.775659 0.003553 -0 -0 1 0.000000 0.893274
-9.517203 -5.771819 0.003553 0 -0 1 0.000000 0.889631
-9.566935 -5.767596 0.003553 -0 -0 1 0.000000 0.855301
-9.521674 -5.767378 0.003553 0 -0 1 0.000000 0.886544
-9.568753 -5.760975 0.003553 -0 -0 1 0.000000 0.854045
-9.525335 -5.762396 0.003553 -0 -0 1 0.000000 0.884017
-9.528185 -5.756931 0.003553 0 -0 1 0.000000 0.882050
-9.570039 -5.754158 0.003553 -0 -0 1 0.000000 0.853158
-9.530222 -5.75104 0.003553 0 -0 1 0.000000 0.880644
-9.570802 -5.747215 0.003553 -0 -0 1 0.000000 0.852631
-9.531446 -5.744784 0.003553 0 -0 1 0.000000 0.879798
-9.571054 -5.740219 0.003553 -0 -0 1 0.000000 0.852457
-9.531854 -5.738218 0.003553 0 -0 1 0.000000 0.879517
-9.570324 -5.728338 0.003553 -0 0 1 0.000000 0.852961
-9.5315 -5.731815 0.003553 -0 -0 1 0.000000 0.879762
-9.530456 -5.725822 0.003553 0 -0 1 0.000000 0.880482
-9.568183 -5.717141 0.003553 -0 0 1 0.000000 0.854439
-9.528748 -5.720268 0.003553 -0 -0 1 0.000000 0.881661
-9.526402 -5.715181 0.003553 0 -0 1 0.000000 0.883280
-9.564703 -5.706694 0.003553 -0 0 1 0.000000 0.856841
-9.427053 -5.673018 0.003553 0 -0 1 0.000000 0.951862
-9.432238 -5.712068 0.003553 0 -0 1 0.000000 0.948283
-9.427053 -5.715418 0.003553 0 -0 1 0.000000 0.951862
-9.523445 -5.710589 0.003553 -0 -0 1 0.000000 0.885322
-9.43739 -5.709017 0.003553 0 -0 1 0.000000 0.944726
-9.519903 -5.706519 0.003553 0 -0 1 0.000000 0.887767
-9.442516 -5.706262 0.003553 0 -0 1 0.000000 0.941188
-9.559958 -5.697063 0.003553 -0 0 1 0.000000 0.860116
-9.515803 -5.702998 0.003553 -0 -0 1 0.000000 0.890597
-9.447617 -5.703804 0.003553 0 -0 1 0.000000 0.937667
-9.452695 -5.70164 0.003553 0 -0 1 0.000000 0.934161
-9.511172 -5.700056 0.003553 -0 -0 1 0.000000 0.893794
-9.457753 -5.699769 0.003553 0 -0 1 0.000000 0.930669
-9.506035 -5.697719 0.003553 -0 -0 1 0.000000 0.897340
-9.462795 -5.698189 0.003553 0 -0 1 0.000000 0.927189
-9.467824 -5.6969 0.003553 0 -0 1 0.000000 0.923717
-9.500418 -5.696015 0.003553 0 -0 1 0.000000 0.901218
-9.554016 -5.688316 0.003553 -0 0 1 0.000000 0.864218
-9.472841 -5.695899 0.003553 0 -0 1 0.000000 0.920254
-9.494349 -5.694972 0.003553 -0 -0 1 0.000000 0.905407
-9.47785 -5.695187 0.003553 0 -0 1 0.000000 0.916796
-9.482853 -5.69476 0.003553 0 -0 1 0.000000 0.913343
-9.487853 -5.694618 0.003553 -0 -0 1 0.000000 0.909891
-9.546953 -5.680519 0.003553 0 0 1 0.000000 0.869094
-9.53884 -5.673738 0.003553 0 0 1 0.000000 0.874694
-9.52975 -5.668041 0.003553 -0 0 1 0.000000 0.880970
-9.431952 -5.670611 0.003553 -0 -0 1 0.000000 0.948480
-9.43685 -5.668391 0.003553 -0 -0 1 0.000000 0.945099
-9.441741 -5.666362 0.003553 0 -0 1 0.000000 0.941723
-9.519753 -5.663494 0.003553 -0 0 1 0.000000 0.887870
-9.446624 -5.66453 0.003553 -0 -0 1 0.000000 0.938352
-9.451495 -5.662897 0.003553 0 -0 1 0.000000 0.934989
-9.508924 -5.660163 0.003553 -0 0 1 0.000000 0.895346
-9.456353 -5.661469 0.003553 -0 -0 1 0.000000 0.931636
-9.461195 -5.660248 0.003553 -0 -0 1 0.000000 0.928294
-9.466017 -5.659241 0.003553 0 -0 1 0.000000 0.924965
-9.497333 -5.658116 0.003553 -0 0 1 0.000000 0.903347
-9.470816 -5.65845 0.003553 -0 -0 1 0.000000 0.921652
-9.475591 -5.657879 0.003553 0 -0 1 0.000000 0.918356
-9.485053 -5.657418 0.003553 -0 0 1 0.000000 0.911824
-9.480337 -5.657535 0.003553 -0 -0 1 0.000000 0.915080
-9.461842 -5.47918 0.009741 -0 0 1 1.000000 0.927847
-9.484994 -5.435962 0.009741 -0 0 1 1.000000 0.911865
-9.484994 -5.522397 0.009741 -0 0 1 1.000000 0.911865
-9.484994 -5.349527 0.009741 0 -0 1 1.000000 0.911865
-9.461842 -5.392745 0.009741 0 -0 1 1.000000 0.927847
-9.508146 -5.47918 0.009741 -0 0 1 1.000000 0.895883
-9.508146 -5.392745 0.009741 0 0 1 1.000000 0.895883
-9.464175 -5.565615 0.009741 0 0 1 1.000000 0.926236
-9.464175 -5.30631 0.009741 -0 0 1 1.000000 0.926236
-9.505813 -5.565615 0.009741 0 0 1 1.000000 0.897494
-9.505813 -5.30631 0.009741 -0 0 1 1.000000 0.897494
-9.43517 -5.522397 0.009741 -0 0 1 1.000000 0.946259
-9.43517 -5.349527 0.009741 0 0 1 1.000000 0.946259
-9.534818 -5.522397 0.009741 -0 0 1 1.000000 0.877471
-9.534818 -5.349527 0.009741 0 0 1 1.000000 0.877471
-9.484994 -5.608832 0.009741 0 -0 1 1.000000 0.911865
-9.484994 -5.263093 0.009741 -0 0 1 1.000000 0.911865
-9.436952 -5.437022 0.009741 0 0 1 1.000000 0.945029
-9.436952 -5.434903 0.009741 -0 0 1 1.000000 0.945029
-9.533036 -5.437022 0.009741 0 -0 1 1.000000 0.878701
-9.533036 -5.434903 0.009741 -0 -0 1 1.000000 0.878701
-9.460104 -5.393805 0.009741 -0 0 1 1.000000 0.929047
-9.460104 -5.47812 0.009741 0 0 1 1.000000 0.929047
-9.509884 -5.393805 0.009741 -0 0 1 1.000000 0.894683
-9.509884 -5.47812 0.009741 0 0 1 1.000000 0.894683
-9.435205 -5.356969 0.009741 0 0 1 1.000000 0.946234
-9.435205 -5.514956 0.009741 -0 0 1 1.000000 0.946234
-9.534783 -5.356969 0.009741 0 0 1 1.000000 0.877495
-9.534783 -5.514956 0.009741 -0 0 1 1.000000 0.877495
-9.460104 -5.308436 0.009741 -0 0 1 1.000000 0.929047
-9.484994 -5.263093 0.009741 -0 0 1 1.000000 0.911865
-9.484994 -5.349527 0.009741 -0 0 1 1.000000 0.911865
-9.484994 -5.522397 0.009741 0 -0 1 1.000000 0.911865
-9.484994 -5.608832 0.009741 0 -0 1 1.000000 0.911865
-9.460104 -5.563488 0.009741 0 -0 1 1.000000 0.929047
-9.509884 -5.308436 0.009741 -0 0 1 1.000000 0.894683
-9.509884 -5.563488 0.009741 0 0 1 1.000000 0.894683
-9.400944 -5.393805 0.009741 -0 0 1 1.000000 0.969885
-9.400944 -5.47812 0.009741 0 0 1 1.000000 0.969885
-9.569044 -5.393805 0.009741 -0 0 1 1.000000 0.853844
-9.569044 -5.47812 0.009741 0 0 1 1.000000 0.853844
-9.398005 -5.47594 0.009741 0 0 1 1.000000 0.971914
-9.398005 -5.395985 0.009741 -0 0 1 1.000000 0.971914
-9.571983 -5.47594 0.009741 0 -0 1 1.000000 0.851815
-9.571983 -5.395985 0.009741 -0 -0 1 1.000000 0.851815
-9.357319 -5.435962 0.009741 -0 -0 1 1.000000 1.000000
-9.612669 -5.435962 0.009741 -0 0 1 1.000000 0.823730
-10.65512 -4.611957 0.009741 -0 0 1 1.000000 0.104117
-10.67827 -4.568739 0.009741 -0 0 1 1.000000 0.088135
-10.67827 -4.655174 0.009741 -0 0 1 1.000000 0.088135
-10.67827 -4.482305 0.009741 0 -0 1 1.000000 0.088135
-10.65512 -4.525522 0.009741 0 -0 1 1.000000 0.104117
-10.70143 -4.611957 0.009741 -0 0 1 1.000000 0.072153
-10.70143 -4.525522 0.009741 0 0 1 1.000000 0.072153
-10.65745 -4.698392 0.009741 0 0 1 1.000000 0.102507
-10.65745 -4.439087 0.009741 -0 0 1 1.000000 0.102507
-10.69909 -4.698392 0.009741 0 0 1 1.000000 0.073764
-10.69909 -4.439087 0.009741 -0 0 1 1.000000 0.073764
-10.62845 -4.655174 0.009741 -0 0 1 1.000000 0.122530
-10.62845 -4.482305 0.009741 0 0 1 1.000000 0.122530
-10.7281 -4.655174 0.009741 -0 0 1 1.000000 0.053741
-10.7281 -4.482305 0.009741 0 0 1 1.000000 0.053741
-10.67827 -4.74161 0.009741 0 -0 1 1.000000 0.088135
-10.67827 -4.39587 0.009741 -0 0 1 1.000000 0.088135
-10.63023 -4.569799 0.009741 0 0 1 1.000000 0.121300
-10.63023 -4.56768 0.009741 -0 0 1 1.000000 0.121300
-10.72631 -4.569799 0.009741 0 -0 1 1.000000 0.054972
-10.72631 -4.56768 0.009741 -0 -0 1 1.000000 0.054972
-10.65338 -4.526582 0.009741 -0 0 1 1.000000 0.105317
-10.65338 -4.610898 0.009741 0 0 1 1.000000 0.105317
-10.70316 -4.526582 0.009741 -0 0 1 1.000000 0.070953
-10.70316 -4.610898 0.009741 0 0 1 1.000000 0.070953
-10.62848 -4.489746 0.009741 0 0 1 1.000000 0.122505
-10.62848 -4.647733 0.009741 -0 0 1 1.000000 0.122505
-10.72806 -4.489746 0.009741 0 0 1 1.000000 0.053766
-10.72806 -4.647733 0.009741 -0 0 1 1.000000 0.053766
-10.65338 -4.441214 0.009741 -0 0 1 1.000000 0.105317
-10.67827 -4.39587 0.009741 -0 0 1 1.000000 0.088135
-10.67827 -4.482305 0.009741 -0 0 1 1.000000 0.088135
-10.67827 -4.655175 0.009741 0 -0 1 1.000000 0.088135
-10.67827 -4.74161 0.009741 0 -0 1 1.000000 0.088135
-10.65338 -4.696266 0.009741 0 -0 1 1.000000 0.105317
-10.70316 -4.441214 0.009741 -0 0 1 1.000000 0.070953
-10.70316 -4.696266 0.009741 0 0 1 1.000000 0.070953
-10.59422 -4.526582 0.009741 -0 0 1 1.000000 0.146156
-10.59422 -4.610898 0.009741 0 0 1 1.000000 0.146156
-10.76232 -4.526582 0.009741 -0 0 1 1.000000 0.030115
-10.76232 -4.610898 0.009741 0 0 1 1.000000 0.030115
-10.59128 -4.608717 0.009741 0 0 1 1.000000 0.148185
-10.59128 -4.528762 0.009741 -0 0 1 1.000000 0.148185
-10.76526 -4.608717 0.009741 0 -0 1 1.000000 0.028086
-10.76526 -4.528762 0.009741 -0 -0 1 1.000000 0.028086
-10.5506 -4.568739 0.009741 -0 -0 1 1.000000 0.176270
-10.80595 -4.568739 0.009741 -0 0 1 1.000000 0.000000
3 0 1 2 
3 3 1 4 
3 2 1 5 
3 6 1 3 
3 2 7 0 
3 4 8 3 
3 5 9 2 
3 3 10 6 
3 11 0 7 
3 8 4 12 
3 9 5 13 
3 14 6 10 
3 2 15 7 
3 8 16 3 
3 9 15 2 
3 3 16 10 
3 0 11 17 
3 18 12 4 
3 19 13 5 
3 6 14 20 
3 17 21 0 
3 4 22 18 
3 5 23 19 
3 20 24 6 
3 1 0 21 
3 22 4 1 
3 23 5 1 
3 1 6 24 
3 21 17 25 
3 26 18 22 
3 27 19 23 
3 24 20 28 
3 29 30 31 
3 32 33 34 
3 31 30 35 
3 36 33 32 
3 31 21 29 
3 34 22 32 
3 35 23 31 
3 32 24 36 
3 25 29 21 
3 22 34 26 
3 23 35 27 
3 28 36 24 
3 21 31 1 
3 1 32 22 
3 1 31 23 
3 24 32 1 
3 37 25 17 
3 18 26 38 
3 19 27 39 
3 40 28 20 
3 17 41 37 
3 38 42 18 
3 39 43 19 
3 20 44 40 
3 45 37 41 
3 42 38 45 
3 43 39 46 
3 46 40 44 
3 41 17 11 
3 12 18 42 
3 13 19 43 
3 44 20 14 
3 47 48 49 
3 50 48 51 
3 49 48 52 
3 53 48 50 
3 49 54 47 
3 51 55 50 
3 52 56 49 
3 50 57 53 
3 58 47 54 
3 55 51 59 
3 56 52 60 
3 61 53 57 
3 49 62 54 
3 55 63 50 
3 56 62 49 
3 50 63 57 
3 47 58 64 
3 65 59 51 
3 66 60 52 
3 53 61 67 
3 64 68 47 
3 51 69 65 
3 52 70 66 
3 67 71 53 
3 48 47 68 
3 69 51 48 
3 70 52 48 
3 48 53 71 
3 68 64 72 
3 73 65 69 
3 74 66 70 
3 71 67 75 
3 76 77 78 
3 79 80 81 
3 78 77 82 
3 83 80 79 
3 78 68 76 
3 81 69 79 
3 82 70 78 
3 79 71 83 
3 72 76 68 
3 69 81 73 
3 70 82 74 
3 75 83 71 
3 68 78 48 
3 48 79 69 
3 48 78 70 
3 71 79 48 
3 84 72 64 
3 65 73 85 
3 66 74 86 
3 87 75 67 
3 64 88 84 
3 85 89 65 
3 86 90 66 
3 67 91 87 
3 92 84 88 
3 89 85 92 
3 90 86 93 
3 93 87 91 
3 88 64 58 
3 59 65 89 
3 60 66 90 
3 91 67 61 
3 94 95 96 
3 97 95 98 
3 96 95 99 
3 100 95 97 
3 96 101 94 
3 98 102 97 
3 99 103 96 
3 97 104 100 
3 105 94 101 
3 102 98 106 
3 103 99 107 
3 108 100 104 
3 96 109 101 
3 102 110 97 
3 103 109 96 
3 97 110 104 
3 94 105 111 
3 112 106 98 
3 113 107 99 
3 100 108 114 
3 111 115 94 
3 98 116 112 
3 99 117 113 
3 114 118 100 
3 95 94 115 
3 116 98 95 
3 117 99 95 
3 95 100 118 
3 115 111 119 
3 120 112 116 
3 121 113 117 
3 118 114 122 
3 123 124 125 
3 126 127 128 
3 125 124 129 
3 130 127 126 
3 125 115 123 
3 128 116 126 
3 129 117 125 
3 126 118 130 
3 119 123 115 
3 116 128 120 
3 117 129 121 
3 122 130 118 
3 115 125 95 
3 95 126 116 
3 95 125 117 
3 118 126 95 
3 131 119 111 
3 112 120 132 
3 113 121 133 
3 134 122 114 
3 111 135 131 
3 132 136 112 
3 133 137 113 
3 114 138 134 
3 139 131 135 
3 136 132 139 
3 137 133 140 
3 140 134 138 
3 135 111 105 
3 106 112 136 
3 107 113 137 
3 138 114 108 
3 141 142 143 
3 144 142 141 
3 145 142 144 
3 145 146 142 
3 147 146 145 
3 148 146 147 
3 149 146 148 
3 149 150 146 
3 151 150 149 
3 152 150 151 
3 153 150 152 
3 153 154 150 
3 155 154 153 
3 156 154 155 
3 156 157 154 
3 158 157 156 
3 159 160 158 
3 160 161 158 
3 161 162 158 
3 162 163 158 
3 163 164 158 
3 164 165 158 
3 165 166 158 
3 166 157 158 
3 166 167 157 
3 166 168 167 
3 168 169 167 
3 169 170 167 
3 169 171 170 
3 171 172 170 
3 172 173 170 
3 173 174 170 
3 173 175 174 
3 175 176 174 
3 177 176 175 
3 178 176 177 
3 179 176 178 
3 179 180 176 
3 181 180 179 
3 182 180 181 
3 183 180 182 
3 183 184 180 
3 185 184 183 
3 186 184 185 
3 186 187 184 
3 188 187 186 
3 189 187 188 
3 189 190 187 
3 191 190 189 
3 192 190 191 
3 192 193 190 
3 194 193 192 
3 194 195 193 
3 196 195 194 
3 196 197 195 
3 198 197 196 
3 198 199 197 
3 200 199 198 
3 200 201 199 
3 202 201 200 
3 203 201 202 
3 203 204 201 
3 205 204 203 
3 205 206 204 
3 207 206 205 
3 208 206 207 
3 209 206 208 
3 209 210 206 
3 211 210 209 
3 212 210 211 
3 212 213 210 
3 212 214 213 
3 212 215 214 
3 212 216 215 
3 212 217 216 
3 212 218 217 
3 212 219 218 
3 212 220 219 
3 212 221 220 
3 221 222 220 
3 223 222 221 
3 224 222 223 
3 225 222 224 
3 225 226 222 
3 227 226 225 
3 228 226 227 
3 228 229 226 
3 230 229 228 
3 230 231 229 
3 232 231 230 
3 233 231 232 
3 233 234 231 
3 235 234 233 
3 235 236 234 
3 237 236 235 
3 237 238 236 
3 239 238 237 
3 239 240 238 
3 241 240 239 
3 242 240 241 
3 242 243 240 
3 244 243 242 
3 245 243 244 
3 245 246 243 
3 247 248 249 
3 250 246 245 
3 247 251 248 
3 252 246 250 
3 247 253 251 
3 252 254 246 
3 255 254 252 
3 247 256 253 
3 247 257 256 
3 258 254 255 
3 247 259 257 
3 260 254 258 
3 247 261 259 
3 247 262 261 
3 263 254 260 
3 263 264 254 
3 247 265 262 
3 266 264 263 
3 247 267 265 
3 247 268 267 
3 269 264 266 
3 247 269 268 
3 247 264 269 
3 247 270 264 
3 247 271 270 
3 247 272 271 
3 273 272 247 
3 274 272 273 
3 275 272 274 
3 275 276 272 
3 277 276 275 
3 278 276 277 
3 278 279 276 
3 280 279 278 
3 281 279 280 
3 282 279 281 
3 282 283 279 
3 284 283 282 
3 285 283 284 
3 285 286 283 
3 287 286 285 
3 288 289 290 
3 291 289 288 
3 292 289 291 
3 292 293 289 
3 294 293 292 
3 295 293 294 
3 296 293 295 
3 296 297 293 
3 298 297 296 
3 299 297 298 
3 300 297 299 
3 300 301 297 
3 302 301 300 
3 303 301 302 
3 303 304 301 
3 305 304 303 
3 306 307 305 
3 307 308 305 
3 308 309 305 
3 309 310 305 
3 310 311 305 
3 311 312 305 
3 312 313 305 
3 313 304 305 
3 313 314 304 
3 313 315 314 
3 315 316 314 
3 316 317 314 
3 316 318 317 
3 318 319 317 
3 319 320 317 
3 320 321 317 
3 320 322 321 
3 322 323 321 
3 324 323 322 
3 325 323 324 
3 326 323 325 
3 326 327 323 
3 328 327 326 
3 329 327 328 
3 330 327 329 
3 330 331 327 
3 332 331 330 
3 333 331 332 
3 333 334 331 
3 335 334 333 
3 336 334 335 
3 336 337 334 
3 338 337 336 
3 339 337 338 
3 339 340 337 
3 341 340 339 
3 341 342 340 
3 343 342 341 
3 343 344 342 
3 345 344 343 
3 345 346 344 
3 347 346 345 
3 347 348 346 
3 349 348 347 
3 350 348 349 
3 350 351 348 
3 352 351 350 
3 352 353 351 
3 354 353 352 
3 355 353 354 
3 356 353 355 
3 356 357 353 
3 358 357 356 
3 359 357 358 
3 359 360 357 
3 359 361 360 
3 359 362 361 
3 359 363 362 
3 359 364 363 
3 359 365 364 
3 359 366 365 
3 359 367 366 
3 359 368 367 
3 368 369 367 
3 370 369 368 
3 371 369 370 
3 372 369 371 
3 372 373 369 
3 374 373 372 
3 375 373 374 
3 375 376 373 
3 377 376 375 
3 377 378 376 
3 379 378 377 
3 380 378 379 
3 380 381 378 
3 382 381 380 
3 382 383 381 
3 384 383 382 
3 384 385 383 
3 386 385 384 
3 386 387 385 
3 388 387 386 
3 389 387 388 
3 389 390 387 
3 391 390 389 
3 392 390 391 
3 392 393 390 
3 394 395 396 
3 397 393 392 
3 394 398 395 
3 399 393 397 
3 394 400 398 
3 399 401 393 
3 402 401 399 
3 394 403 400 
3 394 404 403 
3 405 401 402 
3 394 406 404 
3 407 401 405 
3 394 408 406 
3 394 409 408 
3 410 401 407 
3 410 411 401 
3 394 412 409 
3 413 411 410 
3 394 414 412 
3 394 415 414 
3 416 411 413 
3 394 416 415 
3 394 411 416 
3 394 417 411 
3 394 418 417 
3 394 419 418 
3 420 419 394 
3 421 419 420 
3 422 419 421 
3 422 423 419 
3 424 423 422 
3 425 423 424 
3 425 426 423 
3 427 426 425 
3 428 426 427 
3 429 426 428 
3 429 430 426 
3 431 430 429 
3 432 430 431 
3 432 433 430 
3 434 433 432 
3 435 436 437 
3 438 436 439 
3 437 436 440 
3 441 436 438 
3 437 442 435 
3 439 443 438 
3 440 444 437 
3 438 445 441 
3 446 435 442 
3 443 439 447 
3 444 440 448 
3 449 441 445 
3 437 450 442 
3 443 451 438 
3 444 450 437 
3 438 451 445 
3 435 446 452 
3 453 447 439 
3 454 448 440 
3 441 449 455 
3 452 456 435 
3 439 457 453 
3 440 458 454 
3 455 459 441 
3 436 435 456 
3 457 439 436 
3 458 440 436 
3 436 441 459 
3 456 452 460 
3 461 453 457 
3 462 454 458 
3 459 455 463 
3 464 465 466 
3 467 468 469 
3 466 465 470 
3 471 468 467 
3 466 456 464 
3 469 457 467 
3 470 458 466 
3 467 459 471 
3 460 464 456 
3 457 469 461 
3 458 470 462 
3 463 471 459 
3 456 466 436 
3 436 467 457 
3 436 466 458 
3 459 467 436 
3 472 460 452 
3 453 461 473 
3 454 462 474 
3 475 463 455 
3 452 476 472 
3 473 477 453 
3 474 478 454 
3 455 479 475 
3 480 472 476 
3 477 473 480 
3 478 474 481 
3 481 475 479 
3 476 452 446 
3 447 453 477 
3 448 454 478 
3 479 455 449 
3 482 483 484 
3 485 483 486 
3 484 483 487 
3 488 483 485 
3 484 489 482 
3 486 490 485 
3 487 491 484 
3 485 492 488 
3 493 482 489 
3 490 486 494 
3 491 487 495 
3 496 488 492 
3 484 497 489 
3 490 498 485 
3 491 497 484 
3 485 498 492 
3 482 493 499 
3 500 494 486 
3 501 495 487 
3 488 496 502 
3 499 503 482 
3 486 504 500 
3 487 505 501 
3 502 506 488 
3 483 482 503 
3 504 486 483 
3 505 487 483 
3 483 488 506 
3 503 499 507 
3 508 500 504 
3 509 501 505 
3 506 502 510 
3 511 512 513 
3 514 515 516 
3 513 512 517 
3 518 515 514 
3 513 503 511 
3 516 504 514 
3 517 505 513 
3 514 506 518 
3 507 511 503 
3 504 516 508 
3 505 517 509 
3 510 518 506 
3 503 513 483 
3 483 514 504 
3 483 513 505 
3 506 514 483 
3 519 507 499 
3 500 508 520 
3 501 509 521 
3 522 510 502 
3 499 523 519 
3 520 524 500 
3 521 525 501 
3 502 526 522 
3 527 519 523 
3 524 520 527 
3 525 521 528 
3 528 522 526 
3 523 499 493 
3 494 500 524 
3 495 501 525 
3 526 502 496 
