ply
format ascii 1.0
comment VCGLIB generated
comment TextureFile RedTex.bmp
element vertex 320
property float x
property float y
property float z
property float nx
property float ny
property float nz
property float texture_u
property float texture_v
element face 414
property list uchar int vertex_indices
end_header
-7.786134 -5.665598 0.009741 -0 0 1 1.000000 0.703986
-7.809287 -5.622381 0.009741 -0 0 1 1.000000 0.688003
-7.809287 -5.708816 0.009741 -0 0 1 1.000000 0.688003
-7.809287 -5.535946 0.009741 0 -0 1 1.000000 0.688003
-7.786134 -5.579164 0.009741 0 -0 1 1.000000 0.703986
-7.832439 -5.665598 0.009741 -0 0 1 1.000000 0.672021
-7.832439 -5.579164 0.009741 0 0 1 1.000000 0.672021
-7.788467 -5.752033 0.009741 0 0 1 1.000000 0.702376
-7.788467 -5.492729 0.009741 -0 0 1 1.000000 0.702376
-7.830105 -5.752033 0.009741 0 0 1 1.000000 0.673633
-7.830105 -5.492729 0.009741 -0 0 1 1.000000 0.673633
-7.759462 -5.708816 0.009741 -0 0 1 1.000000 0.722398
-7.759462 -5.535946 0.009741 0 0 1 1.000000 0.722398
-7.85911 -5.708816 0.009741 -0 0 1 1.000000 0.653610
-7.85911 -5.535946 0.009741 0 0 1 1.000000 0.653610
-7.809287 -5.795251 0.009741 0 -0 1 1.000000 0.688003
-7.809287 -5.449511 0.009741 -0 0 1 1.000000 0.688003
-7.761244 -5.623441 0.009741 0 0 1 1.000000 0.721168
-7.761244 -5.621322 0.009741 -0 0 1 1.000000 0.721168
-7.857329 -5.623441 0.009741 0 -0 1 1.000000 0.654840
-7.857329 -5.621322 0.009741 -0 -0 1 1.000000 0.654840
-7.784396 -5.580223 0.009741 -0 0 1 1.000000 0.705186
-7.784396 -5.664539 0.009741 0 0 1 1.000000 0.705186
-7.834177 -5.580223 0.009741 -0 0 1 1.000000 0.670822
-7.834177 -5.664539 0.009741 0 0 1 1.000000 0.670822
-7.759497 -5.543387 0.009741 0 0 1 1.000000 0.722374
-7.759497 -5.701375 0.009741 -0 0 1 1.000000 0.722374
-7.859076 -5.543387 0.009741 0 0 1 1.000000 0.653634
-7.859076 -5.701375 0.009741 -0 0 1 1.000000 0.653634
-7.784396 -5.494855 0.009741 -0 0 1 1.000000 0.705186
-7.809287 -5.449511 0.009741 -0 0 1 1.000000 0.688003
-7.809287 -5.535946 0.009741 -0 0 1 1.000000 0.688003
-7.809287 -5.708816 0.009741 0 -0 1 1.000000 0.688003
-7.809287 -5.795251 0.009741 0 -0 1 1.000000 0.688003
-7.784396 -5.749907 0.009741 0 -0 1 1.000000 0.705186
-7.834177 -5.494855 0.009741 -0 0 1 1.000000 0.670822
-7.834177 -5.749907 0.009741 0 0 1 1.000000 0.670822
-7.725236 -5.580223 0.009741 -0 0 1 1.000000 0.746024
-7.725236 -5.664539 0.009741 0 0 1 1.000000 0.746024
-7.893337 -5.580223 0.009741 -0 0 1 1.000000 0.629983
-7.893337 -5.664539 0.009741 0 0 1 1.000000 0.629983
-7.722297 -5.662358 0.009741 0 0 1 1.000000 0.748053
-7.722297 -5.582404 0.009741 -0 0 1 1.000000 0.748053
-7.896276 -5.662358 0.009741 0 -0 1 1.000000 0.627954
-7.896276 -5.582404 0.009741 -0 -0 1 1.000000 0.627954
-7.681612 -5.622381 0.009741 -0 -0 1 1.000000 0.776138
-7.936961 -5.622381 0.009741 -0 0 1 1.000000 0.599869
-7.786134 -4.406417 0.009741 -0 0 1 1.000000 0.703986
-7.809287 -4.363199 0.009741 -0 0 1 1.000000 0.688003
-7.809287 -4.449635 0.009741 -0 0 1 1.000000 0.688003
-7.809287 -4.276764 0.009741 0 -0 1 1.000000 0.688003
-7.786134 -4.319982 0.009741 0 -0 1 1.000000 0.703986
-7.832439 -4.406417 0.009741 -0 0 1 1.000000 0.672021
-7.832439 -4.319982 0.009741 0 0 1 1.000000 0.672021
-7.788467 -4.492852 0.009741 0 0 1 1.000000 0.702376
-7.788467 -4.233547 0.009741 -0 0 1 1.000000 0.702376
-7.830105 -4.492852 0.009741 0 0 1 1.000000 0.673633
-7.830105 -4.233547 0.009741 -0 0 1 1.000000 0.673633
-7.759462 -4.449635 0.009741 -0 0 1 1.000000 0.722398
-7.759462 -4.276764 0.009741 0 0 1 1.000000 0.722398
-7.85911 -4.449635 0.009741 -0 0 1 1.000000 0.653610
-7.85911 -4.276764 0.009741 0 0 1 1.000000 0.653610
-7.809287 -4.536069 0.009741 0 -0 1 1.000000 0.688003
-7.809287 -4.19033 0.009741 -0 0 1 1.000000 0.688003
-7.761244 -4.364259 0.009741 0 0 1 1.000000 0.721168
-7.761244 -4.36214 0.009741 -0 0 1 1.000000 0.721168
-7.857329 -4.364259 0.009741 0 -0 1 1.000000 0.654840
-7.857329 -4.36214 0.009741 -0 -0 1 1.000000 0.654840
-7.784396 -4.321042 0.009741 -0 0 1 1.000000 0.705186
-7.784396 -4.405357 0.009741 0 0 1 1.000000 0.705186
-7.834177 -4.321042 0.009741 -0 0 1 1.000000 0.670822
-7.834177 -4.405357 0.009741 0 0 1 1.000000 0.670822
-7.759497 -4.284206 0.009741 0 0 1 1.000000 0.722374
-7.759497 -4.442193 0.009741 -0 0 1 1.000000 0.722374
-7.859076 -4.284206 0.009741 0 0 1 1.000000 0.653634
-7.859076 -4.442193 0.009741 -0 0 1 1.000000 0.653634
-7.784396 -4.235673 0.009741 -0 0 1 1.000000 0.705186
-7.809287 -4.19033 0.009741 -0 0 1 1.000000 0.688003
-7.809287 -4.276764 0.009741 -0 0 1 1.000000 0.688003
-7.809287 -4.449635 0.009741 0 -0 1 1.000000 0.688003
-7.809287 -4.536069 0.009741 0 -0 1 1.000000 0.688003
-7.784396 -4.490726 0.009741 0 -0 1 1.000000 0.705186
-7.834177 -4.235673 0.009741 -0 0 1 1.000000 0.670822
-7.834177 -4.490726 0.009741 0 0 1 1.000000 0.670822
-7.725236 -4.321042 0.009741 -0 0 1 1.000000 0.746024
-7.725236 -4.405357 0.009741 0 0 1 1.000000 0.746024
-7.893337 -4.321042 0.009741 -0 0 1 1.000000 0.629983
-7.893337 -4.405357 0.009741 0 0 1 1.000000 0.629983
-7.722297 -4.403177 0.009741 0 0 1 1.000000 0.748053
-7.722297 -4.323222 0.009741 -0 0 1 1.000000 0.748053
-7.896276 -4.403177 0.009741 0 -0 1 1.000000 0.627954
-7.896276 -4.323222 0.009741 -0 -0 1 1.000000 0.627954
-7.681612 -4.363199 0.009741 -0 -0 1 1.000000 0.776138
-7.936961 -4.363199 0.009741 -0 0 1 1.000000 0.599869
-8.782105 -4.231559 0.003553 -0 0 1 0.000000 0.016459
-8.627305 -4.062758 0.003553 -0 0 1 0.000000 0.123319
-8.644106 -4.062758 0.003553 -0 0 1 0.000000 0.111721
-8.667305 -4.136759 0.003553 -0 0 1 0.000000 0.095707
-8.666506 -4.136759 0.003553 -0 0 1 0.000000 0.096258
-8.627305 -4.214359 0.003553 -0 0 1 0.000000 0.123319
-8.729706 -4.214359 0.003553 0 0 1 0.000000 0.052631
-8.666506 -4.214359 0.003553 0 0 1 0.000000 0.096258
-8.598105 -4.214359 0.003553 -0 0 1 0.000000 0.143476
-8.598105 -4.249558 0.003553 0 0 1 0.000000 0.143476
-8.782105 -4.249558 0.003553 0 0 1 0.000000 0.016459
-8.666506 -4.249558 0.003553 0 0 0 0.000000 0.096258
-8.598105 -4.249558 0.003553 0 0 0 0.000000 0.143476
-8.782105 -4.249558 0.003553 0 0 0 0.000000 0.016459
-8.666506 -4.339159 0.003553 -0 0 1 0.000000 0.096258
-8.627305 -4.249558 0.003553 -0 0 1 0.000000 0.123319
-8.666506 -4.249558 0.003553 -0 0 1 0.000000 0.096258
-8.627305 -4.249558 0.003553 0 0 0 0.000000 0.123319
-8.627305 -4.339159 0.003553 0 0 1 0.000000 0.123319
-7.386702 -5.749194 0.003553 0 -0 1 0.000000 0.979717
-7.541502 -5.917994 0.003553 0 -0 1 0.000000 0.872858
-7.524702 -5.917994 0.003553 0 -0 1 0.000000 0.884455
-7.501502 -5.843994 0.003553 0 -0 1 0.000000 0.900470
-7.502302 -5.843994 0.003553 0 -0 1 0.000000 0.899917
-7.541502 -5.766394 0.003553 0 -0 1 0.000000 0.872858
-7.439102 -5.766394 0.003553 0 0 1 0.000000 0.943545
-7.502302 -5.766394 0.003553 0 -0 1 0.000000 0.899917
-7.570702 -5.766394 0.003553 0 -0 1 0.000000 0.852700
-7.570702 -5.731194 0.003553 -0 0 1 0.000000 0.852700
-7.386702 -5.731194 0.003553 0 -0 1 0.000000 0.979717
-7.502302 -5.731194 0.003553 0 0 0 0.000000 0.899917
-7.570702 -5.731194 0.003553 0 0 0 0.000000 0.852700
-7.386702 -5.731194 0.003553 0 0 0 0.000000 0.979717
-7.502302 -5.641593 0.003553 0 -0 1 0.000000 0.899917
-7.541502 -5.731194 0.003553 0 -0 1 0.000000 0.872858
-7.502302 -5.731194 0.003553 0 -0 1 0.000000 0.899917
-7.541502 -5.731194 0.003553 0 0 0 0.000000 0.872858
-7.541502 -5.641593 0.003553 0 0 1 0.000000 0.872858
-8.655122 -4.611957 0.009741 -0 0 1 1.000000 0.104117
-8.678274 -4.568739 0.009741 -0 0 1 1.000000 0.088134
-8.678274 -4.655174 0.009741 -0 0 1 1.000000 0.088134
-8.678274 -4.482305 0.009741 0 -0 1 1.000000 0.088134
-8.655122 -4.525522 0.009741 0 -0 1 1.000000 0.104117
-8.701427 -4.611957 0.009741 -0 0 1 1.000000 0.072152
-8.701427 -4.525522 0.009741 0 0 1 1.000000 0.072152
-8.657454 -4.698392 0.009741 0 0 1 1.000000 0.102507
-8.657454 -4.439087 0.009741 -0 0 1 1.000000 0.102507
-8.699093 -4.698392 0.009741 0 0 1 1.000000 0.073763
-8.699093 -4.439087 0.009741 -0 0 1 1.000000 0.073763
-8.628449 -4.655174 0.009741 -0 0 1 1.000000 0.122529
-8.628449 -4.482305 0.009741 0 0 1 1.000000 0.122529
-8.728098 -4.655174 0.009741 -0 0 1 1.000000 0.053741
-8.728098 -4.482305 0.009741 0 0 1 1.000000 0.053741
-8.678274 -4.74161 0.009741 0 -0 1 1.000000 0.088134
-8.678274 -4.39587 0.009741 -0 0 1 1.000000 0.088134
-8.630231 -4.569799 0.009741 0 0 1 1.000000 0.121299
-8.630231 -4.56768 0.009741 -0 0 1 1.000000 0.121299
-8.726316 -4.569799 0.009741 0 -0 1 1.000000 0.054970
-8.726316 -4.56768 0.009741 -0 -0 1 1.000000 0.054970
-8.653383 -4.526582 0.009741 -0 0 1 1.000000 0.105317
-8.653383 -4.610898 0.009741 0 0 1 1.000000 0.105317
-8.703164 -4.526582 0.009741 -0 0 1 1.000000 0.070953
-8.703164 -4.610898 0.009741 0 0 1 1.000000 0.070953
-8.628485 -4.489746 0.009741 0 0 1 1.000000 0.122505
-8.628485 -4.647733 0.009741 -0 0 1 1.000000 0.122505
-8.728064 -4.489746 0.009741 0 0 1 1.000000 0.053764
-8.728064 -4.647733 0.009741 -0 0 1 1.000000 0.053764
-8.653383 -4.441214 0.009741 -0 0 1 1.000000 0.105317
-8.678274 -4.39587 0.009741 -0 0 1 1.000000 0.088134
-8.678274 -4.482305 0.009741 -0 0 1 1.000000 0.088134
-8.678274 -4.655175 0.009741 0 -0 1 1.000000 0.088134
-8.678274 -4.74161 0.009741 0 -0 1 1.000000 0.088134
-8.653383 -4.696266 0.009741 0 -0 1 1.000000 0.105317
-8.703164 -4.441214 0.009741 -0 0 1 1.000000 0.070953
-8.703164 -4.696266 0.009741 0 0 1 1.000000 0.070953
-8.594224 -4.526582 0.009741 -0 0 1 1.000000 0.146155
-8.594224 -4.610898 0.009741 0 0 1 1.000000 0.146155
-8.762324 -4.526582 0.009741 -0 0 1 1.000000 0.030114
-8.762324 -4.610898 0.009741 0 0 1 1.000000 0.030114
-8.591284 -4.608717 0.009741 0 0 1 1.000000 0.148185
-8.591284 -4.528762 0.009741 -0 0 1 1.000000 0.148185
-8.765264 -4.608717 0.009741 0 -0 1 1.000000 0.028085
-8.765264 -4.528762 0.009741 -0 -0 1 1.000000 0.028085
-8.550599 -4.568739 0.009741 -0 -0 1 1.000000 0.176270
-8.805948 -4.568739 0.009741 -0 0 1 1.000000 0.000000
-7.461843 -5.47918 0.009741 -0 0 1 1.000000 0.927847
-7.484995 -5.435962 0.009741 -0 0 1 1.000000 0.911865
-7.484995 -5.522397 0.009741 -0 0 1 1.000000 0.911865
-7.484995 -5.349527 0.009741 0 -0 1 1.000000 0.911865
-7.461843 -5.392745 0.009741 0 -0 1 1.000000 0.927847
-7.508147 -5.47918 0.009741 -0 0 1 1.000000 0.895883
-7.508147 -5.392745 0.009741 0 0 1 1.000000 0.895883
-7.464176 -5.565615 0.009741 0 0 1 1.000000 0.926236
-7.464176 -5.30631 0.009741 -0 0 1 1.000000 0.926236
-7.505814 -5.565615 0.009741 0 0 1 1.000000 0.897493
-7.505814 -5.30631 0.009741 -0 0 1 1.000000 0.897493
-7.435171 -5.522397 0.009741 -0 0 1 1.000000 0.946259
-7.435171 -5.349527 0.009741 0 0 1 1.000000 0.946259
-7.534819 -5.522397 0.009741 -0 0 1 1.000000 0.877471
-7.534819 -5.349527 0.009741 0 0 1 1.000000 0.877471
-7.484995 -5.608832 0.009741 0 -0 1 1.000000 0.911865
-7.484995 -5.263093 0.009741 -0 0 1 1.000000 0.911865
-7.436952 -5.437022 0.009741 0 0 1 1.000000 0.945029
-7.436952 -5.434903 0.009741 -0 0 1 1.000000 0.945029
-7.533038 -5.437022 0.009741 0 -0 1 1.000000 0.878700
-7.533038 -5.434903 0.009741 -0 -0 1 1.000000 0.878700
-7.460104 -5.393805 0.009741 -0 0 1 1.000000 0.929047
-7.460104 -5.47812 0.009741 0 0 1 1.000000 0.929047
-7.509885 -5.393805 0.009741 -0 0 1 1.000000 0.894683
-7.509885 -5.47812 0.009741 0 0 1 1.000000 0.894683
-7.435205 -5.356969 0.009741 0 0 1 1.000000 0.946235
-7.435205 -5.514956 0.009741 -0 0 1 1.000000 0.946235
-7.534784 -5.356969 0.009741 0 0 1 1.000000 0.877495
-7.534784 -5.514956 0.009741 -0 0 1 1.000000 0.877495
-7.460104 -5.308436 0.009741 -0 0 1 1.000000 0.929047
-7.484995 -5.263093 0.009741 -0 0 1 1.000000 0.911865
-7.484995 -5.349527 0.009741 -0 0 1 1.000000 0.911865
-7.484995 -5.522397 0.009741 0 -0 1 1.000000 0.911865
-7.484995 -5.608832 0.009741 0 -0 1 1.000000 0.911865
-7.460104 -5.563488 0.009741 0 -0 1 1.000000 0.929047
-7.509885 -5.308436 0.009741 -0 0 1 1.000000 0.894683
-7.509885 -5.563488 0.009741 0 0 1 1.000000 0.894683
-7.400945 -5.393805 0.009741 -0 0 1 1.000000 0.969885
-7.400945 -5.47812 0.009741 0 0 1 1.000000 0.969885
-7.569045 -5.393805 0.009741 -0 0 1 1.000000 0.853844
-7.569045 -5.47812 0.009741 0 0 1 1.000000 0.853844
-7.398005 -5.47594 0.009741 0 0 1 1.000000 0.971915
-7.398005 -5.395985 0.009741 -0 0 1 1.000000 0.971915
-7.571985 -5.47594 0.009741 0 -0 1 1.000000 0.851815
-7.571985 -5.395985 0.009741 -0 -0 1 1.000000 0.851815
-7.35732 -5.435962 0.009741 -0 -0 1 1.000000 1.000000
-7.61267 -5.435962 0.009741 -0 0 1 1.000000 0.823730
-8.296812 -4.406417 0.009741 -0 0 1 1.000000 0.351461
-8.319965 -4.363199 0.009741 -0 0 1 1.000000 0.335478
-8.319965 -4.449635 0.009741 -0 0 1 1.000000 0.335478
-8.319965 -4.276764 0.009741 0 -0 1 1.000000 0.335478
-8.296812 -4.319982 0.009741 0 -0 1 1.000000 0.351461
-8.343118 -4.406417 0.009741 -0 0 1 1.000000 0.319496
-8.343118 -4.319982 0.009741 0 0 1 1.000000 0.319496
-8.299146 -4.492852 0.009741 0 0 1 1.000000 0.349850
-8.299146 -4.233547 0.009741 -0 0 1 1.000000 0.349850
-8.340784 -4.492852 0.009741 0 0 1 1.000000 0.321107
-8.340784 -4.233547 0.009741 -0 0 1 1.000000 0.321107
-8.270141 -4.449635 0.009741 -0 0 1 1.000000 0.369872
-8.270141 -4.276764 0.009741 0 0 1 1.000000 0.369872
-8.369789 -4.449635 0.009741 -0 0 1 1.000000 0.301084
-8.369789 -4.276764 0.009741 0 0 1 1.000000 0.301084
-8.319965 -4.536069 0.009741 0 -0 1 1.000000 0.335478
-8.319965 -4.19033 0.009741 -0 0 1 1.000000 0.335478
-8.271922 -4.364259 0.009741 0 0 1 1.000000 0.368643
-8.271922 -4.36214 0.009741 -0 0 1 1.000000 0.368643
-8.368008 -4.364259 0.009741 0 -0 1 1.000000 0.302314
-8.368008 -4.36214 0.009741 -0 -0 1 1.000000 0.302314
-8.295074 -4.321042 0.009741 -0 0 1 1.000000 0.352660
-8.295074 -4.405357 0.009741 0 0 1 1.000000 0.352660
-8.344855 -4.321042 0.009741 -0 0 1 1.000000 0.318296
-8.344855 -4.405357 0.009741 0 0 1 1.000000 0.318296
-8.270176 -4.284206 0.009741 0 0 1 1.000000 0.369848
-8.270176 -4.442193 0.009741 -0 0 1 1.000000 0.369848
-8.369754 -4.284206 0.009741 0 0 1 1.000000 0.301109
-8.369754 -4.442193 0.009741 -0 0 1 1.000000 0.301109
-8.295074 -4.235673 0.009741 -0 0 1 1.000000 0.352660
-8.319965 -4.19033 0.009741 -0 0 1 1.000000 0.335478
-8.319965 -4.276764 0.009741 -0 0 1 1.000000 0.335478
-8.319965 -4.449635 0.009741 0 -0 1 1.000000 0.335478
-8.319965 -4.536069 0.009741 0 -0 1 1.000000 0.335478
-8.295074 -4.490726 0.009741 0 -0 1 1.000000 0.352660
-8.344855 -4.235673 0.009741 -0 0 1 1.000000 0.318296
-8.344855 -4.490726 0.009741 0 0 1 1.000000 0.318296
-8.235914 -4.321042 0.009741 -0 0 1 1.000000 0.393499
-8.235914 -4.405357 0.009741 0 0 1 1.000000 0.393499
-8.404016 -4.321042 0.009741 -0 0 1 1.000000 0.277457
-8.404016 -4.405357 0.009741 0 0 1 1.000000 0.277457
-8.232975 -4.403177 0.009741 0 0 1 1.000000 0.395528
-8.232975 -4.323222 0.009741 -0 0 1 1.000000 0.395528
-8.406955 -4.403177 0.009741 0 -0 1 1.000000 0.275428
-8.406955 -4.323222 0.009741 -0 -0 1 1.000000 0.275428
-8.19229 -4.363199 0.009741 -0 -0 1 1.000000 0.423613
-8.447639 -4.363199 0.009741 -0 0 1 1.000000 0.247343
-8.296812 -5.665598 0.009741 -0 0 1 1.000000 0.351461
-8.319965 -5.622381 0.009741 -0 0 1 1.000000 0.335478
-8.319965 -5.708816 0.009741 -0 0 1 1.000000 0.335478
-8.319965 -5.535946 0.009741 0 -0 1 1.000000 0.335478
-8.296812 -5.579164 0.009741 0 -0 1 1.000000 0.351461
-8.343118 -5.665598 0.009741 -0 0 1 1.000000 0.319496
-8.343118 -5.579164 0.009741 0 0 1 1.000000 0.319496
-8.299146 -5.752033 0.009741 0 0 1 1.000000 0.349850
-8.299146 -5.492729 0.009741 -0 0 1 1.000000 0.349850
-8.340784 -5.752033 0.009741 0 0 1 1.000000 0.321107
-8.340784 -5.492729 0.009741 -0 0 1 1.000000 0.321107
-8.270141 -5.708816 0.009741 -0 0 1 1.000000 0.369872
-8.270141 -5.535946 0.009741 0 0 1 1.000000 0.369872
-8.369789 -5.708816 0.009741 -0 0 1 1.000000 0.301084
-8.369789 -5.535946 0.009741 0 0 1 1.000000 0.301084
-8.319965 -5.795251 0.009741 0 -0 1 1.000000 0.335478
-8.319965 -5.449511 0.009741 -0 0 1 1.000000 0.335478
-8.271922 -5.623441 0.009741 0 0 1 1.000000 0.368643
-8.271922 -5.621322 0.009741 -0 0 1 1.000000 0.368643
-8.368008 -5.623441 0.009741 0 -0 1 1.000000 0.302314
-8.368008 -5.621322 0.009741 -0 -0 1 1.000000 0.302314
-8.295074 -5.580223 0.009741 -0 0 1 1.000000 0.352660
-8.295074 -5.664539 0.009741 0 0 1 1.000000 0.352660
-8.344855 -5.580223 0.009741 -0 0 1 1.000000 0.318296
-8.344855 -5.664539 0.009741 0 0 1 1.000000 0.318296
-8.270176 -5.543387 0.009741 0 0 1 1.000000 0.369848
-8.270176 -5.701375 0.009741 -0 0 1 1.000000 0.369848
-8.369754 -5.543387 0.009741 0 0 1 1.000000 0.301109
-8.369754 -5.701375 0.009741 -0 0 1 1.000000 0.301109
-8.295074 -5.494855 0.009741 -0 0 1 1.000000 0.352660
-8.319965 -5.449511 0.009741 -0 0 1 1.000000 0.335478
-8.319965 -5.535946 0.009741 -0 0 1 1.000000 0.335478
-8.319965 -5.708816 0.009741 0 -0 1 1.000000 0.335478
-8.319965 -5.795251 0.009741 0 -0 1 1.000000 0.335478
-8.295074 -5.749907 0.009741 0 -0 1 1.000000 0.352660
-8.344855 -5.494855 0.009741 -0 0 1 1.000000 0.318296
-8.344855 -5.749907 0.009741 0 0 1 1.000000 0.318296
-8.235914 -5.580223 0.009741 -0 0 1 1.000000 0.393499
-8.235914 -5.664539 0.009741 0 0 1 1.000000 0.393499
-8.404016 -5.580223 0.009741 -0 0 1 1.000000 0.277457
-8.404016 -5.664539 0.009741 0 0 1 1.000000 0.277457
-8.232975 -5.662358 0.009741 0 0 1 1.000000 0.395528
-8.232975 -5.582404 0.009741 -0 0 1 1.000000 0.395528
-8.406955 -5.662358 0.009741 0 -0 1 1.000000 0.275428
-8.406955 -5.582404 0.009741 -0 -0 1 1.000000 0.275428
-8.19229 -5.622381 0.009741 -0 -0 1 1.000000 0.423613
-8.447639 -5.622381 0.009741 -0 0 1 1.000000 0.247343
3 0 1 2 
3 3 1 4 
3 2 1 5 
3 6 1 3 
3 2 7 0 
3 4 8 3 
3 5 9 2 
3 3 10 6 
3 11 0 7 
3 8 4 12 
3 9 5 13 
3 14 6 10 
3 2 15 7 
3 8 16 3 
3 9 15 2 
3 3 16 10 
3 0 11 17 
3 18 12 4 
3 19 13 5 
3 6 14 20 
3 17 21 0 
3 4 22 18 
3 5 23 19 
3 20 24 6 
3 1 0 21 
3 22 4 1 
3 23 5 1 
3 1 6 24 
3 21 17 25 
3 26 18 22 
3 27 19 23 
3 24 20 28 
3 29 30 31 
3 32 33 34 
3 31 30 35 
3 36 33 32 
3 31 21 29 
3 34 22 32 
3 35 23 31 
3 32 24 36 
3 25 29 21 
3 22 34 26 
3 23 35 27 
3 28 36 24 
3 21 31 1 
3 1 32 22 
3 1 31 23 
3 24 32 1 
3 37 25 17 
3 18 26 38 
3 19 27 39 
3 40 28 20 
3 17 41 37 
3 38 42 18 
3 39 43 19 
3 20 44 40 
3 45 37 41 
3 42 38 45 
3 43 39 46 
3 46 40 44 
3 41 17 11 
3 12 18 42 
3 13 19 43 
3 44 20 14 
3 47 48 49 
3 50 48 51 
3 49 48 52 
3 53 48 50 
3 49 54 47 
3 51 55 50 
3 52 56 49 
3 50 57 53 
3 58 47 54 
3 55 51 59 
3 56 52 60 
3 61 53 57 
3 49 62 54 
3 55 63 50 
3 56 62 49 
3 50 63 57 
3 47 58 64 
3 65 59 51 
3 66 60 52 
3 53 61 67 
3 64 68 47 
3 51 69 65 
3 52 70 66 
3 67 71 53 
3 48 47 68 
3 69 51 48 
3 70 52 48 
3 48 53 71 
3 68 64 72 
3 73 65 69 
3 74 66 70 
3 71 67 75 
3 76 77 78 
3 79 80 81 
3 78 77 82 
3 83 80 79 
3 78 68 76 
3 81 69 79 
3 82 70 78 
3 79 71 83 
3 72 76 68 
3 69 81 73 
3 70 82 74 
3 75 83 71 
3 68 78 48 
3 48 79 69 
3 48 78 70 
3 71 79 48 
3 84 72 64 
3 65 73 85 
3 66 74 86 
3 87 75 67 
3 64 88 84 
3 85 89 65 
3 86 90 66 
3 67 91 87 
3 92 84 88 
3 89 85 92 
3 90 86 93 
3 93 87 91 
3 88 64 58 
3 59 65 89 
3 60 66 90 
3 91 67 61 
3 94 95 96 
3 97 95 94 
3 98 95 97 
3 99 95 98 
3 94 100 97 
3 101 99 98 
3 94 101 100 
3 94 99 101 
3 94 102 99 
3 94 103 102 
3 104 103 94 
3 105 106 107 
3 108 109 110 
3 111 106 105 
3 108 112 109 
3 113 114 115 
3 116 114 113 
3 117 114 116 
3 118 114 117 
3 113 119 116 
3 120 118 117 
3 113 120 119 
3 113 118 120 
3 113 121 118 
3 113 122 121 
3 123 122 113 
3 124 125 126 
3 127 128 129 
3 130 125 124 
3 127 131 128 
3 132 133 134 
3 135 133 136 
3 134 133 137 
3 138 133 135 
3 134 139 132 
3 136 140 135 
3 137 141 134 
3 135 142 138 
3 143 132 139 
3 140 136 144 
3 141 137 145 
3 146 138 142 
3 134 147 139 
3 140 148 135 
3 141 147 134 
3 135 148 142 
3 132 143 149 
3 150 144 136 
3 151 145 137 
3 138 146 152 
3 149 153 132 
3 136 154 150 
3 137 155 151 
3 152 156 138 
3 133 132 153 
3 154 136 133 
3 155 137 133 
3 133 138 156 
3 153 149 157 
3 158 150 154 
3 159 151 155 
3 156 152 160 
3 161 162 163 
3 164 165 166 
3 163 162 167 
3 168 165 164 
3 163 153 161 
3 166 154 164 
3 167 155 163 
3 164 156 168 
3 157 161 153 
3 154 166 158 
3 155 167 159 
3 160 168 156 
3 153 163 133 
3 133 164 154 
3 133 163 155 
3 156 164 133 
3 169 157 149 
3 150 158 170 
3 151 159 171 
3 172 160 152 
3 149 173 169 
3 170 174 150 
3 171 175 151 
3 152 176 172 
3 177 169 173 
3 174 170 177 
3 175 171 178 
3 178 172 176 
3 173 149 143 
3 144 150 174 
3 145 151 175 
3 176 152 146 
3 179 180 181 
3 182 180 183 
3 181 180 184 
3 185 180 182 
3 181 186 179 
3 183 187 182 
3 184 188 181 
3 182 189 185 
3 190 179 186 
3 187 183 191 
3 188 184 192 
3 193 185 189 
3 181 194 186 
3 187 195 182 
3 188 194 181 
3 182 195 189 
3 179 190 196 
3 197 191 183 
3 198 192 184 
3 185 193 199 
3 196 200 179 
3 183 201 197 
3 184 202 198 
3 199 203 185 
3 180 179 200 
3 201 183 180 
3 202 184 180 
3 180 185 203 
3 200 196 204 
3 205 197 201 
3 206 198 202 
3 203 199 207 
3 208 209 210 
3 211 212 213 
3 210 209 214 
3 215 212 211 
3 210 200 208 
3 213 201 211 
3 214 202 210 
3 211 203 215 
3 204 208 200 
3 201 213 205 
3 202 214 206 
3 207 215 203 
3 200 210 180 
3 180 211 201 
3 180 210 202 
3 203 211 180 
3 216 204 196 
3 197 205 217 
3 198 206 218 
3 219 207 199 
3 196 220 216 
3 217 221 197 
3 218 222 198 
3 199 223 219 
3 224 216 220 
3 221 217 224 
3 222 218 225 
3 225 219 223 
3 220 196 190 
3 191 197 221 
3 192 198 222 
3 223 199 193 
3 226 227 228 
3 229 227 230 
3 228 227 231 
3 232 227 229 
3 228 233 226 
3 230 234 229 
3 231 235 228 
3 229 236 232 
3 237 226 233 
3 234 230 238 
3 235 231 239 
3 240 232 236 
3 228 241 233 
3 234 242 229 
3 235 241 228 
3 229 242 236 
3 226 237 243 
3 244 238 230 
3 245 239 231 
3 232 240 246 
3 243 247 226 
3 230 248 244 
3 231 249 245 
3 246 250 232 
3 227 226 247 
3 248 230 227 
3 249 231 227 
3 227 232 250 
3 247 243 251 
3 252 244 248 
3 253 245 249 
3 250 246 254 
3 255 256 257 
3 258 259 260 
3 257 256 261 
3 262 259 258 
3 257 247 255 
3 260 248 258 
3 261 249 257 
3 258 250 262 
3 251 255 247 
3 248 260 252 
3 249 261 253 
3 254 262 250 
3 247 257 227 
3 227 258 248 
3 227 257 249 
3 250 258 227 
3 263 251 243 
3 244 252 264 
3 245 253 265 
3 266 254 246 
3 243 267 263 
3 264 268 244 
3 265 269 245 
3 246 270 266 
3 271 263 267 
3 268 264 271 
3 269 265 272 
3 272 266 270 
3 267 243 237 
3 238 244 268 
3 239 245 269 
3 270 246 240 
3 273 274 275 
3 276 274 277 
3 275 274 278 
3 279 274 276 
3 275 280 273 
3 277 281 276 
3 278 282 275 
3 276 283 279 
3 284 273 280 
3 281 277 285 
3 282 278 286 
3 287 279 283 
3 275 288 280 
3 281 289 276 
3 282 288 275 
3 276 289 283 
3 273 284 290 
3 291 285 277 
3 292 286 278 
3 279 287 293 
3 290 294 273 
3 277 295 291 
3 278 296 292 
3 293 297 279 
3 274 273 294 
3 295 277 274 
3 296 278 274 
3 274 279 297 
3 294 290 298 
3 299 291 295 
3 300 292 296 
3 297 293 301 
3 302 303 304 
3 305 306 307 
3 304 303 308 
3 309 306 305 
3 304 294 302 
3 307 295 305 
3 308 296 304 
3 305 297 309 
3 298 302 294 
3 295 307 299 
3 296 308 300 
3 301 309 297 
3 294 304 274 
3 274 305 295 
3 274 304 296 
3 297 305 274 
3 310 298 290 
3 291 299 311 
3 292 300 312 
3 313 301 293 
3 290 314 310 
3 311 315 291 
3 312 316 292 
3 293 317 313 
3 318 310 314 
3 315 311 318 
3 316 312 319 
3 319 313 317 
3 314 290 284 
3 285 291 315 
3 286 292 316 
3 317 293 287 
