ply
format ascii 1.0
comment VCGLIB generated
comment TextureFile RedTex.bmp
element vertex 485
property float x
property float y
property float z
property float nx
property float ny
property float nz
property float texture_u
property float texture_v
element face 600
property list uchar int vertex_indices
end_header
-6.044963 -5.048548 0.009741 -0 0 1 1.000000 0.525314
-6.068116 -5.005331 0.009741 -0 0 1 1.000000 0.509331
-6.068116 -5.091766 0.009741 -0 0 1 1.000000 0.509331
-6.068116 -4.918896 0.009741 0 -0 1 1.000000 0.509331
-6.044963 -4.962113 0.009741 0 -0 1 1.000000 0.525314
-6.091268 -5.048548 0.009741 -0 0 1 1.000000 0.493349
-6.091268 -4.962113 0.009741 0 0 1 1.000000 0.493349
-6.047297 -5.134983 0.009741 0 0 1 1.000000 0.523703
-6.047297 -4.875679 0.009741 -0 0 1 1.000000 0.523703
-6.088934 -5.134983 0.009741 0 0 1 1.000000 0.494961
-6.088934 -4.875679 0.009741 -0 0 1 1.000000 0.494961
-6.018291 -5.091766 0.009741 -0 0 1 1.000000 0.543726
-6.018291 -4.918896 0.009741 0 0 1 1.000000 0.543726
-6.11794 -5.091766 0.009741 -0 0 1 1.000000 0.474938
-6.11794 -4.918896 0.009741 0 0 1 1.000000 0.474938
-6.068116 -5.178201 0.009741 0 -0 1 1.000000 0.509331
-6.068116 -4.832461 0.009741 -0 0 1 1.000000 0.509331
-6.020073 -5.00639 0.009741 0 0 1 1.000000 0.542496
-6.020073 -5.004271 0.009741 -0 0 1 1.000000 0.542496
-6.116158 -5.00639 0.009741 0 -0 1 1.000000 0.476168
-6.116158 -5.004271 0.009741 -0 -0 1 1.000000 0.476168
-6.043225 -4.963173 0.009741 -0 0 1 1.000000 0.526514
-6.043225 -5.047489 0.009741 0 0 1 1.000000 0.526514
-6.093006 -4.963173 0.009741 -0 0 1 1.000000 0.492150
-6.093006 -5.047489 0.009741 0 0 1 1.000000 0.492150
-6.018326 -4.926337 0.009741 0 0 1 1.000000 0.543702
-6.018326 -5.084324 0.009741 -0 0 1 1.000000 0.543702
-6.117905 -4.926337 0.009741 0 0 1 1.000000 0.474962
-6.117905 -5.084324 0.009741 -0 0 1 1.000000 0.474962
-6.043225 -4.877805 0.009741 -0 0 1 1.000000 0.526514
-6.068116 -4.832461 0.009741 -0 0 1 1.000000 0.509331
-6.068116 -4.918896 0.009741 -0 0 1 1.000000 0.509331
-6.068116 -5.091766 0.009741 0 -0 1 1.000000 0.509331
-6.068116 -5.178201 0.009741 0 -0 1 1.000000 0.509331
-6.043225 -5.132857 0.009741 0 -0 1 1.000000 0.526514
-6.093006 -4.877805 0.009741 -0 0 1 1.000000 0.492150
-6.093006 -5.132857 0.009741 0 0 1 1.000000 0.492150
-5.984066 -4.963173 0.009741 -0 0 1 1.000000 0.567352
-5.984066 -5.047489 0.009741 0 0 1 1.000000 0.567352
-6.152166 -4.963173 0.009741 -0 0 1 1.000000 0.451311
-6.152166 -5.047489 0.009741 0 0 1 1.000000 0.451311
-5.981126 -5.045308 0.009741 0 0 1 1.000000 0.569381
-5.981126 -4.965353 0.009741 -0 0 1 1.000000 0.569381
-6.155106 -5.045308 0.009741 0 -0 1 1.000000 0.449281
-6.155106 -4.965353 0.009741 -0 -0 1 1.000000 0.449281
-5.940441 -5.005331 0.009741 -0 -0 1 1.000000 0.597466
-6.19579 -5.005331 0.009741 -0 0 1 1.000000 0.421197
-6.720441 -4.214774 0.003553 0 0 1 0.000000 0.059026
-6.684841 -4.107974 0.003553 0 0 1 0.000000 0.083601
-6.720441 -4.072774 0.003553 0 0 1 0.000000 0.059026
-6.599241 -4.072774 0.003553 -0 0 1 0.000000 0.142692
-6.599241 -4.107974 0.003553 -0 0 1 0.000000 0.142692
-6.684841 -4.176374 0.003553 0 0 1 0.000000 0.083601
-6.656104 -4.177965 0.003553 0 0 1 0.000000 0.103438
-6.669949 -4.17634 0.003553 0 0 1 0.000000 0.093881
-6.643354 -4.181143 0.003553 0 0 1 0.000000 0.112240
-6.631745 -4.185767 0.003553 0 0 1 0.000000 0.120254
-6.621325 -4.19173 0.003553 0 0 1 0.000000 0.127447
-6.705956 -4.212029 0.003553 0 0 1 0.000000 0.069025
-6.612141 -4.198924 0.003553 0 0 1 0.000000 0.133786
-6.692526 -4.210913 0.003553 0 0 1 0.000000 0.078296
-6.604241 -4.207244 0.003553 0 0 1 0.000000 0.139240
-6.680191 -4.211305 0.003553 0 0 1 0.000000 0.086811
-6.597671 -4.216581 0.003553 0 0 1 0.000000 0.143775
-6.668989 -4.213085 0.003553 0 0 1 0.000000 0.094544
-6.65896 -4.216132 0.003553 0 0 1 0.000000 0.101467
-6.650141 -4.220324 0.003553 0 0 1 0.000000 0.107555
-6.592479 -4.22683 0.003553 0 0 1 0.000000 0.147359
-6.642573 -4.225542 0.003553 0 0 1 0.000000 0.112779
-6.636293 -4.231663 0.003553 0 0 1 0.000000 0.117114
-6.588712 -4.237884 0.003553 0 0 1 0.000000 0.149960
-6.631341 -4.238568 0.003553 0 0 1 0.000000 0.120533
-6.586417 -4.249634 0.003553 0 0 1 0.000000 0.151544
-6.627756 -4.246135 0.003553 0 0 1 0.000000 0.123007
-6.625576 -4.254244 0.003553 0 0 1 0.000000 0.124512
-6.585641 -4.261974 0.003553 0 0 1 0.000000 0.152080
-6.624841 -4.262774 0.003553 0 0 1 0.000000 0.125019
-6.586411 -4.274277 0.003553 0 0 1 0.000000 0.151548
-6.625363 -4.269372 0.003553 0 0 1 0.000000 0.124659
-6.62688 -4.275724 0.003553 0 0 1 0.000000 0.123612
-6.588665 -4.285933 0.003553 0 0 1 0.000000 0.149992
-6.629323 -4.281768 0.003553 0 0 1 0.000000 0.121926
-6.632619 -4.287441 0.003553 0 0 1 0.000000 0.119650
-6.592322 -4.296862 0.003553 0 0 1 0.000000 0.147468
-6.636699 -4.29268 0.003553 0 0 1 0.000000 0.116834
-6.740841 -4.332374 0.003553 0 0 1 0.000000 0.044944
-6.735933 -4.29514 0.003553 0 0 1 0.000000 0.048332
-6.740841 -4.291974 0.003553 0 0 1 0.000000 0.044944
-6.641491 -4.297424 0.003553 0 0 1 0.000000 0.113526
-6.73101 -4.298039 0.003553 0 0 1 0.000000 0.051730
-6.597301 -4.306982 0.003553 0 0 1 0.000000 0.144031
-6.646925 -4.30161 0.003553 0 0 1 0.000000 0.109775
-6.726072 -4.300668 0.003553 0 0 1 0.000000 0.055139
-6.721123 -4.303026 0.003553 0 0 1 0.000000 0.058555
-6.65293 -4.305174 0.003553 0 0 1 0.000000 0.105630
-6.716162 -4.305112 0.003553 0 0 1 0.000000 0.061980
-6.711191 -4.306924 0.003553 0 0 1 0.000000 0.065411
-6.659435 -4.308055 0.003553 0 0 1 0.000000 0.101139
-6.706213 -4.308461 0.003553 0 0 1 0.000000 0.068848
-6.603518 -4.316213 0.003553 0 0 1 0.000000 0.139739
-6.666369 -4.310191 0.003553 0 0 1 0.000000 0.096352
-6.701226 -4.309722 0.003553 0 0 1 0.000000 0.072290
-6.696235 -4.310705 0.003553 0 0 1 0.000000 0.075736
-6.673661 -4.311518 0.003553 0 0 1 0.000000 0.091319
-6.691239 -4.311409 0.003553 0 0 1 0.000000 0.079185
-6.686241 -4.311832 0.003553 0 0 1 0.000000 0.082634
-6.681241 -4.311974 0.003553 0 0 1 0.000000 0.086086
-6.610891 -4.324474 0.003553 0 0 1 0.000000 0.134649
-6.61934 -4.331686 0.003553 0 0 1 0.000000 0.128817
-6.628782 -4.337767 0.003553 0 0 1 0.000000 0.122299
-6.735036 -4.335226 0.003553 0 0 1 0.000000 0.048951
-6.729397 -4.337785 0.003553 0 0 1 0.000000 0.052844
-6.639135 -4.342637 0.003553 0 0 1 0.000000 0.115152
-6.723891 -4.340062 0.003553 0 0 1 0.000000 0.056645
-6.718486 -4.342063 0.003553 0 0 1 0.000000 0.060376
-6.713147 -4.343798 0.003553 0 0 1 0.000000 0.064061
-6.650317 -4.346215 0.003553 0 0 1 0.000000 0.107433
-6.707841 -4.345274 0.003553 0 0 1 0.000000 0.067724
-6.702536 -4.3465 0.003553 0 0 1 0.000000 0.071386
-6.662247 -4.348421 0.003553 0 0 1 0.000000 0.099198
-6.697197 -4.347485 0.003553 0 0 1 0.000000 0.075072
-6.691791 -4.348237 0.003553 0 0 1 0.000000 0.078803
-6.686285 -4.348763 0.003553 0 0 1 0.000000 0.082604
-6.674841 -4.349174 0.003553 0 0 1 0.000000 0.090504
-6.680647 -4.349072 0.003553 0 0 1 0.000000 0.086496
-5.416526 -5.784408 0.003553 0 -0 1 0.000000 0.959130
-5.452126 -5.891208 0.003553 0 -0 1 0.000000 0.934555
-5.416526 -5.926407 0.003553 0 -0 1 0.000000 0.959130
-5.537725 -5.926407 0.003553 0 -0 1 0.000000 0.875465
-5.537725 -5.891208 0.003553 0 -0 1 0.000000 0.875465
-5.452126 -5.822807 0.003553 0 0 1 0.000000 0.934555
-5.480863 -5.821217 0.003553 -0 -0 1 0.000000 0.914717
-5.467018 -5.822842 0.003553 -0 -0 1 0.000000 0.924274
-5.493613 -5.818039 0.003553 0 -0 1 0.000000 0.905916
-5.505222 -5.813415 0.003553 0 -0 1 0.000000 0.897902
-5.515642 -5.807452 0.003553 0 -0 1 0.000000 0.890709
-5.431011 -5.787153 0.003553 0 0 1 0.000000 0.949130
-5.524826 -5.800258 0.003553 0 -0 1 0.000000 0.884369
-5.44444 -5.788269 0.003553 0 0 1 0.000000 0.939860
-5.532726 -5.791938 0.003553 0 -0 1 0.000000 0.878916
-5.456776 -5.787876 0.003553 -0 0 1 0.000000 0.931344
-5.539296 -5.7826 0.003553 -0 -0 1 0.000000 0.874380
-5.467978 -5.786097 0.003553 -0 -0 1 0.000000 0.923612
-5.478007 -5.78305 0.003553 -0 -0 1 0.000000 0.916689
-5.486825 -5.778857 0.003553 0 -0 1 0.000000 0.910601
-5.544488 -5.772351 0.003553 -0 -0 1 0.000000 0.870796
-5.494394 -5.77364 0.003553 -0 -0 1 0.000000 0.905377
-5.500674 -5.767519 0.003553 0 -0 1 0.000000 0.901042
-5.548255 -5.761298 0.003553 -0 -0 1 0.000000 0.868196
-5.505626 -5.760613 0.003553 0 -0 1 0.000000 0.897623
-5.55055 -5.749548 0.003553 -0 -0 1 0.000000 0.866612
-5.509211 -5.753047 0.003553 -0 -0 1 0.000000 0.895148
-5.51139 -5.744937 0.003553 0 -0 1 0.000000 0.893644
-5.551326 -5.737207 0.003553 -0 -0 1 0.000000 0.866076
-5.512125 -5.736407 0.003553 0 -0 1 0.000000 0.893137
-5.550556 -5.724904 0.003553 -0 0 1 0.000000 0.866607
-5.511604 -5.72981 0.003553 -0 -0 1 0.000000 0.893496
-5.510087 -5.723457 0.003553 0 -0 1 0.000000 0.894544
-5.548302 -5.713248 0.003553 -0 0 1 0.000000 0.868163
-5.507645 -5.717414 0.003553 -0 -0 1 0.000000 0.896229
-5.504348 -5.711741 0.003553 0 -0 1 0.000000 0.898505
-5.544644 -5.70232 0.003553 -0 0 1 0.000000 0.870689
-5.500268 -5.706501 0.003553 -0 -0 1 0.000000 0.901322
-5.396126 -5.666807 0.003553 0 -0 1 0.000000 0.973212
-5.401034 -5.704041 0.003553 0 -0 1 0.000000 0.969824
-5.396126 -5.707208 0.003553 0 -0 1 0.000000 0.973212
-5.495476 -5.701757 0.003553 0 -0 1 0.000000 0.904630
-5.405957 -5.701143 0.003553 0 -0 1 0.000000 0.966425
-5.539666 -5.6922 0.003553 -0 0 1 0.000000 0.874125
-5.490042 -5.697572 0.003553 -0 -0 1 0.000000 0.908381
-5.410894 -5.698514 0.003553 0 -0 1 0.000000 0.963017
-5.415844 -5.696156 0.003553 0 -0 1 0.000000 0.959600
-5.484037 -5.694007 0.003553 -0 -0 1 0.000000 0.912526
-5.420805 -5.69407 0.003553 0 -0 1 0.000000 0.956176
-5.425776 -5.692257 0.003553 0 -0 1 0.000000 0.952744
-5.477532 -5.691126 0.003553 0 -0 1 0.000000 0.917017
-5.430755 -5.69072 0.003553 0 -0 1 0.000000 0.949307
-5.53345 -5.682969 0.003553 -0 0 1 0.000000 0.878416
-5.470598 -5.688991 0.003553 -0 -0 1 0.000000 0.921803
-5.43574 -5.689459 0.003553 0 -0 1 0.000000 0.945866
-5.440732 -5.688476 0.003553 0 -0 1 0.000000 0.942420
-5.463305 -5.687664 0.003553 -0 -0 1 0.000000 0.926838
-5.445727 -5.687772 0.003553 0 -0 1 0.000000 0.938972
-5.450726 -5.687349 0.003553 0 -0 1 0.000000 0.935521
-5.455726 -5.687207 0.003553 -0 -0 1 0.000000 0.932069
-5.526076 -5.674707 0.003553 0 0 1 0.000000 0.883506
-5.517627 -5.667496 0.003553 0 0 1 0.000000 0.889339
-5.508185 -5.661415 0.003553 -0 0 1 0.000000 0.895857
-5.401931 -5.663956 0.003553 -0 -0 1 0.000000 0.969205
-5.40757 -5.661397 0.003553 0 -0 1 0.000000 0.965312
-5.497832 -5.656545 0.003553 -0 0 1 0.000000 0.903003
-5.413075 -5.65912 0.003553 -0 -0 1 0.000000 0.961512
-5.418481 -5.657119 0.003553 -0 -0 1 0.000000 0.957780
-5.42382 -5.655384 0.003553 0 -0 1 0.000000 0.954094
-5.48665 -5.652966 0.003553 -0 0 1 0.000000 0.910722
-5.429126 -5.653907 0.003553 -0 -0 1 0.000000 0.950432
-5.434431 -5.652681 0.003553 0 -0 1 0.000000 0.946769
-5.47472 -5.650761 0.003553 -0 0 1 0.000000 0.918958
-5.43977 -5.651696 0.003553 -0 -0 1 0.000000 0.943084
-5.445176 -5.650945 0.003553 -0 -0 1 0.000000 0.939352
-5.450681 -5.650418 0.003553 0 -0 1 0.000000 0.935552
-5.462126 -5.650007 0.003553 -0 0 1 0.000000 0.927652
-5.45632 -5.650109 0.003553 -0 -0 1 0.000000 0.931659
-6.296812 -5.665598 0.009741 -0 0 1 1.000000 0.351461
-6.319964 -5.622381 0.009741 -0 0 1 1.000000 0.335479
-6.319964 -5.708816 0.009741 -0 0 1 1.000000 0.335479
-6.319964 -5.535945 0.009741 0 -0 1 1.000000 0.335479
-6.296812 -5.579163 0.009741 0 -0 1 1.000000 0.351461
-6.343117 -5.665598 0.009741 -0 0 1 1.000000 0.319496
-6.343117 -5.579163 0.009741 0 0 1 1.000000 0.319496
-6.299145 -5.752033 0.009741 0 0 1 1.000000 0.349850
-6.299145 -5.492728 0.009741 -0 0 1 1.000000 0.349850
-6.340784 -5.752033 0.009741 0 0 1 1.000000 0.321106
-6.340784 -5.492728 0.009741 -0 0 1 1.000000 0.321106
-6.27014 -5.708816 0.009741 -0 0 1 1.000000 0.369872
-6.27014 -5.535945 0.009741 0 0 1 1.000000 0.369872
-6.369789 -5.708816 0.009741 -0 0 1 1.000000 0.301084
-6.369789 -5.535945 0.009741 0 0 1 1.000000 0.301084
-6.319964 -5.79525 0.009741 0 -0 1 1.000000 0.335479
-6.319964 -5.449511 0.009741 -0 0 1 1.000000 0.335479
-6.271922 -5.62344 0.009741 0 0 1 1.000000 0.368642
-6.271922 -5.621321 0.009741 -0 0 1 1.000000 0.368642
-6.368007 -5.62344 0.009741 0 -0 1 1.000000 0.302314
-6.368007 -5.621321 0.009741 -0 -0 1 1.000000 0.302314
-6.295074 -5.580223 0.009741 -0 0 1 1.000000 0.352660
-6.295074 -5.664538 0.009741 0 0 1 1.000000 0.352660
-6.344855 -5.580223 0.009741 -0 0 1 1.000000 0.318296
-6.344855 -5.664538 0.009741 0 0 1 1.000000 0.318296
-6.270175 -5.543387 0.009741 0 0 1 1.000000 0.369848
-6.270175 -5.701374 0.009741 -0 0 1 1.000000 0.369848
-6.369754 -5.543387 0.009741 0 0 1 1.000000 0.301108
-6.369754 -5.701374 0.009741 -0 0 1 1.000000 0.301108
-6.295074 -5.494854 0.009741 -0 0 1 1.000000 0.352660
-6.319964 -5.449511 0.009741 -0 0 1 1.000000 0.335479
-6.319964 -5.535945 0.009741 -0 0 1 1.000000 0.335479
-6.319964 -5.708816 0.009741 0 -0 1 1.000000 0.335479
-6.319964 -5.79525 0.009741 0 -0 1 1.000000 0.335479
-6.295074 -5.749907 0.009741 0 -0 1 1.000000 0.352660
-6.344855 -5.494854 0.009741 -0 0 1 1.000000 0.318296
-6.344855 -5.749907 0.009741 0 0 1 1.000000 0.318296
-6.235914 -5.580223 0.009741 -0 0 1 1.000000 0.393499
-6.235914 -5.664538 0.009741 0 0 1 1.000000 0.393499
-6.404015 -5.580223 0.009741 -0 0 1 1.000000 0.277458
-6.404015 -5.664538 0.009741 0 0 1 1.000000 0.277458
-6.232975 -5.662358 0.009741 0 0 1 1.000000 0.395528
-6.232975 -5.582403 0.009741 -0 0 1 1.000000 0.395528
-6.406954 -5.662358 0.009741 0 -0 1 1.000000 0.275429
-6.406954 -5.582403 0.009741 -0 -0 1 1.000000 0.275429
-6.19229 -5.622381 0.009741 -0 -0 1 1.000000 0.423613
-6.447639 -5.622381 0.009741 -0 0 1 1.000000 0.247344
-6.296812 -4.406416 0.009741 -0 0 1 1.000000 0.351461
-6.319964 -4.363199 0.009741 -0 0 1 1.000000 0.335479
-6.319964 -4.449634 0.009741 -0 0 1 1.000000 0.335479
-6.319964 -4.276764 0.009741 0 -0 1 1.000000 0.335479
-6.296812 -4.319982 0.009741 0 -0 1 1.000000 0.351461
-6.343117 -4.406416 0.009741 -0 0 1 1.000000 0.319496
-6.343117 -4.319982 0.009741 0 0 1 1.000000 0.319496
-6.299145 -4.492851 0.009741 0 0 1 1.000000 0.349850
-6.299145 -4.233546 0.009741 -0 0 1 1.000000 0.349850
-6.340784 -4.492851 0.009741 0 0 1 1.000000 0.321106
-6.340784 -4.233546 0.009741 -0 0 1 1.000000 0.321106
-6.27014 -4.449634 0.009741 -0 0 1 1.000000 0.369872
-6.27014 -4.276764 0.009741 0 0 1 1.000000 0.369872
-6.369789 -4.449634 0.009741 -0 0 1 1.000000 0.301084
-6.369789 -4.276764 0.009741 0 0 1 1.000000 0.301084
-6.319964 -4.536069 0.009741 0 -0 1 1.000000 0.335479
-6.319964 -4.190329 0.009741 -0 0 1 1.000000 0.335479
-6.271922 -4.364259 0.009741 0 0 1 1.000000 0.368642
-6.271922 -4.362139 0.009741 -0 0 1 1.000000 0.368642
-6.368007 -4.364259 0.009741 0 -0 1 1.000000 0.302314
-6.368007 -4.362139 0.009741 -0 -0 1 1.000000 0.302314
-6.295074 -4.321041 0.009741 -0 0 1 1.000000 0.352660
-6.295074 -4.405357 0.009741 0 0 1 1.000000 0.352660
-6.344855 -4.321041 0.009741 -0 0 1 1.000000 0.318296
-6.344855 -4.405357 0.009741 0 0 1 1.000000 0.318296
-6.270175 -4.284205 0.009741 0 0 1 1.000000 0.369848
-6.270175 -4.442193 0.009741 -0 0 1 1.000000 0.369848
-6.369754 -4.284205 0.009741 0 0 1 1.000000 0.301108
-6.369754 -4.442193 0.009741 -0 0 1 1.000000 0.301108
-6.295074 -4.235673 0.009741 -0 0 1 1.000000 0.352660
-6.319964 -4.190329 0.009741 -0 0 1 1.000000 0.335479
-6.319964 -4.276764 0.009741 -0 0 1 1.000000 0.335479
-6.319964 -4.449634 0.009741 0 -0 1 1.000000 0.335479
-6.319964 -4.536069 0.009741 0 -0 1 1.000000 0.335479
-6.295074 -4.490725 0.009741 0 -0 1 1.000000 0.352660
-6.344855 -4.235673 0.009741 -0 0 1 1.000000 0.318296
-6.344855 -4.490725 0.009741 0 0 1 1.000000 0.318296
-6.235914 -4.321041 0.009741 -0 0 1 1.000000 0.393499
-6.235914 -4.405357 0.009741 0 0 1 1.000000 0.393499
-6.404015 -4.321041 0.009741 -0 0 1 1.000000 0.277458
-6.404015 -4.405357 0.009741 0 0 1 1.000000 0.277458
-6.232975 -4.403176 0.009741 0 0 1 1.000000 0.395528
-6.232975 -4.323222 0.009741 -0 0 1 1.000000 0.395528
-6.406954 -4.403176 0.009741 0 -0 1 1.000000 0.275429
-6.406954 -4.323222 0.009741 -0 -0 1 1.000000 0.275429
-6.19229 -4.363199 0.009741 -0 -0 1 1.000000 0.423613
-6.447639 -4.363199 0.009741 -0 0 1 1.000000 0.247344
-5.461842 -5.479179 0.009741 -0 0 1 1.000000 0.927847
-5.484994 -5.435962 0.009741 -0 0 1 1.000000 0.911865
-5.484994 -5.522397 0.009741 -0 0 1 1.000000 0.911865
-5.484994 -5.349527 0.009741 0 -0 1 1.000000 0.911865
-5.461842 -5.392745 0.009741 0 -0 1 1.000000 0.927847
-5.508147 -5.479179 0.009741 -0 0 1 1.000000 0.895883
-5.508147 -5.392745 0.009741 0 0 1 1.000000 0.895883
-5.464175 -5.565614 0.009741 0 0 1 1.000000 0.926237
-5.464175 -5.306309 0.009741 -0 0 1 1.000000 0.926237
-5.505814 -5.565614 0.009741 0 0 1 1.000000 0.897493
-5.505814 -5.306309 0.009741 -0 0 1 1.000000 0.897493
-5.43517 -5.522397 0.009741 -0 0 1 1.000000 0.946259
-5.43517 -5.349527 0.009741 0 0 1 1.000000 0.946259
-5.534819 -5.522397 0.009741 -0 0 1 1.000000 0.877471
-5.534819 -5.349527 0.009741 0 0 1 1.000000 0.877471
-5.484994 -5.608832 0.009741 0 -0 1 1.000000 0.911865
-5.484994 -5.263092 0.009741 -0 0 1 1.000000 0.911865
-5.436952 -5.437021 0.009741 0 0 1 1.000000 0.945029
-5.436952 -5.434902 0.009741 -0 0 1 1.000000 0.945029
-5.533037 -5.437021 0.009741 0 -0 1 1.000000 0.878701
-5.533037 -5.434902 0.009741 -0 -0 1 1.000000 0.878701
-5.460104 -5.393804 0.009741 -0 0 1 1.000000 0.929047
-5.460104 -5.47812 0.009741 0 0 1 1.000000 0.929047
-5.509885 -5.393804 0.009741 -0 0 1 1.000000 0.894683
-5.509885 -5.47812 0.009741 0 0 1 1.000000 0.894683
-5.435205 -5.356968 0.009741 0 0 1 1.000000 0.946235
-5.435205 -5.514955 0.009741 -0 0 1 1.000000 0.946235
-5.534784 -5.356968 0.009741 0 0 1 1.000000 0.877495
-5.534784 -5.514955 0.009741 -0 0 1 1.000000 0.877495
-5.460104 -5.308436 0.009741 -0 0 1 1.000000 0.929047
-5.484994 -5.263092 0.009741 -0 0 1 1.000000 0.911865
-5.484994 -5.349527 0.009741 -0 0 1 1.000000 0.911865
-5.484994 -5.522397 0.009741 0 -0 1 1.000000 0.911865
-5.484994 -5.608832 0.009741 0 -0 1 1.000000 0.911865
-5.460104 -5.563488 0.009741 0 -0 1 1.000000 0.929047
-5.509885 -5.308436 0.009741 -0 0 1 1.000000 0.894683
-5.509885 -5.563488 0.009741 0 0 1 1.000000 0.894683
-5.400944 -5.393804 0.009741 -0 0 1 1.000000 0.969886
-5.400944 -5.47812 0.009741 0 0 1 1.000000 0.969886
-5.569045 -5.393804 0.009741 -0 0 1 1.000000 0.853844
-5.569045 -5.47812 0.009741 0 0 1 1.000000 0.853844
-5.398005 -5.475939 0.009741 0 0 1 1.000000 0.971915
-5.398005 -5.395984 0.009741 -0 0 1 1.000000 0.971915
-5.571984 -5.475939 0.009741 0 -0 1 1.000000 0.851816
-5.571984 -5.395984 0.009741 -0 -0 1 1.000000 0.851816
-5.35732 -5.435962 0.009741 -0 -0 1 1.000000 1.000000
-5.612669 -5.435962 0.009741 -0 0 1 1.000000 0.823730
-6.655121 -4.611957 0.009741 -0 0 1 1.000000 0.104117
-6.678273 -4.568739 0.009741 -0 0 1 1.000000 0.088135
-6.678273 -4.655174 0.009741 -0 0 1 1.000000 0.088135
-6.678273 -4.482304 0.009741 0 -0 1 1.000000 0.088135
-6.655121 -4.525522 0.009741 0 -0 1 1.000000 0.104117
-6.701426 -4.611957 0.009741 -0 0 1 1.000000 0.072152
-6.701426 -4.525522 0.009741 0 0 1 1.000000 0.072152
-6.657454 -4.698391 0.009741 0 0 1 1.000000 0.102506
-6.657454 -4.439087 0.009741 -0 0 1 1.000000 0.102506
-6.699092 -4.698391 0.009741 0 0 1 1.000000 0.073764
-6.699092 -4.439087 0.009741 -0 0 1 1.000000 0.073764
-6.628449 -4.655174 0.009741 -0 0 1 1.000000 0.122529
-6.628449 -4.482304 0.009741 0 0 1 1.000000 0.122529
-6.728097 -4.655174 0.009741 -0 0 1 1.000000 0.053741
-6.728097 -4.482304 0.009741 0 0 1 1.000000 0.053741
-6.678273 -4.741609 0.009741 0 -0 1 1.000000 0.088135
-6.678273 -4.395869 0.009741 -0 0 1 1.000000 0.088135
-6.630231 -4.569798 0.009741 0 0 1 1.000000 0.121299
-6.630231 -4.567679 0.009741 -0 0 1 1.000000 0.121299
-6.726316 -4.569798 0.009741 0 -0 1 1.000000 0.054971
-6.726316 -4.567679 0.009741 -0 -0 1 1.000000 0.054971
-6.653383 -4.526581 0.009741 -0 0 1 1.000000 0.105317
-6.653383 -4.610897 0.009741 0 0 1 1.000000 0.105317
-6.703164 -4.526581 0.009741 -0 0 1 1.000000 0.070952
-6.703164 -4.610897 0.009741 0 0 1 1.000000 0.070952
-6.628484 -4.489746 0.009741 0 0 1 1.000000 0.122505
-6.628484 -4.647733 0.009741 -0 0 1 1.000000 0.122505
-6.728063 -4.489746 0.009741 0 0 1 1.000000 0.053764
-6.728063 -4.647733 0.009741 -0 0 1 1.000000 0.053764
-6.653383 -4.441213 0.009741 -0 0 1 1.000000 0.105317
-6.678273 -4.395869 0.009741 -0 0 1 1.000000 0.088135
-6.678273 -4.482304 0.009741 -0 0 1 1.000000 0.088135
-6.678273 -4.655174 0.009741 0 -0 1 1.000000 0.088135
-6.678273 -4.741609 0.009741 0 -0 1 1.000000 0.088135
-6.653383 -4.696265 0.009741 0 -0 1 1.000000 0.105317
-6.703164 -4.441213 0.009741 -0 0 1 1.000000 0.070952
-6.703164 -4.696265 0.009741 0 0 1 1.000000 0.070952
-6.594223 -4.526581 0.009741 -0 0 1 1.000000 0.146155
-6.594223 -4.610897 0.009741 0 0 1 1.000000 0.146155
-6.762323 -4.526581 0.009741 -0 0 1 1.000000 0.030115
-6.762323 -4.610897 0.009741 0 0 1 1.000000 0.030115
-6.591284 -4.608716 0.009741 0 0 1 1.000000 0.148184
-6.591284 -4.528762 0.009741 -0 0 1 1.000000 0.148184
-6.765263 -4.608716 0.009741 0 -0 1 1.000000 0.028085
-6.765263 -4.528762 0.009741 -0 -0 1 1.000000 0.028085
-6.550599 -4.568739 0.009741 -0 -0 1 1.000000 0.176269
-6.805948 -4.568739 0.009741 -0 0 1 1.000000 0.000000
-5.786133 -4.406416 0.009741 -0 0 1 1.000000 0.703987
-5.809286 -4.363199 0.009741 -0 0 1 1.000000 0.688004
-5.809286 -4.449634 0.009741 -0 0 1 1.000000 0.688004
-5.809286 -4.276764 0.009741 0 -0 1 1.000000 0.688004
-5.786133 -4.319982 0.009741 0 -0 1 1.000000 0.703987
-5.832438 -4.406416 0.009741 -0 0 1 1.000000 0.672022
-5.832438 -4.319982 0.009741 0 0 1 1.000000 0.672022
-5.788467 -4.492851 0.009741 0 0 1 1.000000 0.702376
-5.788467 -4.233546 0.009741 -0 0 1 1.000000 0.702376
-5.830105 -4.492851 0.009741 0 0 1 1.000000 0.673633
-5.830105 -4.233546 0.009741 -0 0 1 1.000000 0.673633
-5.759462 -4.449634 0.009741 -0 0 1 1.000000 0.722398
-5.759462 -4.276764 0.009741 0 0 1 1.000000 0.722398
-5.85911 -4.449634 0.009741 -0 0 1 1.000000 0.653610
-5.85911 -4.276764 0.009741 0 0 1 1.000000 0.653610
-5.809286 -4.536069 0.009741 0 -0 1 1.000000 0.688004
-5.809286 -4.190329 0.009741 -0 0 1 1.000000 0.688004
-5.761243 -4.364259 0.009741 0 0 1 1.000000 0.721169
-5.761243 -4.362139 0.009741 -0 0 1 1.000000 0.721169
-5.857328 -4.364259 0.009741 0 -0 1 1.000000 0.654840
-5.857328 -4.362139 0.009741 -0 -0 1 1.000000 0.654840
-5.784396 -4.321041 0.009741 -0 0 1 1.000000 0.705186
-5.784396 -4.405357 0.009741 0 0 1 1.000000 0.705186
-5.834176 -4.321041 0.009741 -0 0 1 1.000000 0.670822
-5.834176 -4.405357 0.009741 0 0 1 1.000000 0.670822
-5.759497 -4.284205 0.009741 0 0 1 1.000000 0.722374
-5.759497 -4.442193 0.009741 -0 0 1 1.000000 0.722374
-5.859075 -4.284205 0.009741 0 0 1 1.000000 0.653634
-5.859075 -4.442193 0.009741 -0 0 1 1.000000 0.653634
-5.784396 -4.235673 0.009741 -0 0 1 1.000000 0.705186
-5.809286 -4.190329 0.009741 -0 0 1 1.000000 0.688004
-5.809286 -4.276764 0.009741 -0 0 1 1.000000 0.688004
-5.809286 -4.449634 0.009741 0 -0 1 1.000000 0.688004
-5.809286 -4.536069 0.009741 0 -0 1 1.000000 0.688004
-5.784396 -4.490725 0.009741 0 -0 1 1.000000 0.705186
-5.834176 -4.235673 0.009741 -0 0 1 1.000000 0.670822
-5.834176 -4.490725 0.009741 0 0 1 1.000000 0.670822
-5.725236 -4.321041 0.009741 -0 0 1 1.000000 0.746024
-5.725236 -4.405357 0.009741 0 0 1 1.000000 0.746024
-5.893336 -4.321041 0.009741 -0 0 1 1.000000 0.629984
-5.893336 -4.405357 0.009741 0 0 1 1.000000 0.629984
-5.722296 -4.403176 0.009741 0 0 1 1.000000 0.748054
-5.722296 -4.323222 0.009741 -0 0 1 1.000000 0.748054
-5.896276 -4.403176 0.009741 0 -0 1 1.000000 0.627954
-5.896276 -4.323222 0.009741 -0 -0 1 1.000000 0.627954
-5.681611 -4.363199 0.009741 -0 -0 1 1.000000 0.776139
-5.936961 -4.363199 0.009741 -0 0 1 1.000000 0.599869
-5.786133 -5.665598 0.009741 -0 0 1 1.000000 0.703987
-5.809286 -5.622381 0.009741 -0 0 1 1.000000 0.688004
-5.809286 -5.708816 0.009741 -0 0 1 1.000000 0.688004
-5.809286 -5.535945 0.009741 0 -0 1 1.000000 0.688004
-5.786133 -5.579163 0.009741 0 -0 1 1.000000 0.703987
-5.832438 -5.665598 0.009741 -0 0 1 1.000000 0.672022
-5.832438 -5.579163 0.009741 0 0 1 1.000000 0.672022
-5.788467 -5.752033 0.009741 0 0 1 1.000000 0.702376
-5.788467 -5.492728 0.009741 -0 0 1 1.000000 0.702376
-5.830105 -5.752033 0.009741 0 0 1 1.000000 0.673633
-5.830105 -5.492728 0.009741 -0 0 1 1.000000 0.673633
-5.759462 -5.708816 0.009741 -0 0 1 1.000000 0.722398
-5.759462 -5.535945 0.009741 0 0 1 1.000000 0.722398
-5.85911 -5.708816 0.009741 -0 0 1 1.000000 0.653610
-5.85911 -5.535945 0.009741 0 0 1 1.000000 0.653610
-5.809286 -5.79525 0.009741 0 -0 1 1.000000 0.688004
-5.809286 -5.449511 0.009741 -0 0 1 1.000000 0.688004
-5.761243 -5.62344 0.009741 0 0 1 1.000000 0.721169
-5.761243 -5.621321 0.009741 -0 0 1 1.000000 0.721169
-5.857328 -5.62344 0.009741 0 -0 1 1.000000 0.654840
-5.857328 -5.621321 0.009741 -0 -0 1 1.000000 0.654840
-5.784396 -5.580223 0.009741 -0 0 1 1.000000 0.705186
-5.784396 -5.664538 0.009741 0 0 1 1.000000 0.705186
-5.834176 -5.580223 0.009741 -0 0 1 1.000000 0.670822
-5.834176 -5.664538 0.009741 0 0 1 1.000000 0.670822
-5.759497 -5.543387 0.009741 0 0 1 1.000000 0.722374
-5.759497 -5.701374 0.009741 -0 0 1 1.000000 0.722374
-5.859075 -5.543387 0.009741 0 0 1 1.000000 0.653634
-5.859075 -5.701374 0.009741 -0 0 1 1.000000 0.653634
-5.784396 -5.494854 0.009741 -0 0 1 1.000000 0.705186
-5.809286 -5.449511 0.009741 -0 0 1 1.000000 0.688004
-5.809286 -5.535945 0.009741 -0 0 1 1.000000 0.688004
-5.809286 -5.708816 0.009741 0 -0 1 1.000000 0.688004
-5.809286 -5.79525 0.009741 0 -0 1 1.000000 0.688004
-5.784396 -5.749907 0.009741 0 -0 1 1.000000 0.705186
-5.834176 -5.494854 0.009741 -0 0 1 1.000000 0.670822
-5.834176 -5.749907 0.009741 0 0 1 1.000000 0.670822
-5.725236 -5.580223 0.009741 -0 0 1 1.000000 0.746024
-5.725236 -5.664538 0.009741 0 0 1 1.000000 0.746024
-5.893336 -5.580223 0.009741 -0 0 1 1.000000 0.629984
-5.893336 -5.664538 0.009741 0 0 1 1.000000 0.629984
-5.722296 -5.662358 0.009741 0 0 1 1.000000 0.748054
-5.722296 -5.582403 0.009741 -0 0 1 1.000000 0.748054
-5.896276 -5.662358 0.009741 0 -0 1 1.000000 0.627954
-5.896276 -5.582403 0.009741 -0 -0 1 1.000000 0.627954
-5.681611 -5.622381 0.009741 -0 -0 1 1.000000 0.776139
-5.936961 -5.622381 0.009741 -0 0 1 1.000000 0.599869
3 0 1 2 
3 3 1 4 
3 2 1 5 
3 6 1 3 
3 2 7 0 
3 4 8 3 
3 5 9 2 
3 3 10 6 
3 11 0 7 
3 8 4 12 
3 9 5 13 
3 14 6 10 
3 2 15 7 
3 8 16 3 
3 9 15 2 
3 3 16 10 
3 0 11 17 
3 18 12 4 
3 19 13 5 
3 6 14 20 
3 17 21 0 
3 4 22 18 
3 5 23 19 
3 20 24 6 
3 1 0 21 
3 22 4 1 
3 23 5 1 
3 1 6 24 
3 21 17 25 
3 26 18 22 
3 27 19 23 
3 24 20 28 
3 29 30 31 
3 32 33 34 
3 31 30 35 
3 36 33 32 
3 31 21 29 
3 34 22 32 
3 35 23 31 
3 32 24 36 
3 25 29 21 
3 22 34 26 
3 23 35 27 
3 28 36 24 
3 21 31 1 
3 1 32 22 
3 1 31 23 
3 24 32 1 
3 37 25 17 
3 18 26 38 
3 19 27 39 
3 40 28 20 
3 17 41 37 
3 38 42 18 
3 39 43 19 
3 20 44 40 
3 45 37 41 
3 42 38 45 
3 43 39 46 
3 46 40 44 
3 41 17 11 
3 12 18 42 
3 13 19 43 
3 44 20 14 
3 47 48 49 
3 48 50 49 
3 51 50 48 
3 47 52 48 
3 52 53 54 
3 47 53 52 
3 47 55 53 
3 47 56 55 
3 47 57 56 
3 47 58 57 
3 58 59 57 
3 58 60 59 
3 60 61 59 
3 60 62 61 
3 62 63 61 
3 64 63 62 
3 65 63 64 
3 66 63 65 
3 66 67 63 
3 68 67 66 
3 69 67 68 
3 69 70 67 
3 71 70 69 
3 71 72 70 
3 73 72 71 
3 74 72 73 
3 74 75 72 
3 76 75 74 
3 76 77 75 
3 78 77 76 
3 79 77 78 
3 79 80 77 
3 81 80 79 
3 82 80 81 
3 82 83 80 
3 84 83 82 
3 85 86 87 
3 88 83 84 
3 85 89 86 
3 88 90 83 
3 91 90 88 
3 85 92 89 
3 85 93 92 
3 94 90 91 
3 85 95 93 
3 85 96 95 
3 97 90 94 
3 85 98 96 
3 97 99 90 
3 100 99 97 
3 85 101 98 
3 85 102 101 
3 103 99 100 
3 85 104 102 
3 85 105 104 
3 106 99 103 
3 85 106 105 
3 85 99 106 
3 85 107 99 
3 85 108 107 
3 85 109 108 
3 110 109 85 
3 111 109 110 
3 111 112 109 
3 113 112 111 
3 114 112 113 
3 115 112 114 
3 115 116 112 
3 117 116 115 
3 118 116 117 
3 118 119 116 
3 120 119 118 
3 121 119 120 
3 122 119 121 
3 122 123 119 
3 124 123 122 
3 125 126 127 
3 126 128 127 
3 129 128 126 
3 125 130 126 
3 130 131 132 
3 125 131 130 
3 125 133 131 
3 125 134 133 
3 125 135 134 
3 125 136 135 
3 136 137 135 
3 136 138 137 
3 138 139 137 
3 138 140 139 
3 140 141 139 
3 142 141 140 
3 143 141 142 
3 144 141 143 
3 144 145 141 
3 146 145 144 
3 147 145 146 
3 147 148 145 
3 149 148 147 
3 149 150 148 
3 151 150 149 
3 152 150 151 
3 152 153 150 
3 154 153 152 
3 154 155 153 
3 156 155 154 
3 157 155 156 
3 157 158 155 
3 159 158 157 
3 160 158 159 
3 160 161 158 
3 162 161 160 
3 163 164 165 
3 166 161 162 
3 163 167 164 
3 166 168 161 
3 169 168 166 
3 163 170 167 
3 163 171 170 
3 172 168 169 
3 163 173 171 
3 163 174 173 
3 175 168 172 
3 163 176 174 
3 175 177 168 
3 178 177 175 
3 163 179 176 
3 163 180 179 
3 181 177 178 
3 163 182 180 
3 163 183 182 
3 184 177 181 
3 163 184 183 
3 163 177 184 
3 163 185 177 
3 163 186 185 
3 163 187 186 
3 188 187 163 
3 189 187 188 
3 189 190 187 
3 191 190 189 
3 192 190 191 
3 193 190 192 
3 193 194 190 
3 195 194 193 
3 196 194 195 
3 196 197 194 
3 198 197 196 
3 199 197 198 
3 200 197 199 
3 200 201 197 
3 202 201 200 
3 203 204 205 
3 206 204 207 
3 205 204 208 
3 209 204 206 
3 205 210 203 
3 207 211 206 
3 208 212 205 
3 206 213 209 
3 214 203 210 
3 211 207 215 
3 212 208 216 
3 217 209 213 
3 205 218 210 
3 211 219 206 
3 212 218 205 
3 206 219 213 
3 203 214 220 
3 221 215 207 
3 222 216 208 
3 209 217 223 
3 220 224 203 
3 207 225 221 
3 208 226 222 
3 223 227 209 
3 204 203 224 
3 225 207 204 
3 226 208 204 
3 204 209 227 
3 224 220 228 
3 229 221 225 
3 230 222 226 
3 227 223 231 
3 232 233 234 
3 235 236 237 
3 234 233 238 
3 239 236 235 
3 234 224 232 
3 237 225 235 
3 238 226 234 
3 235 227 239 
3 228 232 224 
3 225 237 229 
3 226 238 230 
3 231 239 227 
3 224 234 204 
3 204 235 225 
3 204 234 226 
3 227 235 204 
3 240 228 220 
3 221 229 241 
3 222 230 242 
3 243 231 223 
3 220 244 240 
3 241 245 221 
3 242 246 222 
3 223 247 243 
3 248 240 244 
3 245 241 248 
3 246 242 249 
3 249 243 247 
3 244 220 214 
3 215 221 245 
3 216 222 246 
3 247 223 217 
3 250 251 252 
3 253 251 254 
3 252 251 255 
3 256 251 253 
3 252 257 250 
3 254 258 253 
3 255 259 252 
3 253 260 256 
3 261 250 257 
3 258 254 262 
3 259 255 263 
3 264 256 260 
3 252 265 257 
3 258 266 253 
3 259 265 252 
3 253 266 260 
3 250 261 267 
3 268 262 254 
3 269 263 255 
3 256 264 270 
3 267 271 250 
3 254 272 268 
3 255 273 269 
3 270 274 256 
3 251 250 271 
3 272 254 251 
3 273 255 251 
3 251 256 274 
3 271 267 275 
3 276 268 272 
3 277 269 273 
3 274 270 278 
3 279 280 281 
3 282 283 284 
3 281 280 285 
3 286 283 282 
3 281 271 279 
3 284 272 282 
3 285 273 281 
3 282 274 286 
3 275 279 271 
3 272 284 276 
3 273 285 277 
3 278 286 274 
3 271 281 251 
3 251 282 272 
3 251 281 273 
3 274 282 251 
3 287 275 267 
3 268 276 288 
3 269 277 289 
3 290 278 270 
3 267 291 287 
3 288 292 268 
3 289 293 269 
3 270 294 290 
3 295 287 291 
3 292 288 295 
3 293 289 296 
3 296 290 294 
3 291 267 261 
3 262 268 292 
3 263 269 293 
3 294 270 264 
3 297 298 299 
3 300 298 301 
3 299 298 302 
3 303 298 300 
3 299 304 297 
3 301 305 300 
3 302 306 299 
3 300 307 303 
3 308 297 304 
3 305 301 309 
3 306 302 310 
3 311 303 307 
3 299 312 304 
3 305 313 300 
3 306 312 299 
3 300 313 307 
3 297 308 314 
3 315 309 301 
3 316 310 302 
3 303 311 317 
3 314 318 297 
3 301 319 315 
3 302 320 316 
3 317 321 303 
3 298 297 318 
3 319 301 298 
3 320 302 298 
3 298 303 321 
3 318 314 322 
3 323 315 319 
3 324 316 320 
3 321 317 325 
3 326 327 328 
3 329 330 331 
3 328 327 332 
3 333 330 329 
3 328 318 326 
3 331 319 329 
3 332 320 328 
3 329 321 333 
3 322 326 318 
3 319 331 323 
3 320 332 324 
3 325 333 321 
3 318 328 298 
3 298 329 319 
3 298 328 320 
3 321 329 298 
3 334 322 314 
3 315 323 335 
3 316 324 336 
3 337 325 317 
3 314 338 334 
3 335 339 315 
3 336 340 316 
3 317 341 337 
3 342 334 338 
3 339 335 342 
3 340 336 343 
3 343 337 341 
3 338 314 308 
3 309 315 339 
3 310 316 340 
3 341 317 311 
3 344 345 346 
3 347 345 348 
3 346 345 349 
3 350 345 347 
3 346 351 344 
3 348 352 347 
3 349 353 346 
3 347 354 350 
3 355 344 351 
3 352 348 356 
3 353 349 357 
3 358 350 354 
3 346 359 351 
3 352 360 347 
3 353 359 346 
3 347 360 354 
3 344 355 361 
3 362 356 348 
3 363 357 349 
3 350 358 364 
3 361 365 344 
3 348 366 362 
3 349 367 363 
3 364 368 350 
3 345 344 365 
3 366 348 345 
3 367 349 345 
3 345 350 368 
3 365 361 369 
3 370 362 366 
3 371 363 367 
3 368 364 372 
3 373 374 375 
3 376 377 378 
3 375 374 379 
3 380 377 376 
3 375 365 373 
3 378 366 376 
3 379 367 375 
3 376 368 380 
3 369 373 365 
3 366 378 370 
3 367 379 371 
3 372 380 368 
3 365 375 345 
3 345 376 366 
3 345 375 367 
3 368 376 345 
3 381 369 361 
3 362 370 382 
3 363 371 383 
3 384 372 364 
3 361 385 381 
3 382 386 362 
3 383 387 363 
3 364 388 384 
3 389 381 385 
3 386 382 389 
3 387 383 390 
3 390 384 388 
3 385 361 355 
3 356 362 386 
3 357 363 387 
3 388 364 358 
3 391 392 393 
3 394 392 395 
3 393 392 396 
3 397 392 394 
3 393 398 391 
3 395 399 394 
3 396 400 393 
3 394 401 397 
3 402 391 398 
3 399 395 403 
3 400 396 404 
3 405 397 401 
3 393 406 398 
3 399 407 394 
3 400 406 393 
3 394 407 401 
3 391 402 408 
3 409 403 395 
3 410 404 396 
3 397 405 411 
3 408 412 391 
3 395 413 409 
3 396 414 410 
3 411 415 397 
3 392 391 412 
3 413 395 392 
3 414 396 392 
3 392 397 415 
3 412 408 416 
3 417 409 413 
3 418 410 414 
3 415 411 419 
3 420 421 422 
3 423 424 425 
3 422 421 426 
3 427 424 423 
3 422 412 420 
3 425 413 423 
3 426 414 422 
3 423 415 427 
3 416 420 412 
3 413 425 417 
3 414 426 418 
3 419 427 415 
3 412 422 392 
3 392 423 413 
3 392 422 414 
3 415 423 392 
3 428 416 408 
3 409 417 429 
3 410 418 430 
3 431 419 411 
3 408 432 428 
3 429 433 409 
3 430 434 410 
3 411 435 431 
3 436 428 432 
3 433 429 436 
3 434 430 437 
3 437 431 435 
3 432 408 402 
3 403 409 433 
3 404 410 434 
3 435 411 405 
3 438 439 440 
3 441 439 442 
3 440 439 443 
3 444 439 441 
3 440 445 438 
3 442 446 441 
3 443 447 440 
3 441 448 444 
3 449 438 445 
3 446 442 450 
3 447 443 451 
3 452 444 448 
3 440 453 445 
3 446 454 441 
3 447 453 440 
3 441 454 448 
3 438 449 455 
3 456 450 442 
3 457 451 443 
3 444 452 458 
3 455 459 438 
3 442 460 456 
3 443 461 457 
3 458 462 444 
3 439 438 459 
3 460 442 439 
3 461 443 439 
3 439 444 462 
3 459 455 463 
3 464 456 460 
3 465 457 461 
3 462 458 466 
3 467 468 469 
3 470 471 472 
3 469 468 473 
3 474 471 470 
3 469 459 467 
3 472 460 470 
3 473 461 469 
3 470 462 474 
3 463 467 459 
3 460 472 464 
3 461 473 465 
3 466 474 462 
3 459 469 439 
3 439 470 460 
3 439 469 461 
3 462 470 439 
3 475 463 455 
3 456 464 476 
3 457 465 477 
3 478 466 458 
3 455 479 475 
3 476 480 456 
3 477 481 457 
3 458 482 478 
3 483 475 479 
3 480 476 483 
3 481 477 484 
3 484 478 482 
3 479 455 449 
3 450 456 480 
3 451 457 481 
3 482 458 452 
